<svg width="64" height="90" viewBox="0 0 64 90" fill="none" xmlns="http://www.w3.org/2000/svg">
<path d="M17.9547 67.4642C17.9547 67.4642 14.7202 69.3773 11.6474 65.9952C11.6474 65.9952 8.70395 64.5946 7.63656 62.3057C6.56917 60.0169 6.08399 57.728 6.82793 56.3957L17.6978 65.6878L17.9547 67.4642Z" fill="#9F3543"/>
<path d="M19.7185 75.9163C19.8497 75.3617 19.9639 74.803 20.0552 74.2404C20.1123 73.8887 20.1618 73.535 20.2036 73.1813C20.2588 72.902 20.2873 72.6167 20.2912 72.3313C20.2912 72.3233 20.2931 72.3152 20.2931 72.3092C20.2931 72.2992 20.2931 72.2891 20.2912 72.2791C20.2931 71.8149 20.2341 71.3466 20.137 70.8925C19.9544 70.0404 19.6366 69.2326 19.3379 68.4207C19.1648 67.9525 18.9992 67.4783 18.868 66.996C18.8204 66.8191 18.5559 66.8875 18.6035 67.0663C18.6073 67.0784 18.6111 67.0904 18.613 67.1025C17.8367 67.6029 16.9653 68.0028 16.0482 68.0671C15.7876 68.0852 15.5212 68.0771 15.2624 68.0349C15.2168 68.0269 15.1711 68.0349 15.1368 68.0631C15.1159 68.057 15.095 68.057 15.0741 68.0631C14.996 68.0831 14.9656 68.1595 14.9751 68.2379C15.0455 68.7885 15.0703 69.3451 15.0531 69.9018C15.0531 69.9138 15.0531 69.9259 15.055 69.938C14.9694 70.0123 14.8781 70.0786 14.7849 70.1409C14.7829 70.1429 14.7791 70.1429 14.7772 70.1449C13.3997 70.8 12.0374 71.4933 10.6941 72.2268C10.1481 72.5242 9.47262 72.8658 9.28426 73.5411C9.11873 74.1359 9.46692 74.7709 9.98254 75.0201C10.4829 75.2632 11.0594 75.1346 11.499 74.8111C11.5237 74.8151 11.5503 74.8091 11.5789 74.793C12.5968 74.2002 13.5881 73.5551 14.5451 72.8618C14.2806 73.4144 13.921 73.9048 13.5424 74.383C13.5006 74.3871 13.4625 74.4112 13.434 74.4494C13.2989 74.6403 13.1657 74.8292 13.0306 75.0201C12.8441 75.2532 12.6615 75.4903 12.494 75.7335C12.359 75.9304 12.2296 76.1313 12.1135 76.3423C11.9385 76.6217 11.7844 76.9131 11.674 77.2265C11.5085 77.7028 11.4704 78.2554 11.6797 78.7257C11.8776 79.1678 12.3038 79.427 12.7509 79.4973C13.276 79.5797 13.7974 79.3868 14.2597 79.1376C14.3187 79.1055 14.3358 79.0512 14.3282 78.999C14.332 78.9969 14.3358 78.9949 14.3396 78.9909C15.0265 78.4463 15.4869 77.6606 15.9169 76.8889C16.4154 75.9987 16.9063 75.1025 17.3953 74.2062C17.4904 74.0294 17.5856 73.8525 17.6826 73.6757C17.498 74.2504 17.3325 74.8332 17.1879 75.42C17.0738 75.8822 16.971 76.3464 16.8797 76.8146C16.8359 77.0437 16.7941 77.2748 16.7541 77.5059C16.718 77.7229 16.6837 77.9439 16.6856 78.165C16.6875 78.3378 16.7141 78.5147 16.7712 78.6814C16.7446 78.7196 16.7351 78.7719 16.7598 78.8281C16.8568 79.0371 17.0205 79.1798 17.2126 79.2522C17.2222 79.2582 17.2336 79.2642 17.2431 79.2702C17.2716 79.2843 17.3002 79.2903 17.3287 79.2883C17.3325 79.2883 17.3363 79.2903 17.3401 79.2903C17.3534 79.3546 17.4086 79.3948 17.4714 79.4029C17.8881 79.4511 18.2743 79.2059 18.5502 78.8945C18.8851 78.5126 19.0944 78.0243 19.258 77.542C19.4464 77.0095 19.5891 76.4609 19.7185 75.9163Z" fill="#E6D052"/>
<path d="M18.1278 63.8901C18.436 63.1302 18.5901 62.3121 18.5749 61.4859C18.5711 61.301 18.299 61.305 18.3028 61.4899C18.3162 62.2638 18.1773 63.0398 17.8881 63.7514C17.8595 63.8217 17.8728 63.9062 17.9432 63.9464C18.0041 63.9825 18.0993 63.9624 18.1278 63.8901Z" fill="#35322D"/>
<path d="M19.4009 77.755C19.4085 77.7349 19.4142 77.7148 19.4218 77.6968C19.4598 77.6606 19.4789 77.6063 19.4712 77.5561C19.6882 76.9171 19.8556 76.262 20.0116 75.6028C20.1676 74.9417 20.3274 74.2765 20.4397 73.6053C20.5463 72.9643 20.6071 72.3052 20.5424 71.6561C20.4682 70.9246 20.2076 70.2474 19.9621 69.5642L19.1687 67.3456C19.104 67.1628 19.0374 66.9799 18.9728 66.797C18.9709 66.791 18.967 66.785 18.9651 66.781C19.1916 66.5036 19.3799 66.1942 19.5226 65.8546C19.8137 65.1572 19.9127 64.3655 19.73 63.622C19.7091 63.5335 19.6824 63.4451 19.652 63.3587C19.6349 63.3085 19.5949 63.2683 19.5493 63.2582C19.6824 62.4906 19.7281 61.7069 19.6863 60.9292C19.6197 59.6792 19.3343 58.4454 18.8415 57.306C18.5675 56.671 18.2269 56.0661 17.8254 55.5115C17.7817 55.4492 17.7075 55.417 17.639 55.4612C17.5819 55.4974 17.5458 55.5959 17.5914 55.6582C18.2935 56.6308 18.8053 57.7461 19.1059 58.9257C19.4066 60.1013 19.5017 61.3371 19.3742 62.5469C19.3038 63.2261 19.1592 63.8953 18.9499 64.5403C18.9252 64.6147 18.9823 64.6971 19.0489 64.7131C19.125 64.7332 19.1897 64.681 19.2125 64.6086C19.3114 64.3072 19.3932 63.9998 19.4617 63.6903C19.6082 64.2911 19.5588 64.9282 19.359 65.5149C19.1288 66.1881 18.695 66.781 18.1356 67.1849C17.542 67.6149 16.8342 67.848 16.1188 67.9003C15.3539 67.9565 14.5871 67.8058 13.8812 67.4943C13.1887 67.1909 12.557 66.7508 11.9919 66.2324C12.4371 66.4353 12.8957 66.6101 13.358 66.7589C13.4703 66.795 13.5825 66.8292 13.6967 66.8613C13.866 66.9096 13.9307 66.6322 13.7614 66.582C12.8766 66.3248 12.0185 65.9711 11.208 65.5129C10.4032 65.0568 9.65162 64.5001 8.9933 63.831C8.39015 63.2201 7.87453 62.5227 7.47307 61.7491C7.09825 61.0256 6.82426 60.2419 6.67586 59.4301C6.52935 58.6323 6.50652 57.8023 6.6359 57.0005C6.65112 56.9001 6.67015 56.7996 6.69108 56.6991C6.72723 56.5182 6.46466 56.4499 6.42661 56.6308C6.25537 57.4668 6.24015 58.3288 6.36001 59.1728C6.47988 60.0169 6.73484 60.8367 7.09444 61.6004C7.46926 62.3961 7.96586 63.1236 8.54807 63.7646C9.19688 64.478 9.95034 65.0809 10.759 65.5752C10.9606 65.6998 11.168 65.8164 11.3773 65.9269C11.3678 65.9691 11.3773 66.0153 11.4154 66.0555C12.028 66.6925 12.732 67.2472 13.514 67.633C13.9022 67.8239 14.3093 67.9726 14.726 68.0691C14.6899 68.1052 14.6784 68.1595 14.6861 68.2138C14.766 68.7523 14.8478 69.2909 14.9277 69.8294C14.922 69.8314 14.9144 69.8314 14.9087 69.8334C13.9649 70.2213 13.0403 70.6634 12.1403 71.1557C11.6913 71.4009 11.2499 71.6601 10.8141 71.9314C10.5972 72.066 10.3803 72.2047 10.1672 72.3474C9.95224 72.49 9.73914 72.6367 9.55078 72.8176C9.23303 73.1231 9.03896 73.531 9.06179 73.9892C9.08082 74.381 9.24255 74.7709 9.51843 75.0341C9.82286 75.3255 10.2433 75.43 10.6448 75.3918C11.1091 75.3476 11.5333 75.1346 11.9234 74.8774C12.3648 74.584 12.7891 74.2605 13.2191 73.951C13.4741 73.7661 13.7309 73.5812 13.9859 73.3984L12.928 74.6885C12.1707 75.6109 11.2556 76.6438 11.3431 77.96C11.3792 78.5046 11.5904 79.0472 12.0128 79.3808C12.4295 79.7103 12.9622 79.7847 13.4646 79.6942C14.6727 79.4732 15.3958 78.3217 15.9932 77.2868C16.0179 77.2667 16.0369 77.2366 16.0427 77.2024C16.056 77.1803 16.0693 77.1562 16.0826 77.1341C16.4708 76.4569 16.8418 75.7656 17.1938 75.0663C17.2223 75.0442 17.2413 75.01 17.2432 74.9698C17.2775 74.9015 17.3117 74.8332 17.346 74.7648C17.053 75.6511 16.7999 76.5533 16.5982 77.4657C16.4784 78.0102 16.387 78.6955 16.7181 79.1818C17.0701 79.6963 17.717 79.7445 18.2288 79.4832C18.8605 79.1557 19.1649 78.4081 19.4009 77.755ZM11.0025 75.0301C10.6505 75.1406 10.2491 75.1587 9.91609 74.9779C9.62498 74.8211 9.43281 74.5177 9.36051 74.1841C9.2825 73.8183 9.37193 73.4506 9.60595 73.1693C9.76007 72.9844 9.94843 72.8417 10.1406 72.7071C10.1463 72.7131 10.1539 72.7191 10.1596 72.7252C10.8122 73.2215 11.1814 74.1238 11.0786 74.9658C11.0767 74.9799 11.0767 74.9919 11.0786 75.004C11.0539 75.014 11.0291 75.0221 11.0025 75.0301ZM11.3583 74.8834C11.4059 74.17 11.1833 73.4607 10.7475 72.9121C10.6391 72.7754 10.5154 72.6548 10.3841 72.5443C10.5116 72.4599 10.6391 72.3775 10.7666 72.2971C10.9892 72.1565 11.2137 72.0178 11.4401 71.8832C11.4458 71.9033 11.4572 71.9254 11.4744 71.9435C12.0585 72.5544 12.3268 73.4707 12.1669 74.3227C12.165 74.3368 12.1631 74.3509 12.165 74.3629C11.9082 74.5518 11.6437 74.7427 11.3583 74.8834ZM12.4676 74.1479C12.5361 73.4848 12.3857 72.7995 12.0452 72.2369C11.9386 72.06 11.813 71.8972 11.6741 71.7485C11.7921 71.6802 11.912 71.6119 12.0299 71.5436C12.2792 71.4049 12.5284 71.2683 12.7815 71.1376C12.7872 71.1577 12.7986 71.1778 12.8157 71.1959C13.3428 71.7606 13.592 72.5945 13.4607 73.3763C13.4569 73.3964 13.4588 73.4124 13.4607 73.4305C13.1297 73.6696 12.7986 73.9088 12.4676 74.1479ZM14.8725 72.7593C14.8877 72.7473 14.9011 72.7312 14.9106 72.7131C15.1104 72.47 15.3101 72.2268 15.5099 71.9836C15.6165 71.853 15.723 71.7244 15.8296 71.5938C15.9437 71.4551 15.7496 71.2542 15.6336 71.3949L14.6861 72.5483C14.374 72.7734 14.062 72.9985 13.7519 73.2215C13.8222 72.4177 13.5559 71.5978 13.0231 71.013C13.5578 70.7417 14.0981 70.4885 14.648 70.2534C14.7584 70.2052 14.8706 70.159 14.9829 70.1128C15.019 70.0987 15.0476 70.0726 15.0647 70.0404C15.0818 70.0424 15.097 70.0404 15.1123 70.0364C15.1903 70.0143 15.2188 69.9359 15.2074 69.8596C15.1218 69.2848 15.0361 68.7121 14.9486 68.1374C14.9467 68.1294 14.9448 68.1213 14.9429 68.1153C15.253 68.1736 15.567 68.2017 15.8828 68.1957C16.6496 68.1816 17.4221 67.9766 18.0823 67.5607C18.3277 67.4059 18.5542 67.221 18.7559 67.0121C18.9956 67.6832 19.2353 68.3564 19.477 69.0276C19.6044 69.3813 19.73 69.735 19.8575 70.0907C19.9755 70.4242 20.0934 70.7598 20.1733 71.1055C20.3978 72.0701 20.278 73.0587 20.0839 74.0213C19.6958 73.8224 19.2867 73.6596 18.851 73.6295C18.5485 73.6094 18.2421 73.6616 17.97 73.7983C18.0309 73.6335 18.0918 73.4707 18.1546 73.3079C18.1812 73.2416 18.1717 73.1653 18.1127 73.121C18.1337 73.0728 18.1565 73.0226 18.1774 72.9743C18.2079 72.904 18.1908 72.8176 18.1223 72.7794C18.0614 72.7432 17.9681 72.7654 17.9377 72.8377C17.677 73.4325 17.4031 74.0213 17.1158 74.6041C16.935 74.2102 16.642 73.8786 16.2767 73.6636C16.0541 73.533 15.8143 73.4305 15.5765 73.3341C15.3748 73.2517 15.1674 73.1813 14.9524 73.1532C14.8135 73.1351 14.6765 73.1351 14.5434 73.1572C14.6556 73.0246 14.7641 72.892 14.8725 72.7593ZM14.9277 78.4081C14.6252 78.7799 14.2637 79.1115 13.8299 79.2883C13.4056 79.4611 12.909 79.5154 12.479 79.3325C12.0299 79.1416 11.7483 78.7176 11.6494 78.2273C11.4972 77.4717 11.7598 76.7844 12.1479 76.1695C13.0269 76.4669 13.9992 76.8005 14.5643 77.6304C14.7108 77.8435 14.8192 78.0786 14.8801 78.3338C14.8896 78.3659 14.9068 78.3921 14.9277 78.4081ZM15.137 78.1348C15.1313 78.1429 15.1256 78.1509 15.118 78.159C14.8345 77.1582 13.9402 76.5533 13.0631 76.1956C12.8157 76.0952 12.5646 76.0067 12.3115 75.9203C12.4999 75.649 12.7073 75.3938 12.9052 75.1547C13.0307 75.002 13.1563 74.8492 13.2819 74.6965C13.2914 74.7005 13.3009 74.7046 13.3123 74.7066C14.2446 74.8935 15.059 75.5526 15.5042 76.4328C15.6184 76.6578 15.704 76.897 15.763 77.1441C15.5689 77.4858 15.3653 77.8214 15.137 78.1348ZM16.153 76.4468C16.0864 76.5674 16.0179 76.69 15.9513 76.8106C15.6602 75.9063 15.0076 75.1346 14.1933 74.7166C13.9669 74.6001 13.7271 74.5096 13.4817 74.4514C13.7385 74.1399 13.9935 73.8264 14.2503 73.5149C14.2865 73.527 14.3265 73.523 14.3645 73.5049C14.7089 73.3381 15.1104 73.4546 15.4471 73.5852C15.8695 73.75 16.3014 73.9429 16.6077 74.3027C16.7619 74.4835 16.8779 74.6985 16.9521 74.9296C16.6972 75.4421 16.4308 75.9465 16.153 76.4468ZM17.3802 75.5787C17.5153 75.1286 17.658 74.6825 17.8121 74.2383C17.8178 74.2343 17.8235 74.2303 17.8274 74.2263C18.1127 73.9671 18.5085 73.8867 18.8757 73.9168C19.2791 73.949 19.6634 74.1198 20.0211 74.3087C19.985 74.4775 19.9469 74.6463 19.9089 74.8131C19.8556 75.0482 19.8023 75.2833 19.7471 75.5184C19.7129 75.4903 19.671 75.4662 19.6311 75.4501C19.437 75.3677 19.2372 75.3054 19.0298 75.2753C18.617 75.213 18.1927 75.2491 17.7969 75.3878C17.6542 75.436 17.5153 75.5003 17.3802 75.5787ZM17.013 76.907C17.091 76.5975 17.1747 76.2901 17.2623 75.9826C17.2756 75.9786 17.2889 75.9746 17.3003 75.9666C17.6333 75.7254 18.0233 75.5767 18.4248 75.5405C18.6265 75.5224 18.8281 75.5285 19.0279 75.5626C19.1269 75.5807 19.2239 75.6028 19.319 75.633C19.3704 75.649 19.4199 75.6671 19.4712 75.6872C19.4827 75.6912 19.4941 75.6973 19.5074 75.7033C19.5074 75.7073 19.5074 75.7113 19.5093 75.7133C19.5264 75.8038 19.6025 75.8399 19.6767 75.8319C19.5911 76.1876 19.4979 76.5433 19.3951 76.895C19.3457 77.0617 19.2943 77.2285 19.2391 77.3953C18.636 77.1421 17.9567 77.11 17.3346 77.3109C17.1728 77.3632 17.0168 77.4315 16.8684 77.5119C16.9103 77.3069 16.9616 77.108 17.013 76.907ZM17.8768 79.3144C17.6466 79.3787 17.3897 79.3707 17.1785 79.2461C16.7219 78.9748 16.7257 78.3318 16.7999 77.8555C16.8018 77.8435 16.8037 77.8314 16.8056 77.8193C16.838 77.8314 16.876 77.8294 16.9141 77.8073C17.5876 77.4094 18.4286 77.3572 19.144 77.6626C19.1155 77.743 19.085 77.8234 19.0546 77.9037C18.9271 78.2333 18.7787 78.5649 18.558 78.8362C18.3753 79.0632 18.1508 79.2381 17.8768 79.3144Z" fill="#35322D"/>
<path d="M11.5521 60.2601C11.4969 59.8421 11.3428 59.4482 11.242 59.0403C11.1982 58.8614 10.9337 58.9297 10.9775 59.1106C11.124 59.7054 11.4227 60.3344 11.2477 60.9574C11.1792 61.1985 11.0403 61.4256 10.8158 61.5301C10.5779 61.6406 10.2887 61.5864 10.0756 61.4417C9.83399 61.2769 9.67987 61.0036 9.59996 60.7182C9.89107 60.449 10.0376 60.0491 10.0699 59.6411C10.1118 59.1046 9.94625 58.5801 9.78642 58.0777C9.76359 58.0033 9.697 57.9531 9.62089 57.9732C9.5543 57.9913 9.49722 58.0737 9.52195 58.148C9.65133 58.5499 9.78833 58.9619 9.80355 59.3879C9.81686 59.7758 9.72934 60.2018 9.45155 60.4751C9.23465 60.6901 8.88266 60.8046 8.60297 60.662C8.44505 60.5816 8.32518 60.4349 8.23004 60.2802C8.1292 60.1154 8.04549 59.9385 7.9789 59.7557C7.82478 59.3417 7.75248 58.8956 7.7658 58.4495C7.7715 58.2646 7.49942 58.2606 7.49372 58.4454C7.4823 58.8875 7.54699 59.3316 7.68779 59.7476C7.82478 60.1515 8.02456 60.6057 8.37465 60.8529C8.67146 61.0619 9.0558 61.0498 9.36593 60.883C9.45916 61.1623 9.61138 61.4196 9.83209 61.6064C10.0832 61.8195 10.4219 61.9179 10.7416 61.8516C11.046 61.7873 11.2933 61.5542 11.4246 61.2628C11.5673 60.9493 11.5959 60.6037 11.5521 60.2601Z" fill="#35322D"/>
<path d="M30.7464 35.8019C30.8301 35.3779 31.5474 31.9979 33.7868 29.5141C34.0342 29.2388 34.4547 29.5221 34.3272 29.8758C34.0837 30.553 33.9885 31.2704 34.4547 31.6301C35.3603 32.3315 37.008 27.7758 40.3244 25.8608C40.6345 25.6819 40.9485 26.0818 40.7335 26.3752C40.2254 27.0725 39.8925 27.9366 40.7163 28.5033C42.1662 29.502 44.71 25.6256 48.3517 25.6337C48.6752 25.6337 48.8045 26.0758 48.5344 26.2647C47.6458 26.8816 46.508 27.9326 47.4594 28.7947C48.8007 30.0084 51.9801 27.7156 55.7873 30.1129C56.0575 30.2817 55.9604 30.7158 55.6484 30.75C54.9254 30.8283 54.132 31.1358 54.4098 32.1386C54.8911 33.8828 56.5427 33.5191 58.8829 35.4101C59.9503 36.2722 60.5459 37.1202 60.8769 37.7853C61.0444 38.1209 60.6505 38.4525 60.3784 38.2074C59.7011 37.6005 58.784 36.9253 58.1276 37.0077C56.9574 37.1523 58.0591 39.9155 59.9161 40.9323C61.5162 41.8084 62.7587 43.7095 63.0288 45.6125C63.0745 45.932 62.713 46.135 62.4866 45.9179C61.853 45.3091 60.8065 44.4349 59.8457 44.2038C58.3312 43.8401 58.607 45.1483 59.5698 47.0393C60.5325 48.9282 62.1821 52.0953 61.7502 55.0473C61.7483 55.0553 61.7483 55.0654 61.7464 55.0734C61.6684 55.4532 61.1376 55.411 61.1052 55.0232C60.9816 53.5562 60.6657 51.4381 59.8951 51.6793C58.725 52.043 59.3015 52.5394 59.37 55.3025C59.4157 57.1693 59.2083 58.2183 58.6432 59.1487C58.4453 59.4743 57.9677 59.2532 58.0553 58.8774C58.2722 57.931 58.3654 56.894 57.7813 56.7775C57.0545 56.6328 56.4456 57.949 55.7397 59.0483C55.5209 59.3879 55.0224 59.1105 55.167 58.7267C55.8196 56.9965 56.7767 54.3459 56.9536 53.2166C57.2295 51.4723 56.7462 39.8431 54.5449 37.4457C52.3435 35.0463 44.9802 32.9404 44.7043 33.1574C44.4284 33.3764 38.5111 33.3764 38.5796 33.6658C38.6424 33.929 33.2198 38.7901 32.2057 39.6984C32.1049 39.7889 31.9641 39.8049 31.848 39.7426C31.5455 39.5799 30.9918 39.2543 30.9424 39.0453C30.8777 38.776 30.7559 36.2501 30.7388 35.8904C30.7388 35.8602 30.7407 35.8301 30.7464 35.8019Z" fill="#D5863F"/>
<path d="M47.5753 73.6073C47.524 72.4278 47.3927 71.2502 47.2005 70.0887C47.0464 69.1542 46.8771 68.1796 46.4204 67.3497C46.213 66.9699 45.9391 66.6322 45.5966 66.3811C45.2084 66.0957 44.7423 65.953 44.2742 65.9229C43.1326 65.8546 42.0976 66.4675 41.2071 67.1567C41.1596 67.1929 41.1443 67.2472 41.1501 67.2974C39.7459 68.256 38.4216 69.3431 37.1982 70.5448C36.8919 70.8462 36.5913 71.1537 36.2983 71.4692C36.0072 71.7807 35.7046 72.0922 35.444 72.4318C35.326 72.5845 35.2328 72.7754 35.2994 72.9764C35.3431 73.105 35.444 73.1974 35.5715 73.2296C35.8511 73.2999 36.1537 73.1411 36.3763 72.9784C37.0498 72.482 37.7938 72.1022 38.5777 71.849C37.8432 73.0165 36.8386 73.961 36.0319 75.0703C35.5905 75.6752 35.2119 76.3363 34.9892 77.0678C34.7381 77.8897 34.6867 78.7739 34.8218 79.6239C34.9341 80.3252 35.2252 81.5048 36.0757 81.5229C36.1289 81.5249 36.1993 81.4787 36.2069 81.4184C36.3649 80.1926 36.6579 78.9889 37.0803 77.8354C37.2857 78.0143 37.261 78.4584 37.2724 78.6955C37.2915 79.1296 37.3314 79.5616 37.3885 79.9917C37.5046 80.8678 37.7005 81.7319 37.9688 82.5719C38.5034 84.2398 39.3216 85.8012 40.3757 87.1657C40.9712 87.9353 41.6428 88.6387 42.3792 89.2576C42.4324 89.3018 42.52 89.3219 42.5713 89.2576C43.947 87.5355 44.6414 85.2325 44.4512 82.9859C44.3446 81.7199 43.9279 80.5282 43.5798 79.3225C43.4903 79.009 43.4047 78.6955 43.3324 78.378C43.2791 78.1429 43.2163 77.9058 43.2392 77.6606C43.2525 77.5239 43.2963 77.2868 43.4542 77.2587C43.673 77.2205 43.7967 77.5561 43.8671 77.7169C44.4359 79.019 44.7956 80.4257 44.9287 81.8525C44.9402 81.969 45.0733 82.0514 45.1609 81.955C45.9676 81.0607 46.428 79.8349 46.4128 78.597C46.3957 77.2305 45.7944 75.9907 45.3207 74.7508C45.1533 74.3107 44.8526 73.6375 45.0581 73.1532C45.4691 74.2363 46.0266 75.2491 46.7172 76.1615C46.7648 76.2238 46.8618 76.2097 46.9094 76.1615C47.5582 75.5084 47.6134 74.4936 47.5753 73.6073Z" fill="#D5863F"/>
<path d="M32.9023 64.466C32.9023 64.466 29.2835 67.9465 23.7829 67.5647C23.7829 67.5647 19.8748 68.3283 17.8466 67.4502C17.8466 67.4502 13.3582 67.0684 11.5126 64.3153C11.5126 64.3153 8.39986 61.946 7.24114 58.773C6.08242 55.5999 6.11857 54.7599 6.08242 53.6125C6.04627 52.465 6.62467 48.2611 7.38574 47.5156C7.38574 47.5156 7.38574 43.4442 10.0457 42.4696C10.0457 42.4696 12.3802 39.0293 15.4207 37.4237C18.4611 35.818 19.1118 33.8688 19.1118 33.8688L21.4464 31.4614L25.1376 28.3084C25.1376 28.3084 27.9059 28.8811 27.8527 29.3413C27.7975 29.7995 26.8214 37.6548 26.4409 38.344C26.0604 39.0313 20.0898 51.5889 20.0898 51.5889L22.0438 57.724L25.8435 61.3934L32.9023 64.466Z" fill="#E6D052"/>
<path d="M56.6797 37.7111C52.9885 30.525 45.3151 28.4612 39.7422 30.1432C34.1693 31.8251 30.6227 37.4056 30.6227 37.4056C33.6632 27.9266 26.4235 23.3389 26.4235 23.3389L25.7728 28.9194L26.1343 29.8759L26.2428 31.5579C26.2428 31.5579 25.9174 33.9271 24.9033 35.9527C23.8892 37.9783 19.9088 43.8261 19.9088 43.8261C16.7599 49.5593 16.6876 51.4704 16.6515 53.5342C16.6153 55.598 17.7379 58.3892 19.3666 60.4912C20.9953 62.5932 23.6 63.5115 25.1564 63.8933C26.7128 64.2752 28.779 63.7326 28.779 63.7326C28.916 63.7044 29.0492 63.6743 29.1824 63.6462C29.7437 63.9476 30.3183 64.239 30.9367 64.3837C31.6463 64.5505 32.3884 64.5042 33.1095 64.4821C33.8097 64.46 34.5137 64.4078 35.1986 64.243C35.5316 64.1626 35.8569 64.0501 36.169 63.9114C36.8673 64.0139 37.5884 63.9516 38.26 63.7225C38.9374 63.4914 39.5595 63.0895 40.0694 62.565C40.1037 62.5691 40.1417 62.557 40.1722 62.5208C40.8039 61.7833 41.4013 60.9413 41.5611 59.9366C41.6011 59.6854 41.6163 59.4282 41.5916 59.1729C41.5668 58.9017 41.5059 58.6364 41.4374 58.3752C41.3138 57.913 41.1787 57.4387 40.8495 57.0891C40.5755 56.7957 40.2216 56.6108 39.8582 56.4721C39.6718 56.1144 39.4263 55.7929 39.1333 55.5256C39.7745 52.865 40.5755 49.3985 42.7103 47.8753C43.3001 47.4533 44.0365 47.2082 44.8204 47.1338C45.0106 47.2885 45.2561 47.3528 45.473 47.4593C45.7926 47.6161 46.0343 47.8994 46.3615 48.0441C46.6926 48.1908 47.0598 48.2491 47.4137 48.2913C47.7543 48.3315 48.1006 48.3375 48.4411 48.2893C48.5401 48.2752 48.6371 48.2571 48.7322 48.235C49.9899 49.1795 50.8651 50.7168 50.7453 52.8429C50.4561 58.0416 45.1724 62.2455 43.2183 65.7622C41.2643 69.2789 39.0934 72.1847 38.9469 76.5414C38.8023 80.898 40.3225 84.262 41.1901 84.4147C42.0596 84.5675 41.8408 76.2339 44.1583 72.4881C46.4738 68.7424 51.3237 65.6075 54.5087 60.7906C57.6938 55.9838 60.3708 44.8972 56.6797 37.7111ZM29.4107 41.1876C29.4393 41.0972 29.4735 40.9927 29.5116 40.8721C29.4735 40.9866 29.4393 41.0931 29.4107 41.1876Z" fill="#CE1717"/>
<path d="M49.147 66.8051C48.9301 66.2906 48.6751 65.7903 48.4125 65.302C48.1462 64.8056 47.8608 64.3193 47.5583 63.8471C47.3699 63.5517 47.1739 63.2603 46.9722 62.9729C46.8295 62.7297 46.6621 62.5047 46.4794 62.2957C46.4756 62.2897 46.4699 62.2836 46.4661 62.2776C46.4604 62.2696 46.4528 62.2635 46.4452 62.2575C46.1427 61.9199 45.7945 61.6265 45.4273 61.3693C44.7385 60.887 43.9774 60.5353 43.2316 60.1676C42.7997 59.9546 42.3697 59.7355 41.9587 59.4823C41.8084 59.3899 41.6619 59.6331 41.8141 59.7255C41.8236 59.7315 41.8351 59.7375 41.8446 59.7436C41.6105 60.672 41.2452 61.5984 40.6231 62.3138C40.4461 62.5167 40.2501 62.7056 40.0351 62.8644C39.9971 62.8925 39.9704 62.9327 39.9628 62.9769C39.9533 62.9829 39.9457 62.989 39.9381 62.997C39.9343 62.993 39.9286 62.989 39.9248 62.987C39.8639 62.9428 39.7745 62.9749 39.7383 63.0392C39.6984 63.1095 39.7269 63.1919 39.7878 63.2362C40.1227 63.4793 40.4499 63.7305 40.7715 63.9917C40.8856 64.1143 40.9979 64.2389 41.1063 64.3655C41.1139 64.3756 41.1235 64.3816 41.1311 64.3896C41.1292 64.4037 41.1273 64.4178 41.1235 64.4338C40.9046 65.0066 40.6459 65.5612 40.4042 66.1218C40.2501 66.4795 40.1017 66.8413 39.9723 67.211C39.8392 67.5928 39.7326 67.9847 39.6337 68.3765C39.5195 68.8307 39.4168 69.2889 39.3102 69.745C39.3083 69.7571 39.3064 69.7692 39.3064 69.7792C39.1751 70.2535 39.1028 70.7579 39.3216 71.204C39.5918 71.7546 40.2577 71.9575 40.7962 71.7606C41.3156 71.5697 41.6486 71.0573 41.7551 70.5026C41.7761 70.4866 41.7913 70.4645 41.8008 70.4323C42.149 69.2607 42.4401 68.0711 42.6779 66.8694C42.7027 66.9538 42.7236 67.0382 42.7426 67.1226C42.7407 67.1326 42.7388 67.1447 42.7369 67.1588C42.7141 68.0269 42.7845 68.891 42.891 69.7511C42.9462 70.1851 43.009 70.6172 43.0737 71.0492C43.1308 71.431 43.1555 71.8611 43.3762 72.1846C43.458 72.3052 43.557 72.4117 43.6654 72.5062C43.8595 72.8096 44.1221 73.0648 44.4493 73.1974C44.8812 73.3743 45.3607 73.2477 45.7279 72.9724C46.1617 72.6468 46.4129 72.1284 46.5822 71.6099C46.6031 71.5436 46.5803 71.4913 46.5403 71.4592C46.5422 71.4552 46.5422 71.4511 46.5441 71.4451C46.683 70.5489 46.5004 69.6446 46.3082 68.7744C46.0837 67.7677 45.8535 66.7609 45.6175 65.7581C45.5719 65.5612 45.5243 65.3622 45.4767 65.1653C45.7203 65.7159 45.9809 66.2565 46.2606 66.787C46.4794 67.205 46.7116 67.6149 46.9513 68.0188C47.0693 68.2178 47.191 68.4147 47.3147 68.6097C47.4308 68.7925 47.5506 68.9774 47.6971 69.1362C47.8113 69.2587 47.9483 69.3673 48.0967 69.4456C48.1024 69.4939 48.129 69.5381 48.1842 69.5602C48.3916 69.6405 48.6028 69.6245 48.7893 69.5361C48.8007 69.532 48.8121 69.53 48.8235 69.526C48.8521 69.516 48.8787 69.4979 48.8977 69.4758C48.9015 69.4738 48.9053 69.4717 48.9072 69.4677C48.9586 69.5039 49.0252 69.4939 49.0747 69.4537C49.4076 69.1844 49.5256 68.7242 49.5199 68.2982C49.5142 67.7797 49.3448 67.2753 49.147 66.8051Z" fill="#E6D052"/>
<path d="M41.7459 41.6275C41.6432 41.2658 41.4852 40.9161 41.2893 40.5986C41.1123 40.3113 40.8992 40.0098 40.6062 39.8451C40.3018 39.6722 39.8794 39.6622 39.632 39.9536C39.5388 40.0641 39.4836 40.1867 39.4532 40.3173C39.4361 40.3334 39.4208 40.3495 39.4056 40.3696C39.2953 40.5102 39.2648 40.6951 39.2743 40.8739C39.2953 41.2497 39.4285 41.6074 39.5902 41.939C39.8718 42.5198 40.2828 43.2412 40.9886 43.2251C41.3102 43.2191 41.588 43.0181 41.725 42.7107C41.8772 42.365 41.8486 41.9812 41.7459 41.6275Z" fill="#840820"/>
<path d="M43.4029 42.1359C43.3001 41.7742 43.1422 41.4246 42.9462 41.1071C42.7693 40.8197 42.5562 40.5183 42.2632 40.3535C41.9588 40.1807 41.5364 40.1706 41.289 40.462C41.1958 40.5725 41.1406 40.6951 41.1102 40.8257C41.0931 40.8418 41.0778 40.8579 41.0626 40.878C40.9523 41.0186 40.9218 41.2035 40.9313 41.3824C40.9523 41.7582 41.0854 42.1159 41.2472 42.4474C41.5288 43.0282 41.9397 43.7496 42.6456 43.7335C42.9672 43.7275 43.245 43.5265 43.382 43.2191C43.5342 42.8755 43.5037 42.4916 43.4029 42.1359Z" fill="#840820"/>
<path d="M49.305 40.0039C49.2022 39.6422 49.0443 39.2925 48.8483 38.975C48.6714 38.6876 48.4583 38.3862 48.1653 38.2214C47.8609 38.0486 47.4385 38.0385 47.1911 38.3299C47.0979 38.4404 47.0427 38.563 47.0123 38.6936C46.9952 38.7097 46.9799 38.7258 46.9647 38.7459C46.8544 38.8866 46.8239 39.0714 46.8334 39.2503C46.8544 39.6261 46.9875 39.9838 47.1493 40.3153C47.4309 40.8961 47.8418 41.6175 48.5477 41.6015C48.8693 41.5954 49.1471 41.3945 49.284 41.087C49.4363 40.7434 49.4058 40.3596 49.305 40.0039Z" fill="#840820"/>
<path d="M31.3554 60.9213C31.0414 60.7384 30.697 60.6037 30.3489 60.5213C30.0311 60.4469 29.681 60.3886 29.3614 60.4851C29.0284 60.5856 28.7202 60.8911 28.7354 61.2811C28.7411 61.4279 28.783 61.5585 28.8477 61.6731C28.8458 61.6972 28.8458 61.7213 28.8477 61.7455C28.861 61.9284 28.9618 62.0832 29.0855 62.2038C29.35 62.4571 29.681 62.6159 30.0159 62.7345C30.6019 62.9415 31.3725 63.1566 31.8672 62.6259C32.0936 62.3847 32.1602 62.0349 32.0555 61.7153C31.9376 61.3535 31.6617 61.1002 31.3554 60.9213Z" fill="#840820"/>
<path d="M33.5035 60.222C33.1838 60.0451 32.8318 59.9205 32.4703 59.8481C32.143 59.7838 31.7796 59.7375 31.4448 59.8521C31.0947 59.9707 30.7617 60.3004 30.7617 60.7064C30.7617 60.8592 30.8017 60.9919 30.8645 61.1105C30.8626 61.1346 30.8607 61.1607 30.8607 61.1849C30.8683 61.3738 30.9653 61.5306 31.0909 61.6512C31.3553 61.9045 31.6959 62.0533 32.0384 62.1618C32.6396 62.3528 33.435 62.5437 33.9715 61.9708C34.215 61.7095 34.2988 61.3437 34.2017 61.016C34.0933 60.6481 33.8174 60.3969 33.5035 60.222Z" fill="#840820"/>
<path d="M26.4045 42.982C26.6252 42.6805 26.8041 42.3349 26.9315 41.9712C27.0476 41.6416 27.1541 41.2718 27.1066 40.9041C27.0571 40.5183 26.8079 40.1164 26.4292 40.046C26.2865 40.0199 26.1552 40.038 26.0354 40.0822C26.0125 40.0742 25.9897 40.0701 25.9669 40.0661C25.7899 40.04 25.6263 40.1164 25.4931 40.2249C25.2115 40.456 25.0137 40.7835 24.8519 41.1231C24.5684 41.716 24.2526 42.5077 24.694 43.1668C24.8957 43.4663 25.221 43.617 25.5426 43.5728C25.906 43.5205 26.1876 43.2774 26.4045 42.982Z" fill="#840820"/>
<path d="M27.1828 38.77C27.4035 38.4686 27.5824 38.1229 27.7099 37.7592C27.8259 37.4296 27.9325 37.0599 27.8849 36.6921C27.8354 36.3063 27.5862 35.9044 27.2076 35.8341C27.0649 35.8079 26.9336 35.826 26.8137 35.8702C26.7909 35.8622 26.768 35.8582 26.7452 35.8541C26.5683 35.828 26.4046 35.9044 26.2714 36.0129C25.9899 36.244 25.792 36.5716 25.6302 36.9112C25.3468 37.504 25.0309 38.2957 25.4723 38.9549C25.674 39.2543 25.9994 39.405 26.3209 39.3608C26.6824 39.3106 26.9659 39.0674 27.1828 38.77Z" fill="#840820"/>
<path d="M52.2541 36.6982C52.3759 37.0579 52.5547 37.4015 52.7755 37.713C52.9752 37.9943 53.2131 38.2877 53.5327 38.4445C53.8676 38.6072 54.3223 38.6032 54.583 38.3038C54.68 38.1913 54.7371 38.0667 54.7656 37.9341C54.7828 37.918 54.7999 37.8999 54.8151 37.8818C54.9312 37.7371 54.9597 37.5522 54.9445 37.3734C54.9121 36.9976 54.758 36.6459 54.5754 36.3184C54.2557 35.7477 53.7934 35.0383 53.0304 35.0765C52.6841 35.0946 52.3873 35.3036 52.2484 35.613C52.0924 35.9627 52.1362 36.3465 52.2541 36.6982Z" fill="#840820"/>
<path d="M55.4791 54.5027C55.4582 53.932 55.4182 53.3613 55.3574 52.7946C55.3193 52.4409 55.2736 52.0872 55.2185 51.7335C55.1975 51.4482 55.1481 51.1668 55.0758 50.8915C55.0739 50.8835 55.0739 50.8755 55.072 50.8694C55.0701 50.8594 55.0663 50.8493 55.0625 50.8413C54.9407 50.3952 54.7599 49.9631 54.5468 49.5572C54.1454 48.7936 53.6259 48.1103 53.1236 47.4211C52.8344 47.0212 52.549 46.6172 52.2941 46.1912C52.2008 46.0345 51.9649 46.1792 52.0601 46.3359C52.0658 46.346 52.0734 46.356 52.0791 46.3661C51.4664 47.0754 50.7358 47.7185 49.8739 48.05C49.6284 48.1445 49.3716 48.2168 49.1128 48.253C49.0672 48.259 49.0253 48.2811 49.0006 48.3173C48.9796 48.3193 48.9587 48.3233 48.9416 48.3354C48.8731 48.3776 48.8636 48.46 48.8921 48.5323C49.1052 49.0408 49.2765 49.5673 49.4077 50.1058C49.4115 50.1179 49.4154 50.1279 49.4192 50.138C49.3564 50.2344 49.286 50.3248 49.2137 50.4133C49.2118 50.4153 49.208 50.4173 49.2061 50.4193C48.0569 51.4562 46.9343 52.5253 45.8384 53.6265C45.3931 54.0726 44.8356 54.6011 44.8337 55.3045C44.8318 55.9254 45.3341 56.4298 45.8973 56.5182C46.4415 56.6026 46.9609 56.3092 47.2977 55.8692C47.3224 55.8651 47.3472 55.8531 47.37 55.829C48.19 54.9588 48.9701 54.0465 49.7046 53.096C49.598 53.7049 49.3811 54.2836 49.1452 54.8523C49.1052 54.8684 49.0748 54.9046 49.0596 54.9488C48.9815 55.1718 48.9035 55.3929 48.8236 55.616C48.7076 55.8953 48.5953 56.1766 48.4983 56.46C48.4203 56.6891 48.3499 56.9201 48.2947 57.1573C48.2015 57.4768 48.1292 57.8023 48.1082 58.1359C48.0759 58.6423 48.1862 59.1849 48.5116 59.5727C48.8179 59.9405 49.2974 60.0611 49.7445 59.9968C50.2696 59.9204 50.7206 59.5808 51.0992 59.205C51.1468 59.1568 51.1506 59.1005 51.1277 59.0523C51.1296 59.0482 51.1335 59.0462 51.1354 59.0422C51.651 58.3168 51.8831 57.4245 52.0924 56.5584C52.334 55.5557 52.5681 54.5509 52.7983 53.5461C52.8439 53.3492 52.8877 53.1503 52.9334 52.9513C52.9086 53.5582 52.9048 54.1651 52.9201 54.772C52.9334 55.2482 52.9581 55.7265 52.9943 56.2007C53.0133 56.4338 53.0342 56.669 53.059 56.9021C53.0818 57.1211 53.1084 57.3442 53.1693 57.5552C53.2169 57.7199 53.2911 57.8827 53.3881 58.0254C53.3729 58.0716 53.3767 58.1239 53.4166 58.1701C53.5651 58.3429 53.761 58.4313 53.9627 58.4434C53.9741 58.4454 53.9855 58.4494 53.997 58.4514C54.0274 58.4574 54.0578 58.4534 54.0845 58.4434C54.0883 58.4434 54.0921 58.4414 54.0959 58.4414C54.1263 58.4996 54.1891 58.5217 54.2519 58.5097C54.6648 58.4333 54.9711 58.0837 55.1519 57.7019C55.3707 57.2377 55.443 56.7071 55.4734 56.1927C55.5077 55.634 55.4982 55.0653 55.4791 54.5027Z" fill="#E6D052"/>
<path d="M50.7604 43.431C50.8536 42.6108 50.7851 41.7786 50.5511 40.9906C50.4978 40.8137 50.239 40.8982 50.2904 41.0751C50.5092 41.8148 50.5815 42.6008 50.494 43.3687C50.4845 43.4451 50.5206 43.5215 50.5986 43.5395C50.6652 43.5576 50.7508 43.5094 50.7604 43.431Z" fill="#35322D"/>
<path d="M55.6618 56.3636C55.6637 56.3435 55.6637 56.3214 55.6656 56.3013C55.6922 56.2551 55.6979 56.1968 55.6751 56.1526C55.7151 55.4754 55.7017 54.7961 55.6751 54.1189C55.6485 53.4377 55.6256 52.7524 55.5552 52.0752C55.4886 51.4281 55.3726 50.7771 55.1347 50.1742C54.8684 49.493 54.4384 48.9202 54.0236 48.3375L52.6727 46.4425C52.5623 46.2857 52.4501 46.131 52.3397 45.9743C52.3359 45.9702 52.3321 45.9642 52.3283 45.9602C52.4729 45.6266 52.5719 45.2729 52.6175 44.9072C52.7127 44.1516 52.5966 43.3619 52.2237 42.7027C52.1799 42.6244 52.1304 42.546 52.0791 42.4716C52.0486 42.4274 52.0011 42.4033 51.9535 42.4053C51.8774 41.6296 51.7138 40.864 51.4664 40.1285C51.0707 38.9469 50.4675 37.8477 49.6931 36.8992C49.2612 36.3707 48.7741 35.8924 48.2414 35.4764C48.1824 35.4302 48.1025 35.4222 48.0492 35.4825C48.0036 35.5347 47.996 35.6392 48.0549 35.6854C48.9872 36.4109 49.773 37.3312 50.3762 38.3742C50.9774 39.4131 51.396 40.5706 51.5958 41.7703C51.708 42.4415 51.748 43.1288 51.7176 43.81C51.7138 43.8884 51.7918 43.9507 51.8603 43.9466C51.9402 43.9426 51.9858 43.8743 51.9896 43.7959C52.0049 43.4764 52.003 43.1589 51.9858 42.8394C52.2865 43.3739 52.4082 43.9989 52.3721 44.6198C52.3302 45.3352 52.0715 46.0325 51.6415 46.5852C51.1848 47.174 50.5684 47.606 49.8967 47.8693C49.1775 48.1486 48.4012 48.231 47.6402 48.1426C46.8943 48.0561 46.1713 47.821 45.4921 47.4895C45.9734 47.5518 46.4586 47.5859 46.9438 47.5919C47.0617 47.594 47.1778 47.5919 47.2958 47.5919C47.4708 47.5899 47.4594 47.3026 47.2844 47.3046C46.3673 47.3186 45.4483 47.2363 44.5502 47.0353C43.6579 46.8364 42.7884 46.5229 41.9778 46.0767C41.2377 45.6688 40.5565 45.1524 39.9667 44.5274C39.415 43.9426 38.945 43.2734 38.5854 42.538C38.2334 41.8165 37.9918 41.0268 37.9023 40.2189C37.8909 40.1185 37.8814 40.016 37.8757 39.9135C37.8643 39.7286 37.5922 39.7407 37.6036 39.9256C37.6607 40.7796 37.8757 41.6095 38.2144 42.3852C38.553 43.1609 39.0154 43.8723 39.5634 44.4973C40.1342 45.1504 40.8039 45.703 41.5326 46.1451C42.3431 46.6374 43.2279 46.9931 44.1355 47.2282C44.3619 47.2865 44.5921 47.3387 44.8223 47.3829C44.8242 47.4251 44.8451 47.4673 44.8927 47.4955C45.65 47.9255 46.4738 48.2491 47.3262 48.3877C47.7505 48.456 48.1786 48.4782 48.6048 48.448C48.5801 48.4922 48.582 48.5485 48.6048 48.5987C48.8255 49.0911 49.0462 49.5854 49.2669 50.0777C49.2612 50.0818 49.2555 50.0838 49.2498 50.0878C48.4469 50.7409 47.6763 51.4382 46.9438 52.1777C46.5785 52.5455 46.2227 52.9253 45.8764 53.3151C45.7033 53.51 45.5339 53.707 45.3646 53.9059C45.1971 54.1049 45.0297 54.3098 44.8965 54.5389C44.6739 54.9247 44.594 55.3749 44.7386 55.8069C44.8623 56.1767 45.1191 56.5022 45.454 56.6751C45.8231 56.864 46.255 56.8398 46.6298 56.6851C47.0637 56.5063 47.4137 56.1767 47.7201 55.813C48.0663 55.401 48.3879 54.9649 48.719 54.5389C48.9149 54.2857 49.1128 54.0325 49.3088 53.7813L48.6353 55.3327C48.152 56.444 47.5507 57.7039 47.9826 58.9418C48.1615 59.4542 48.5078 59.9124 49.0025 60.1073C49.4895 60.3003 50.0204 60.2138 50.4789 59.9767C51.5806 59.408 51.9687 58.0857 52.2674 56.9182C52.2865 56.8901 52.296 56.8579 52.2922 56.8217C52.2979 56.7956 52.3055 56.7695 52.3112 56.7434C52.5053 55.9777 52.6765 55.2061 52.8287 54.4304C52.8496 54.4003 52.8592 54.3641 52.8496 54.3239C52.8649 54.2475 52.8801 54.1732 52.8934 54.0968C52.8477 55.0353 52.8439 55.9757 52.8934 56.9122C52.9219 57.4708 53.0171 58.1561 53.4642 58.5238C53.938 58.9137 54.5716 58.769 54.9939 58.3651C55.5153 57.8687 55.6104 57.0609 55.6618 56.3636ZM46.8772 56.235C46.569 56.444 46.1884 56.5806 45.8193 56.5062C45.4978 56.4419 45.2333 56.2068 45.0754 55.9074C44.9022 55.5799 44.8908 55.2001 45.0411 54.8604C45.1401 54.6374 45.2828 54.4445 45.4331 54.2596C45.4407 54.2636 45.4483 54.2676 45.4559 54.2696C46.2151 54.553 46.8068 55.3086 46.9324 56.1486C46.9343 56.1626 46.9381 56.1747 46.9419 56.1867C46.9229 56.2028 46.9 56.2189 46.8772 56.235ZM47.1797 55.9898C47.037 55.2905 46.6336 54.6756 46.0705 54.2777C45.9297 54.1792 45.7794 54.0988 45.6233 54.0325C45.7223 53.9139 45.8231 53.7974 45.9259 53.6828C46.1028 53.4819 46.2817 53.283 46.4624 53.086C46.4738 53.1041 46.489 53.1202 46.5119 53.1342C47.233 53.5462 47.7353 54.348 47.8095 55.2121C47.8114 55.2262 47.8133 55.2402 47.819 55.2523C47.6192 55.5075 47.4156 55.7688 47.1797 55.9898ZM48.0492 54.9549C47.9389 54.2978 47.6135 53.6849 47.136 53.2448C46.9875 53.1081 46.8239 52.9876 46.6489 52.8871C46.744 52.7866 46.841 52.6861 46.9362 52.5856C47.1379 52.3787 47.3433 52.1737 47.5507 51.9727C47.5621 51.9908 47.5774 52.0069 47.5983 52.019C48.2547 52.4048 48.7152 53.1322 48.797 53.922C48.7989 53.9421 48.8046 53.9582 48.8122 53.9742C48.5591 54.2998 48.3042 54.6273 48.0492 54.9549ZM49.9899 52.9092C50.0014 52.8931 50.009 52.873 50.0147 52.8549C50.1422 52.5615 50.2696 52.2701 50.3971 51.9768C50.4656 51.82 50.5322 51.6633 50.6007 51.5085C50.673 51.3417 50.4333 51.2071 50.3591 51.3739L49.7559 52.7605C49.5162 53.0679 49.2764 53.3754 49.0367 53.6849C48.8902 52.8911 48.4183 52.1837 47.7505 51.7818C48.19 51.3638 48.6429 50.9579 49.109 50.5701C49.2022 50.4917 49.2974 50.4133 49.3925 50.337C49.4229 50.3129 49.4439 50.2787 49.4515 50.2425C49.4667 50.2385 49.4838 50.2345 49.4953 50.2244C49.5637 50.1802 49.5695 50.0978 49.539 50.0255C49.305 49.501 49.0691 48.9745 48.835 48.45C48.8312 48.442 48.8274 48.436 48.8236 48.4299C49.1356 48.3938 49.4458 48.3274 49.7483 48.227C50.4808 47.9858 51.1677 47.5618 51.6909 46.965C51.885 46.7439 52.0524 46.4988 52.1932 46.2375C52.6023 46.8122 53.0114 47.385 53.4204 47.9597C53.6354 48.2631 53.8523 48.5646 54.0673 48.868C54.269 49.1534 54.4707 49.4407 54.64 49.7482C55.1119 50.6083 55.2584 51.5929 55.3288 52.5736C54.9026 52.4992 54.4669 52.4631 54.0426 52.5615C53.7458 52.6319 53.4661 52.7725 53.2416 52.9835C53.2549 52.8087 53.272 52.6339 53.2892 52.459C53.2968 52.3867 53.2663 52.3164 53.1997 52.2923C53.2073 52.238 53.215 52.1857 53.2226 52.1315C53.234 52.0551 53.194 51.9788 53.1179 51.9607C53.0494 51.9446 52.9676 51.9928 52.9562 52.0712C52.8649 52.7203 52.7583 53.3674 52.6365 54.0104C52.3569 53.6869 51.9896 53.4558 51.5806 53.3573C51.3332 53.297 51.0745 53.2709 50.8214 53.2488C50.6064 53.2307 50.3895 53.2227 50.1745 53.2608C50.0356 53.285 49.9062 53.3252 49.7826 53.3874C49.8511 53.2287 49.9214 53.0679 49.9899 52.9092ZM51.5425 58.3148C51.3503 58.7609 51.0916 59.185 50.7225 59.4844C50.361 59.7758 49.8986 59.9747 49.4382 59.9265C48.9568 59.8762 48.5744 59.5527 48.3479 59.1106C48.0017 58.4294 48.0702 57.6939 48.2794 56.9865C49.2022 57.0127 50.224 57.0448 50.9869 57.6738C51.1829 57.8366 51.3503 58.0275 51.4759 58.2566C51.495 58.2867 51.5178 58.3048 51.5425 58.3148ZM51.67 57.9913C51.6662 58.0013 51.6624 58.0114 51.6586 58.0214C51.122 57.1453 50.1022 56.8298 49.1642 56.7454C48.8997 56.7213 48.6352 56.7112 48.3708 56.7032C48.4811 56.3877 48.6105 56.0802 48.7361 55.7909C48.816 55.608 48.8959 55.4231 48.9758 55.2402C48.9853 55.2423 48.9968 55.2423 49.0063 55.2402C49.9519 55.1438 50.907 55.5336 51.5692 56.249C51.7385 56.4319 51.885 56.6349 52.0068 56.8559C51.9116 57.2397 51.8051 57.6215 51.67 57.9913ZM52.1989 56.0682C52.1666 56.2048 52.1342 56.3415 52.1019 56.4781C51.5806 55.6964 50.751 55.1498 49.8587 54.989C49.6094 54.9448 49.3564 54.9288 49.1052 54.9448C49.2688 54.5691 49.4325 54.1933 49.5942 53.8175C49.6322 53.8175 49.6703 53.8014 49.7007 53.7733C49.988 53.512 50.4028 53.504 50.7605 53.5301C51.2095 53.5643 51.6757 53.6206 52.0638 53.8758C52.2598 54.0044 52.4292 54.1772 52.5604 54.3741C52.452 54.9428 52.3321 55.5075 52.1989 56.0682ZM53.1446 54.8725C53.1541 54.4003 53.1731 53.93 53.2035 53.4578C53.2073 53.4518 53.2111 53.4477 53.215 53.4417C53.4204 53.1081 53.7781 52.9132 54.1396 52.8328C54.5354 52.7444 54.9483 52.7946 55.344 52.869C55.3535 53.0418 55.3631 53.2146 55.3707 53.3854C55.3821 53.6266 55.3935 53.8677 55.403 54.1109C55.3631 54.0928 55.3155 54.0848 55.2736 54.0787C55.0662 54.0566 54.857 54.0566 54.6515 54.0888C54.2386 54.1511 53.8409 54.3118 53.4965 54.563C53.371 54.6555 53.253 54.758 53.1446 54.8725ZM53.1446 56.2571C53.1369 55.9375 53.135 55.616 53.1388 55.2965C53.1503 55.2905 53.1617 55.2804 53.1712 55.2684C53.4262 54.9368 53.761 54.6796 54.1377 54.5248C54.3261 54.4485 54.5221 54.3922 54.7219 54.3681C54.8208 54.356 54.9216 54.35 55.0206 54.35C55.0739 54.35 55.1271 54.352 55.1804 54.356C55.1937 54.3581 55.2051 54.3581 55.2185 54.3601C55.2204 54.3641 55.2204 54.3661 55.2223 54.3701C55.2622 54.4525 55.3459 54.4646 55.4144 54.4344C55.4258 54.8022 55.4316 55.1699 55.4258 55.5377C55.4239 55.7125 55.4182 55.8873 55.4087 56.0642C54.7637 55.9998 54.1016 56.1707 53.5574 56.5464C53.4166 56.6429 53.2854 56.7554 53.1617 56.878C53.1541 56.671 53.1503 56.464 53.1446 56.2571ZM54.6134 58.3108C54.4098 58.4414 54.1625 58.5098 53.9246 58.4515C53.4147 58.3249 53.2492 57.708 53.1921 57.2297C53.1902 57.2176 53.1902 57.2056 53.1883 57.1915C53.2226 57.1935 53.2587 57.1815 53.2892 57.1473C53.8314 56.5665 54.6248 56.2671 55.3916 56.3495C55.3859 56.4359 55.3783 56.5223 55.3688 56.6087C55.3326 56.9624 55.2793 57.3241 55.1385 57.6517C55.0244 57.921 54.855 58.1561 54.6134 58.3108Z" fill="#35322D"/>
<path d="M43.4829 41.8949C43.3192 41.5091 43.0662 41.1775 42.8626 40.8158C42.7732 40.657 42.5373 40.8017 42.6286 40.9605C42.9273 41.487 43.3801 42.0034 43.3782 42.6525C43.3782 42.9037 43.304 43.1629 43.1157 43.3297C42.9159 43.5066 42.6248 43.5407 42.3812 43.4644C42.1053 43.3779 41.8846 43.1609 41.7324 42.9097C41.9417 42.5641 41.9741 42.1381 41.898 41.7362C41.7952 41.2076 41.4984 40.7535 41.2111 40.3194C41.1692 40.2551 41.0912 40.227 41.0246 40.2672C40.9657 40.3034 40.9333 40.3998 40.9752 40.4641C41.2054 40.8118 41.447 41.1654 41.5745 41.5714C41.6906 41.9391 41.7191 42.3732 41.5269 42.7188C41.3747 42.9901 41.0684 43.2051 40.7621 43.1489C40.5889 43.1187 40.4348 43.0142 40.3035 42.8936C40.1646 42.765 40.0372 42.6183 39.923 42.4656C39.6642 42.1139 39.4778 41.706 39.3712 41.276C39.3275 41.0971 39.0649 41.1735 39.1087 41.3523C39.2152 41.7804 39.3941 42.1883 39.6414 42.544C39.8811 42.8916 40.1932 43.2694 40.5946 43.4021C40.9333 43.5146 41.3005 43.388 41.5555 43.1368C41.7191 43.3779 41.9341 43.5789 42.1948 43.6934C42.4935 43.8241 42.8436 43.818 43.1328 43.6593C43.4087 43.5086 43.5837 43.2112 43.6332 42.8916C43.6827 42.55 43.618 42.2104 43.4829 41.8949Z" fill="#35322D"/>
<path d="M33.8911 54.75C33.5562 54.4907 33.1795 54.2957 32.7875 54.159C32.6201 54.1007 32.5497 54.3781 32.7152 54.4364C33.0235 54.545 33.3184 54.6937 33.5905 54.8807C33.815 55.0354 34.0718 55.2264 34.1365 55.5179C34.1936 55.7772 34.0718 56.0526 33.8911 56.2235C33.6837 56.4205 33.3907 56.4868 33.1205 56.4808C32.7495 56.4727 32.3937 56.32 32.0588 56.1632C31.9922 56.131 31.9123 56.1431 31.8724 56.2154C31.8381 56.2757 31.8533 56.3803 31.9218 56.4124C32.2776 56.5793 32.641 56.7341 33.033 56.7642C33.3698 56.7903 33.7294 56.716 34.0033 56.4989C34.2583 56.2958 34.4333 55.9662 34.4219 55.6244C34.4086 55.2405 34.167 54.9631 33.8911 54.75Z" fill="#35322D"/>
<path d="M34.2773 61.1302C34.2488 60.7403 34.0224 60.4308 33.7598 60.1716C33.4306 59.8481 33.0596 59.5687 32.662 59.3457C32.5079 59.2593 32.369 59.5065 32.525 59.5929C32.837 59.7697 33.1338 59.9767 33.404 60.2198C33.6418 60.4329 33.9063 60.68 33.9862 61.0116C34.049 61.2789 33.9729 61.5602 33.8302 61.7853C33.6723 62.0345 33.4268 62.1912 33.151 62.2535C32.8161 62.3299 32.4603 62.2615 32.154 62.1048C32.1559 62.0767 32.1578 62.0485 32.1597 62.0204C32.1692 61.6064 31.9903 61.2025 31.7259 60.9051C31.4005 60.5373 30.9629 60.3163 30.5329 60.1194C30.4663 60.0892 30.3864 60.0993 30.3464 60.1716C30.3122 60.2319 30.3274 60.3364 30.3959 60.3685C31.0238 60.6559 31.7829 61.0558 31.88 61.8596C31.9199 62.1832 31.8077 62.5067 31.5508 62.6976C31.2959 62.8865 30.9705 62.9508 30.6642 62.9126C30.2151 62.8564 29.808 62.6152 29.4179 62.3901C29.2638 62.3017 29.1268 62.5489 29.2809 62.6373C29.671 62.8624 30.0763 63.0975 30.5215 63.1779C30.8906 63.2442 31.2825 63.202 31.6098 62.999C31.8381 62.8584 32.0075 62.6454 32.095 62.3922C32.7133 62.6735 33.5048 62.6494 33.9653 62.0726C34.1708 61.8154 34.3021 61.4738 34.2773 61.1302Z" fill="#35322D"/>
<path d="M35.7766 36.9718C35.6701 36.5356 35.3504 36.1878 34.9433 36.0592C34.5399 35.9325 34.0985 36.019 33.7294 36.212C33.2937 36.4391 32.9436 36.815 32.6068 37.1769C32.4831 37.3095 32.6772 37.5126 32.799 37.3799C33.2994 36.8411 33.9196 36.1838 34.7035 36.2964C35.0422 36.3446 35.3409 36.5718 35.4703 36.9095C35.5997 37.2452 35.5635 37.6372 35.4018 37.9528C35.2192 38.3146 34.9033 38.5739 34.5532 38.7368C34.4866 38.7689 34.4695 38.8714 34.5038 38.9338C34.5437 39.0061 34.6217 39.0162 34.6902 38.986C35.0498 38.8172 35.3733 38.5478 35.5845 38.194C35.8014 37.8342 35.8775 37.3839 35.7766 36.9718Z" fill="#35322D"/>
<path d="M49.3354 66.8111C49.3278 66.791 49.3183 66.773 49.3107 66.7529C49.3145 66.6986 49.2917 66.6443 49.2536 66.6162C48.9891 65.9973 48.679 65.4024 48.3556 64.8157C48.0321 64.2249 47.7106 63.632 47.349 63.0654C47.0047 62.5248 46.6146 62.0083 46.139 61.5883C45.6043 61.1161 44.9707 60.8207 44.3447 60.5092L42.3146 59.4964C42.1472 59.414 41.9797 59.3296 41.8123 59.2472C41.8066 59.2452 41.8009 59.2432 41.7952 59.2412C41.7762 58.8755 41.7077 58.5138 41.5859 58.1661C41.3366 57.4507 40.8857 56.8097 40.2654 56.4098C40.1912 56.3615 40.1151 56.3173 40.0352 56.2771C39.9896 56.253 39.9363 56.255 39.8944 56.2812C39.4854 55.6321 39.0021 55.0352 38.4598 54.5067C37.5884 53.6567 36.5705 52.9795 35.4669 52.5213C34.8505 52.2661 34.2093 52.0812 33.5548 51.9767C33.4825 51.9647 33.4083 51.9968 33.3873 52.0772C33.3702 52.1455 33.4102 52.242 33.4825 52.254C34.6279 52.4369 35.7295 52.8649 36.7227 53.4919C37.7121 54.1169 38.593 54.9348 39.2989 55.8993C39.6946 56.4399 40.0333 57.0267 40.3054 57.6436C40.3358 57.714 40.4329 57.732 40.4919 57.6959C40.5604 57.6537 40.5718 57.5693 40.5413 57.4989C40.4139 57.2096 40.2712 56.9282 40.1151 56.6549C40.6155 56.9805 40.9999 57.4728 41.2415 58.0415C41.5212 58.6946 41.5973 59.4381 41.4622 60.1395C41.3176 60.885 40.9637 61.5703 40.4842 62.1329C39.9705 62.7338 39.3217 63.1899 38.6082 63.4853C37.91 63.7747 37.166 63.9234 36.4183 63.9656C36.873 63.7848 37.3163 63.5758 37.7482 63.3407C37.8529 63.2844 37.9556 63.2261 38.0603 63.1658C38.2144 63.0774 38.0774 62.8282 37.9233 62.9187C37.1184 63.3829 36.268 63.7607 35.3851 64.0259C34.508 64.2892 33.6004 64.4399 32.6871 64.4419C31.8519 64.4459 31.0223 64.3233 30.2232 64.0601C29.4774 63.8149 28.7658 63.4532 28.1246 62.9789C27.4948 62.5127 26.9316 61.934 26.4978 61.2628C26.4426 61.1784 26.3912 61.092 26.3399 61.0056C26.2485 60.8488 26.0126 60.9935 26.1058 61.1503C26.532 61.8777 27.0895 62.5067 27.7307 63.0272C28.0599 63.2944 28.41 63.5276 28.7772 63.7325C27.8258 63.9033 26.8574 63.9234 25.9023 63.8049C25.8775 63.7928 25.849 63.7908 25.8204 63.7948C24.3973 63.6059 23.0083 63.1096 21.7697 62.3439C21.7449 62.2937 21.6955 62.2676 21.646 62.2656C21.608 62.2414 21.568 62.2173 21.5299 62.1912C19.2772 60.7102 17.7018 58.3208 17.0758 55.606C16.7657 54.2576 16.6877 52.8408 16.8722 51.4643C17.0815 49.8989 17.6618 48.4399 18.3487 47.0473C19.0755 45.5743 19.848 44.1094 20.6833 42.7027C21.5052 41.3181 22.4756 40.0481 23.4022 38.7419C25.1127 36.3345 26.7604 33.4488 26.2961 30.3059C26.2428 29.9401 26.1553 29.5824 26.0392 29.2328C26.0316 29.2087 26.0183 29.1926 26.005 29.1765C25.8357 29.1866 25.8071 29.2368 25.8052 29.4538C25.809 29.4478 25.8128 29.4398 25.8185 29.4337C26.2657 30.8866 26.1382 32.446 25.6987 33.8889C25.2306 35.4282 24.4125 36.8007 23.5163 38.0989C22.6849 39.3026 21.7868 40.454 20.9896 41.6839C20.6129 41.079 20.1562 40.5284 19.6387 40.0562C19.0964 39.5618 18.4914 39.1458 17.8407 38.8303C17.4697 38.6515 17.0853 38.5008 16.6915 38.3882C16.5221 38.34 16.4498 38.6173 16.6192 38.6656C17.9586 39.0514 19.1764 39.8532 20.1048 40.9403C20.3636 41.2418 20.5957 41.5653 20.805 41.9089C20.8126 41.921 20.8203 41.929 20.8279 41.9371C20.8069 41.9692 20.7879 42.0014 20.767 42.0335C19.8803 43.4543 19.1021 44.9574 18.3373 46.4545C17.62 47.8632 16.9655 49.3322 16.682 50.9137C16.661 51.0282 16.6439 51.1428 16.6268 51.2593C15.5974 50.4334 14.5434 49.6376 13.4094 48.9765C12.2354 48.2912 10.9721 47.7487 9.64782 47.4955C8.90008 47.3528 8.13711 47.2985 7.37795 47.3628C7.30565 47.3689 7.24286 47.4251 7.24286 47.5055C7.24286 47.5779 7.30565 47.6562 7.37795 47.6482C8.70791 47.5336 10.0379 47.7868 11.2879 48.2611C12.5285 48.7313 13.6815 49.4246 14.7736 50.1983C15.392 50.6364 15.9913 51.1046 16.583 51.5809C16.446 52.7444 16.4841 53.926 16.6896 55.0795C16.7562 55.4512 16.8399 55.817 16.9388 56.1787C15.6317 55.9697 14.3093 55.8672 12.987 55.8772C11.6323 55.8873 10.2776 56.0139 8.94194 56.253C8.18658 56.3877 7.43693 56.5605 6.6968 56.7675C6.68158 56.7715 6.66826 56.7795 6.65684 56.7876C6.62069 56.667 6.58644 56.5464 6.5541 56.4258C6.11268 54.766 6.02325 52.9775 6.44565 51.3015C6.49702 51.0945 6.5579 50.8896 6.6264 50.6886C6.68538 50.5138 6.42281 50.4394 6.36383 50.6123C5.80445 52.2902 5.78162 54.1289 6.13932 55.8571C6.48751 57.5371 7.1972 59.1166 8.08003 60.5534C8.90389 61.8918 9.87614 63.1397 10.9949 64.2168C12.087 65.2678 13.3238 66.154 14.688 66.7629C16.2577 67.4642 17.9491 67.7456 19.633 67.9465C19.8461 67.9726 20.0592 67.9968 20.2742 68.0209C20.3465 68.0289 20.4093 67.9485 20.4093 67.8782C20.4093 67.7938 20.3465 67.7436 20.2742 67.7355C19.5493 67.6551 18.8225 67.5687 18.1013 67.4461C18.754 67.1869 19.3229 66.7267 19.808 66.2002C20.1049 65.8767 20.375 65.525 20.6319 65.1653C20.9021 64.7855 21.1684 64.3997 21.3853 63.9817C21.5927 63.5798 21.7507 63.1417 21.7811 62.6856C22.976 63.3989 24.304 63.8732 25.6663 64.0701C25.3904 65.0367 25.0708 66.0515 24.4125 66.8031C24.2203 67.0221 24.0034 67.209 23.7599 67.3577C23.6076 67.4502 23.7446 67.6993 23.8969 67.6049C24.8463 67.0221 25.3524 65.945 25.7025 64.888C25.7881 64.6288 25.8661 64.3675 25.9403 64.1043C26.6823 64.1907 27.432 64.1967 28.174 64.1123C28.4937 64.0762 28.8114 64.0259 29.1273 63.9576C29.1444 63.9536 29.1596 63.9475 29.1729 63.9395C29.3974 64.048 29.6258 64.1485 29.8579 64.2349C30.6513 64.5323 31.4866 64.6911 32.3275 64.7232C33.2617 64.7594 34.2017 64.6408 35.1092 64.4017C35.3356 64.3414 35.5621 64.2751 35.7847 64.2007C35.8056 64.2369 35.8418 64.2651 35.895 64.2651C36.755 64.2731 37.6265 64.1545 38.4427 63.8571C38.848 63.7104 39.238 63.5175 39.6014 63.2804C39.5995 63.3326 39.6262 63.3809 39.668 63.413C40.0809 63.7406 40.4938 64.0681 40.9047 64.3977C40.9009 64.4037 40.8971 64.4097 40.8933 64.4158C40.4709 65.3884 40.0961 66.3851 39.7727 67.3999C39.6128 67.9063 39.4644 68.4168 39.3293 68.9312C39.2627 69.1884 39.1981 69.4456 39.1372 69.7049C39.0763 69.9641 39.0192 70.2273 39.0021 70.4946C38.9754 70.9468 39.1029 71.3828 39.4207 71.6963C39.6927 71.9636 40.0638 72.1244 40.4367 72.1123C40.8458 72.0982 41.2187 71.8651 41.4831 71.5416C41.7876 71.1698 41.9531 70.7056 42.0635 70.2334C42.189 69.6988 42.2804 69.1543 42.385 68.6157C42.4478 68.2962 42.5106 67.9747 42.5715 67.6551L42.659 69.3592C42.7218 70.579 42.7446 71.9917 43.6731 72.8759C44.0574 73.2417 44.5655 73.4768 45.0906 73.4044C45.6062 73.3341 46.0381 72.9985 46.3406 72.5624C47.0636 71.5175 46.8258 70.157 46.5747 68.9754C46.5785 68.9412 46.5728 68.9071 46.5537 68.8789C46.548 68.8528 46.5423 68.8267 46.5366 68.8006C46.3711 68.0269 46.1808 67.2613 45.9734 66.4997C45.9791 66.4635 45.9715 66.4253 45.9449 66.3952C45.924 66.3208 45.9049 66.2465 45.884 66.1721C46.2588 67.0241 46.6698 67.8581 47.1245 68.6639C47.3966 69.1442 47.7829 69.7029 48.3403 69.8094C48.9321 69.9219 49.4287 69.4818 49.6246 68.9171C49.8701 68.2158 49.598 67.4542 49.3354 66.8111ZM8.64893 60.9252C7.85932 59.7275 7.18769 58.4334 6.74246 57.0508C6.75198 57.0508 6.76339 57.0488 6.77481 57.0448C8.06862 56.6811 9.39097 56.4279 10.7228 56.2912C12.0585 56.1525 13.4056 56.1284 14.7451 56.2169C15.4966 56.2671 16.2482 56.3535 16.9921 56.4761C17.0035 56.4781 17.0168 56.4781 17.0282 56.4781C17.4335 57.8084 18.069 59.0503 18.9024 60.1254C18.7102 60.67 18.3125 61.1 17.8997 61.4678C17.4582 61.8637 16.9826 62.2173 16.4841 62.5288C15.4776 63.1578 14.3778 63.612 13.2343 63.8712C12.5969 64.0159 11.95 64.0983 11.2993 64.1163C10.2985 63.1739 9.4157 62.0907 8.64893 60.9252ZM20.4949 64.88C20.023 65.5572 19.496 66.2203 18.8396 66.7066C18.4743 66.9759 18.0747 67.1829 17.6409 67.2954C17.6067 67.3035 17.5819 67.3236 17.5667 67.3457C16.798 67.195 16.037 66.996 15.3006 66.7107C13.9459 66.1882 12.6978 65.3763 11.6 64.3937C12.7054 64.3294 13.7994 64.0882 14.8364 63.6803C15.9685 63.2342 17.0282 62.5971 17.9644 61.7893C18.4191 61.3954 18.8548 60.9453 19.1002 60.3766C19.5892 60.9714 20.1429 61.514 20.7518 61.9842C20.9991 62.1751 21.2541 62.354 21.5166 62.5208C21.5147 63.409 20.9763 64.1907 20.4949 64.88ZM41.506 71.0191C41.3252 71.3567 41.0493 71.6642 40.6897 71.7807C40.3777 71.8812 40.039 71.8048 39.7688 71.618C39.4701 71.413 39.2932 71.0834 39.2761 70.7076C39.2646 70.4625 39.3065 70.2213 39.3579 69.9822C39.3655 69.9822 39.375 69.9822 39.3826 69.9802C40.1798 69.8576 41.036 70.2354 41.5174 70.9166C41.525 70.9267 41.5326 70.9367 41.5421 70.9448C41.5326 70.9689 41.5193 70.995 41.506 71.0191ZM41.6658 70.6534C41.232 70.1048 40.6041 69.7591 39.9287 69.6848C39.7612 69.6667 39.5938 69.6687 39.4264 69.6888C39.4625 69.5361 39.5006 69.3833 39.5386 69.2306C39.6052 68.9654 39.6775 68.7021 39.7517 68.4389C39.7689 68.4489 39.7917 68.4569 39.8164 68.4569C40.6384 68.467 41.4356 68.9292 41.8808 69.6586C41.8884 69.6707 41.896 69.6808 41.9055 69.6888C41.8408 70.0103 41.7762 70.3419 41.6658 70.6534ZM41.9778 69.309C41.5897 68.7825 41.0322 68.4007 40.4158 68.2459C40.2236 68.1977 40.0257 68.1716 39.8278 68.1676C39.8678 68.0309 39.9077 67.8943 39.9496 67.7596C40.0371 67.4763 40.1285 67.195 40.2217 66.9156C40.2388 66.9257 40.2597 66.9317 40.2845 66.9337C41.036 66.9518 41.7628 67.3698 42.1833 68.0269C42.1928 68.043 42.2062 68.055 42.2195 68.0651C42.1396 68.4791 42.0597 68.895 41.9778 69.309ZM42.7941 66.5459C42.796 66.5258 42.796 66.5057 42.7903 66.4856C42.7732 66.1641 42.7579 65.8425 42.7408 65.521C42.7313 65.3482 42.7237 65.1774 42.7142 65.0046C42.7047 64.8197 42.4326 64.8197 42.4421 65.0046L42.5201 66.5278C42.444 66.9176 42.3679 67.3075 42.2918 67.6993C41.8123 67.0704 41.0817 66.6745 40.3149 66.6464C40.5204 66.0596 40.743 65.4788 40.9827 64.9061C41.0322 64.7895 41.0817 64.675 41.1312 64.5605C41.1464 64.5243 41.1521 64.4841 41.1426 64.4479C41.1559 64.4379 41.1673 64.4238 41.1749 64.4097C41.2149 64.3354 41.1844 64.259 41.1254 64.2128C40.6859 63.8631 40.2464 63.5135 39.8069 63.1638C39.8012 63.1598 39.7936 63.1558 39.7879 63.1518C40.0485 62.9649 40.2921 62.7559 40.5166 62.5188C41.0589 61.946 41.4793 61.2327 41.6791 60.4469C41.7533 60.1555 41.7952 59.8561 41.8028 59.5567C42.4174 59.8642 43.0319 60.1696 43.6465 60.4771C43.9699 60.6378 44.2953 60.8006 44.6187 60.9614C44.9232 61.1141 45.2276 61.2688 45.513 61.4597C46.3083 61.9882 46.8734 62.788 47.3681 63.622C46.959 63.7647 46.5556 63.9475 46.2246 64.245C45.9925 64.4519 45.8079 64.7152 45.7013 65.0126C45.6367 64.8498 45.5739 64.6871 45.5111 64.5243C45.4863 64.458 45.4293 64.4097 45.3589 64.4218C45.3417 64.3695 45.3265 64.3193 45.3094 64.2671C45.2847 64.1947 45.2162 64.1445 45.142 64.1666C45.0754 64.1867 45.0221 64.2691 45.0468 64.3434C45.2523 64.9624 45.4426 65.5873 45.6195 66.2163C45.2295 66.0676 44.8014 66.0435 44.398 66.158C44.1526 66.2284 43.9128 66.3309 43.6788 66.4353C43.4809 66.5238 43.285 66.6263 43.1118 66.7629C42.9996 66.8513 42.9025 66.9518 42.8207 67.0663C42.8112 66.8955 42.8017 66.7207 42.7941 66.5459ZM46.5518 70.565C46.5785 71.0553 46.5366 71.5577 46.3425 72.0038C46.1523 72.4399 45.8307 72.8418 45.4007 73.0266C44.9517 73.2196 44.4703 73.1211 44.0765 72.8398C43.4695 72.4077 43.207 71.7224 43.0795 70.995C43.909 70.5629 44.8261 70.0907 45.7775 70.2716C46.0229 70.3178 46.255 70.4062 46.4681 70.5449C46.4967 70.5629 46.5252 70.569 46.5518 70.565ZM46.5214 70.2153C46.5233 70.2253 46.5233 70.2354 46.5252 70.2474C45.6633 69.737 44.6225 69.9581 43.7549 70.3439C43.5114 70.4524 43.2716 70.575 43.0338 70.6976C42.992 70.364 42.971 70.0284 42.9558 69.7109C42.9463 69.5099 42.9349 69.307 42.9254 69.106C42.9349 69.102 42.9444 69.098 42.9539 69.09C43.7473 68.5393 44.7671 68.4147 45.6671 68.7222C45.8973 68.8006 46.1161 68.9091 46.3216 69.0437C46.4034 69.4316 46.4776 69.8214 46.5214 70.2153ZM46.1409 68.254C46.1732 68.3906 46.2036 68.5273 46.236 68.6639C45.4312 68.2279 44.4551 68.1535 43.5951 68.4489C43.3554 68.5313 43.1251 68.6418 42.9082 68.7805C42.8873 68.3685 42.8664 67.9546 42.8454 67.5426C42.8797 67.5245 42.9063 67.4924 42.9216 67.4522C43.0605 67.0784 43.4239 66.8674 43.753 66.7147C44.164 66.5238 44.6016 66.3449 45.0602 66.3791C45.2904 66.3972 45.5149 66.4655 45.7204 66.576C45.8707 67.1327 46.0115 67.6933 46.1409 68.254ZM46.451 66.7308C46.2512 66.3088 46.0609 65.8827 45.8802 65.4507C45.8821 65.4446 45.8821 65.4366 45.884 65.4306C45.9182 65.0347 46.1504 64.687 46.4339 64.4379C46.7459 64.1646 47.134 64.0058 47.5146 63.8772C47.6002 64.0259 47.6839 64.1746 47.7657 64.3213C47.8818 64.5303 47.9979 64.7373 48.1139 64.9463C48.0702 64.9503 48.0245 64.9664 47.9864 64.9825C47.7924 65.0648 47.6078 65.1673 47.4404 65.298C47.1036 65.5552 46.8201 65.8928 46.6279 66.2846C46.5556 66.4273 46.4967 66.576 46.451 66.7308ZM47.0617 67.9566C46.9133 67.6772 46.7725 67.3939 46.6317 67.1085C46.6394 67.0965 46.6451 67.0844 46.6489 67.0684C46.7288 66.6504 46.9114 66.2585 47.1759 65.935C47.3072 65.7742 47.4575 65.6295 47.6249 65.509C47.7067 65.4487 47.7924 65.3944 47.8818 65.3462C47.9294 65.3201 47.9769 65.2959 48.0264 65.2738C48.0378 65.2678 48.0492 65.2638 48.0625 65.2578C48.0644 65.2598 48.0683 65.2618 48.0702 65.2638C48.1425 65.316 48.2205 65.2859 48.268 65.2256C48.4412 65.5451 48.6086 65.8666 48.7646 66.1962C48.8388 66.353 48.913 66.5097 48.9815 66.6705C48.3822 66.9317 47.8723 67.408 47.5564 68.0068C47.4746 68.1615 47.408 68.3263 47.3529 68.4931C47.252 68.3183 47.1569 68.1354 47.0617 67.9566ZM49.2669 69.0518C49.1433 69.2668 48.9549 69.4497 48.7209 69.514C48.2148 69.6526 47.7943 69.1884 47.5336 68.7925C47.526 68.7825 47.5203 68.7704 47.5146 68.7604C47.545 68.7463 47.5717 68.7162 47.585 68.672C47.8076 67.8903 48.3784 67.2351 49.0938 66.9317C49.1261 67.0121 49.1585 67.0905 49.187 67.1708C49.3107 67.5004 49.423 67.8481 49.4439 68.2058C49.4591 68.5052 49.4134 68.7946 49.2669 69.0518Z" fill="#35322D"/>
<path d="M39.295 57.7789C39.0172 57.007 38.5892 56.3054 38.0336 55.7224C37.9099 55.5918 37.7177 55.7948 37.8414 55.9255C38.3608 56.4722 38.7718 57.1316 39.0325 57.8553C39.0591 57.9276 39.1238 57.9779 39.1999 57.9558C39.2665 57.9377 39.3217 57.8532 39.295 57.7789Z" fill="#35322D"/>
<path d="M30.6665 36.3345C30.638 37.1262 30.324 37.8617 29.9911 38.557C29.6581 39.2523 29.3004 39.9356 28.9199 40.6027C28.1588 41.931 27.3026 43.199 26.357 44.3887C25.4076 45.5844 24.3459 46.6936 23.5315 48.0038C22.7743 49.2256 22.2111 50.6986 22.3443 52.1837C22.4546 53.4195 23.0635 54.6614 24.1023 55.2965C24.2317 55.3748 24.3668 55.4431 24.5057 55.5014C24.5742 55.5316 24.6541 55.4693 24.6731 55.4009C24.696 55.3186 24.6465 55.2522 24.578 55.2241C23.4935 54.7639 22.8199 53.5904 22.643 52.4067C22.4299 50.978 22.9493 49.5251 23.6571 48.3314C24.4315 47.0252 25.4722 45.93 26.4122 44.7625C27.3559 43.5929 28.2159 42.347 28.9827 41.0408C29.3632 40.3937 29.7209 39.7306 30.0539 39.0534C30.3906 38.3701 30.735 37.6648 30.8739 36.9032C30.9082 36.7163 30.9291 36.5254 30.9367 36.3345C30.9443 36.1496 30.6722 36.1496 30.6665 36.3345Z" fill="#35322D"/>
<path d="M18.0766 46.7579C17.2508 45.8496 16.3128 45.0538 15.2987 44.3927C14.2846 43.7295 13.1906 43.201 12.0547 42.8212C11.4192 42.6082 10.7704 42.4454 10.112 42.3309C10.0397 42.3188 9.96554 42.351 9.94461 42.4314C9.92749 42.4997 9.96745 42.5961 10.0397 42.6082C11.1966 42.8092 12.3305 43.1648 13.4037 43.6632C14.4768 44.1636 15.4947 44.8006 16.4194 45.5622C16.9388 45.9903 17.4297 46.4585 17.8863 46.9609C18.0062 47.0955 18.1984 46.8925 18.0766 46.7579Z" fill="#35322D"/>
<path d="M23.1452 0.667261C23.052 0.371859 22.8313 0.0965519 22.5364 0.0201895C22.2548 -0.0521539 21.977 0.076456 21.7924 0.301524C21.606 0.526592 21.4937 0.809938 21.4062 1.08926C21.2882 1.47108 21.1722 1.8549 21.058 2.23872C20.8259 3.01641 20.6014 3.79611 20.4016 4.58385C20.3007 4.97973 20.2075 5.37762 20.1219 5.77751C20.0515 6.10507 20.002 6.45071 19.8707 6.76018C19.8441 6.82649 19.8118 6.88879 19.7756 6.94907C19.7337 6.72802 19.7452 6.49492 19.7794 6.27387C19.8327 5.94029 19.9259 5.61675 19.9906 5.28719C20.0553 4.96365 20.1086 4.61198 20.0439 4.28443C19.9906 4.01113 19.8137 3.6896 19.5359 3.62329C19.4027 3.59114 19.2581 3.61927 19.1477 3.70367C19.0279 3.79209 18.9556 3.92472 18.9023 4.06539C18.8509 4.20606 18.8281 4.35476 18.8072 4.50347C18.7767 4.71045 18.7463 4.91944 18.7158 5.12642C18.596 5.94832 18.4761 6.77223 18.3543 7.59414C18.2192 8.52053 18.0841 9.44693 17.9471 10.3733C17.9357 10.4497 17.9662 10.5281 18.0423 10.5502C18.0537 10.5723 18.0651 10.5964 18.0784 10.6165C18.1793 10.7712 18.341 10.8536 18.5065 10.9038C18.8776 11.0184 19.26 11.1008 19.6348 11.1992C19.8194 11.2475 20.0058 11.3078 20.1923 11.3379C20.373 11.368 20.55 11.348 20.6965 11.2214C20.9362 11.0144 20.9857 10.6285 21.058 10.3331C21.4576 8.71144 21.8571 7.09175 22.2586 5.47005C22.4584 4.66222 22.6619 3.8564 22.8503 3.04655C22.9435 2.64465 23.0311 2.24073 23.1091 1.8348C23.1871 1.45701 23.2651 1.04505 23.1452 0.667261Z" fill="#D5863F"/>
<path d="M8.36896 3.82823C8.53639 3.57302 8.82179 3.37207 9.12431 3.38613C9.41352 3.4002 9.64565 3.60316 9.76551 3.87445C9.88348 4.14574 9.91772 4.44918 9.92724 4.74458C9.94056 5.14649 9.95007 5.5484 9.95958 5.9503C9.97861 6.76618 9.98812 7.58004 9.9729 8.39591C9.96529 8.80586 9.95007 9.2158 9.92724 9.62374C9.90821 9.95933 9.86635 10.305 9.90821 10.6406C9.91773 10.7109 9.93104 10.7812 9.95007 10.8496C10.049 10.6486 10.0985 10.4215 10.1232 10.1985C10.1613 9.86287 10.1556 9.52527 10.1784 9.18968C10.2012 8.86011 10.2431 8.50643 10.3915 8.21103C10.5152 7.96386 10.7682 7.70865 11.0536 7.72674C11.1906 7.73477 11.32 7.8031 11.4056 7.91764C11.4969 8.03821 11.5331 8.18491 11.5464 8.33764C11.5597 8.48835 11.5407 8.63706 11.5236 8.78576C11.4988 8.99475 11.4722 9.20375 11.4475 9.41274C11.3466 10.2387 11.2458 11.0626 11.1449 11.8885C11.0308 12.8189 10.9166 13.7473 10.8044 14.6777C10.7949 14.7541 10.7454 14.8204 10.6674 14.8204C10.6502 14.8385 10.6331 14.8566 10.6141 14.8747C10.4771 14.9932 10.3002 15.0254 10.127 15.0254C9.74078 15.0274 9.35263 14.9932 8.96639 14.9771C8.77613 14.9691 8.58206 14.9731 8.39369 14.947C8.21104 14.9229 8.04741 14.8505 7.93896 14.6878C7.76391 14.4185 7.81719 14.0347 7.8248 13.7272C7.86666 12.0533 7.91042 10.3773 7.95228 8.70337C7.97321 7.86941 7.99033 7.03545 8.02267 6.20149C8.0398 5.78753 8.06073 5.37357 8.09307 4.96161C8.12161 4.57578 8.15396 4.15579 8.36896 3.82823Z" fill="#D5863F"/>
<path d="M6.90032 26.8957C6.90032 26.8957 3.96642 28.0391 3.26814 29.5141C2.56987 30.9891 2.91805 32.0964 3.2339 32.5746C3.54783 33.0549 4.56005 34.3089 4.83974 34.4194C5.11943 34.5299 7.94679 34.345 7.94679 34.345C7.94679 34.345 7.17811 35.7095 7.49205 36.3365C7.80599 36.9635 9.13405 38.1813 9.58688 38.4023C10.0416 38.6234 10.7894 38.9067 11.0786 38.9489C11.3678 38.9911 13.7423 38.6234 15.4185 37.922C17.0948 37.2207 17.9319 36.3365 18.0023 36.226C18.0727 36.1154 18.9366 34.1541 19.1363 34.2405C19.3361 34.329 21.8419 33.4227 23.3793 32.0582C24.9166 30.6937 25.984 29.074 26.4273 27.4684C26.8706 25.8628 28.5811 21.9904 22.2624 14.5029C22.2624 14.5029 22.2967 12.0693 21.6345 11.0726C20.9705 10.0759 19.6443 9.5976 18.8053 9.5976C17.9662 9.5976 15.5936 10.6667 14.6499 13.4338C14.6499 13.4338 12.7301 14.0246 11.4724 14.5411C11.4724 14.5411 11.3678 12.6963 10.5991 12.5858C9.83042 12.4753 8.36347 13.1384 7.4559 14.2095C6.54833 15.2786 6.61302 18.5762 6.61302 18.5762C6.61302 18.5762 4.737 22.2858 6.90032 26.8957Z" fill="#CE1717"/>
<path d="M11.6854 14.4024C11.6664 14.3321 11.5865 14.2758 11.518 14.3019C10.7265 14.6074 9.97304 15.0254 9.28618 15.5398C8.60122 16.0542 7.97905 16.6591 7.4444 17.3424C7.13997 17.7302 6.86409 18.1422 6.61865 18.5742C6.52922 18.733 6.76325 18.8776 6.85268 18.7189C7.27316 17.9794 7.78688 17.3022 8.37671 16.7053C8.96653 16.1085 9.62866 15.5941 10.3441 15.1781C10.7455 14.945 11.1622 14.744 11.5903 14.5792C11.6588 14.5531 11.7064 14.4828 11.6854 14.4024Z" fill="#35322D"/>
<path d="M14.5033 27.0547C13.6395 26.3974 12.5531 26.116 11.4971 26.1682C10.4716 26.2185 9.4118 26.5582 8.61459 27.2577C8.18839 27.6316 7.85162 28.1262 7.72605 28.7011C7.68609 28.882 7.94866 28.9584 7.98861 28.7774C8.19981 27.8045 9.04079 27.1512 9.88176 26.8115C10.8179 26.4336 11.8681 26.3371 12.8461 26.5783C13.3941 26.713 13.9116 26.9542 14.3682 27.302C14.4272 27.3482 14.5204 27.312 14.5547 27.2497C14.5908 27.1794 14.5623 27.0989 14.5033 27.0547Z" fill="#35322D"/>
<path d="M22.3195 13.9603C22.3157 13.7754 22.0436 13.7754 22.0474 13.9603C22.0588 14.5332 22.0702 15.1061 22.0817 15.681C22.0855 15.866 22.3575 15.866 22.3537 15.681C22.3423 15.1061 22.3309 14.5332 22.3195 13.9603Z" fill="#35322D"/>
<path d="M16.2938 21.7554L16.1035 19.5128L16.9597 17.676L18.3353 16.822L20.1124 16.6994L21.6783 18.088L22.4946 19.9167L22.7628 22.2337L22.3461 24.3377L21.0105 25.6378L19.0774 25.7061L17.4868 24.5065L16.5373 22.9812L16.2938 21.7554Z" fill="#ECEBD7"/>
<path d="M17.8309 21.7311L17.6958 20.1376L18.3047 18.8334L19.2807 18.2265L20.5441 18.1381L21.6552 19.1247L22.2355 20.4249L22.4258 22.0707L22.1309 23.5658L21.1815 24.4882L19.8078 24.5364L18.6776 23.6844L18.004 22.6012L17.8309 21.7311Z" fill="#35322D"/>
<path d="M16.1929 21.2649L16.3052 19.601L16.9293 18.2868L17.8368 17.497L18.986 17.0328L20.0896 17.0791L20.942 17.6457L21.5794 18.4697L22.0798 19.1971L22.6354 20.7947L22.3899 19.1288L21.4842 17.3986L19.9773 16.223L18.6398 16.1848L17.3802 16.5485L16.701 17.288L16.1016 18.1361L15.9932 19.6714L16.1929 21.2649Z" fill="#35322D"/>
<path d="M17.3915 20.4515L19.1952 20.3028L17.7891 18.8936L17.323 20.2565L17.3915 20.4515Z" fill="#ECEBD7"/>
<path d="M7.16856 26.7531C7.86494 26.5039 8.55751 26.2246 9.28052 26.088L9.32047 25.0189L9.03698 23.146L8.52136 21.6208L7.67467 20.3929L6.82608 20.3588L6.22104 20.9415L5.92993 22.3482L6.17157 24.1568L6.37135 25.1555L6.93073 26.4457L7.16856 26.7531Z" fill="#ECEBD7"/>
<path d="M7.05032 24.9584L7.44797 25.8748L7.92174 26.4776C8.29085 26.345 8.66377 26.2224 9.04431 26.136L9.10329 26.0355L9.14705 24.862L8.94537 23.5316L8.58006 22.4485L7.97882 21.5764L7.37567 21.5522L6.94567 21.9662L6.73828 22.965L6.90952 24.249L7.05032 24.9584Z" fill="#35322D"/>
<path d="M6.08782 23.7547L6.03264 22.4345L6.24574 21.4277L6.63008 20.863L7.15331 20.5757L7.68986 20.6962L8.13699 21.2127L8.50039 21.918L8.7896 22.539L9.16252 23.8572L8.9342 22.5068L8.38243 21.0559L7.57761 20.0029L6.9307 19.8723L6.34849 20.0713L6.06879 20.6118L5.83667 21.2448L5.88614 22.4666L6.08782 23.7547Z" fill="#35322D"/>
<path d="M6.6128 23.1945L7.4709 23.2086L6.70032 21.9763L6.56714 23.0337L6.6128 23.1945Z" fill="#ECEBD7"/>
<path d="M31.5339 13.4821C31.4559 13.46 31.395 13.5103 31.3665 13.5826L31.2923 13.7715C31.2789 13.7815 31.2656 13.7976 31.2542 13.8157C30.5502 15.0918 29.8443 16.3678 29.1404 17.6439C28.9653 17.9594 28.7922 18.2749 28.6171 18.5904C28.482 18.8315 28.345 19.0747 28.1719 19.2897C27.995 19.5067 27.7857 19.6916 27.5288 19.7921C27.2396 19.9046 26.9295 19.9388 26.6288 20.0131C26.0809 20.1478 25.5748 20.4613 25.198 20.9054C24.7947 21.3816 24.5778 21.9805 24.4218 22.5873C24.1516 23.6424 23.9975 24.9948 23.0043 25.5956C22.4906 25.9071 21.8817 25.9714 21.3413 26.2146C20.8219 26.4477 20.3539 26.8074 19.9867 27.2615C19.8953 27.3741 19.8097 27.4926 19.7298 27.6172C19.6879 27.6815 19.7184 27.776 19.7793 27.8141C19.8459 27.8563 19.9239 27.8262 19.9657 27.7619C19.9733 27.7498 19.9828 27.7378 19.9905 27.7257C20.3329 28.202 20.5251 28.7928 20.5365 29.3896C20.5365 29.3916 20.5365 29.3957 20.5365 29.3977C20.527 29.4198 20.5175 29.4419 20.5061 29.464C20.4756 29.5343 20.4871 29.6187 20.5555 29.6609C20.6145 29.6971 20.7116 29.681 20.742 29.6087C20.9817 29.0641 21.2348 28.5054 21.6039 28.0432C21.7809 27.8222 21.9844 27.6253 22.2223 27.4786C22.4963 27.3118 22.7969 27.2434 23.107 27.1992C23.4457 27.151 23.7844 27.1088 24.0964 26.946C24.3456 26.8154 24.5626 26.6205 24.7357 26.3934C25.101 25.9151 25.3084 25.3243 25.434 24.7315C25.5805 24.0402 25.649 23.3228 25.902 22.6597C26.0181 22.3562 26.1779 22.0608 26.4043 21.8358C26.5014 21.7373 26.6155 21.6529 26.7392 21.5986C26.8933 21.5303 27.055 21.5223 27.2206 21.5323C27.3937 21.5424 27.5669 21.5725 27.74 21.5585C27.896 21.5464 28.0444 21.5022 28.1833 21.4258C28.4288 21.2892 28.6152 21.0581 28.7598 20.8129C28.9196 20.5457 29.0319 20.2523 29.1461 19.9629C29.2964 19.5811 29.4467 19.2013 29.597 18.8195C30.202 17.2862 30.8052 15.7509 31.4102 14.2176C31.4825 14.0327 31.5567 13.8459 31.629 13.661C31.6576 13.5866 31.5986 13.5002 31.5339 13.4821Z" fill="#D5863F"/>
<path d="M4.35639 15.1681C4.33546 15.0315 4.11476 15.0295 4.09383 15.1681C3.98157 15.9317 3.82936 16.6893 3.63909 17.4349C3.54586 17.7986 3.44502 18.1603 3.33086 18.516C3.24143 18.7953 3.13679 19.0727 2.98077 19.3178C2.82665 19.559 2.61926 19.7418 2.3586 19.8383C2.06369 19.9448 1.74975 19.995 1.4986 20.204C1.03244 20.5919 0.969656 21.2912 1.08382 21.8639C1.22271 22.5572 1.60705 23.1942 1.59753 23.9197C1.59183 24.2573 1.47767 24.5486 1.26837 24.7998C1.06859 25.039 0.838373 25.2419 0.651913 25.4951C-0.0558775 26.4637 -0.160524 27.8242 0.208592 28.9616C0.60054 30.1693 1.47957 31.1319 2.47656 31.8191C2.60214 31.9056 2.73152 31.988 2.8609 32.0663C3.01311 32.1588 3.15011 31.9096 2.99789 31.8191C2.98077 31.8091 2.96364 31.797 2.94462 31.787C2.94652 31.4393 2.94842 31.0937 2.95033 30.7461C2.95033 30.5652 2.95794 30.3823 2.95223 30.2015C2.94652 30.0427 2.91227 29.894 2.81904 29.7694C2.72772 29.6468 2.60214 29.5564 2.49369 29.4519C2.38143 29.3434 2.27488 29.2309 2.17214 29.1123C1.97046 28.8772 1.7897 28.62 1.63559 28.3487C1.48528 28.0854 1.3597 27.7961 1.39205 27.4806C1.41678 27.2233 1.54236 26.9902 1.67745 26.7792C1.83156 26.5421 2.01041 26.3271 2.17404 26.1C2.34148 25.8709 2.48227 25.6258 2.59072 25.3585C2.80953 24.8139 2.89896 24.211 2.83997 23.6243C2.80953 23.3309 2.74864 23.0395 2.6459 22.7642C2.54886 22.5009 2.41948 22.2477 2.36811 21.9664C2.34718 21.8559 2.34147 21.7353 2.38143 21.6288C2.42709 21.5042 2.52984 21.4318 2.63829 21.3756C2.75816 21.3133 2.87993 21.259 2.99599 21.1867C3.11015 21.1164 3.2167 21.036 3.31944 20.9496C3.72661 20.6059 4.03675 20.1357 4.24414 19.6313C4.75785 18.3854 4.63989 17.0109 4.44392 15.7027C4.41157 15.5238 4.38493 15.345 4.35639 15.1681Z" fill="#D5863F"/>
<path d="M16.442 29.4438C16.3945 29.4277 16.3374 29.4358 16.305 29.478C15.6068 30.3843 14.7943 31.1921 13.8963 31.8733C12.9982 32.5546 12.0183 33.1172 10.9833 33.5332C10.3992 33.7683 9.79984 33.9572 9.19099 34.0979C9.15103 34.1079 9.1263 34.13 9.11108 34.1562C9.08254 34.1662 9.0559 34.1863 9.04448 34.2164C8.86754 34.6465 8.68108 35.1248 8.73435 35.605C8.78382 36.0572 9.04829 36.4209 9.43263 36.6219C9.85882 36.8449 10.3402 36.8469 10.8025 36.8007C11.2991 36.7525 11.7919 36.6761 12.2809 36.5756C13.0819 36.4109 13.9248 36.1677 14.5337 35.5608C15.1825 34.9178 15.3937 33.9612 15.6315 33.0911L16.4744 30.0024L16.579 29.6186C16.6057 29.5141 16.5219 29.4438 16.442 29.4438Z" fill="#6F1C2F"/>
<path d="M15.4641 30.6255C15.388 30.6255 15.3424 30.6838 15.3309 30.7541C14.7145 31.2866 14.079 31.795 13.415 32.2572C12.7433 32.7255 12.0393 33.1434 11.2992 33.481C10.8882 33.6679 10.4658 33.8247 10.0358 33.9533C10.013 33.9593 9.99588 33.9694 9.98256 33.9834C9.91597 33.9633 9.83795 33.9895 9.81132 34.0779C9.60393 34.7631 9.8018 35.5408 10.3193 36.011C10.5667 36.2361 10.8673 36.3888 11.1888 36.4411C11.5389 36.4974 11.8947 36.4531 12.2334 36.3486C12.5759 36.2442 12.9069 36.0854 13.2152 35.9005C13.5158 35.7197 13.7974 35.4966 14.0295 35.2233C14.4919 34.6827 14.783 34.0035 15.0227 33.3283C15.3157 32.5044 15.5079 31.6443 15.6011 30.7702C15.6087 30.6918 15.5326 30.6255 15.4641 30.6255Z" fill="#B55161"/>
<path d="M18.5599 29.1424C18.3449 29.048 18.1299 28.9515 17.9149 28.8571C17.7151 28.7686 17.5153 28.6822 17.3231 28.5777C16.9712 28.3828 16.68 28.1055 16.4803 27.7398C16.3927 27.579 16.1568 27.7237 16.2462 27.8844C16.3832 28.1356 16.5621 28.3547 16.7714 28.5355C16.7257 28.64 16.6743 28.7425 16.6154 28.839C16.583 28.8912 16.5488 28.9435 16.5145 28.9937C16.5107 28.9997 16.505 29.0058 16.5012 29.0118C16.4993 29.0138 16.4993 29.0138 16.4993 29.0138C16.4917 29.0238 16.4841 29.0339 16.4765 29.0439C16.4555 29.0701 16.4346 29.0962 16.4137 29.1223C16.3908 29.1484 16.3775 29.1826 16.3756 29.2168C15.8923 29.8558 15.352 30.4426 14.7641 30.9731C14.1571 31.5197 13.5007 32 12.8081 32.418C12.2259 32.7676 11.6209 33.069 10.9968 33.3222C10.9911 33.3022 10.9797 33.2821 10.9664 33.266C10.2605 32.3818 9.79622 31.2102 9.78671 30.0467C9.7829 29.478 9.90657 28.9033 10.2319 28.4411C10.5021 28.0573 10.9207 27.7578 11.3811 27.7197C12.3819 27.6373 13.3352 28.6561 13.261 29.7111C13.2286 30.1813 12.9223 30.6355 12.479 30.7561C12.0357 30.8766 11.6247 30.5732 11.3868 30.1974C11.2575 29.9924 11.1642 29.7634 11.1186 29.5222C11.0805 29.3273 11.0691 29.0741 11.1985 28.9113C11.3279 28.7485 11.5276 28.7646 11.6932 28.8571C11.8834 28.9616 12.0471 29.1464 12.1194 29.3635C12.1574 29.474 12.1784 29.5925 12.1137 29.697C12.0185 29.8538 12.2545 29.9985 12.3477 29.8417C12.5113 29.5704 12.3914 29.2107 12.2221 28.9736C12.0661 28.7546 11.8378 28.5617 11.5752 28.5134C11.3069 28.4652 11.0368 28.5858 10.9112 28.847C10.7875 29.1042 10.8046 29.4137 10.8712 29.687C11.0044 30.2296 11.3469 30.7641 11.8511 30.9811C12.3781 31.2082 12.9432 30.959 13.2667 30.4908C13.6282 29.9663 13.5844 29.265 13.3276 28.7043C13.0764 28.1557 12.6084 27.7176 12.0585 27.5247C11.5219 27.3358 10.9359 27.4323 10.4793 27.782C10.0074 28.1417 9.70109 28.6862 9.58122 29.2831C9.44423 29.9543 9.51653 30.6616 9.68967 31.3187C9.8552 31.9457 10.1235 32.5446 10.4793 33.0751C10.5592 33.1956 10.6467 33.3122 10.7342 33.4247C10.6733 33.4488 10.6125 33.471 10.5516 33.4931C9.79622 33.7664 9.01803 33.9713 8.23033 34.11C8.06289 33.0811 7.68426 32.0884 7.13249 31.2243C6.8509 30.7842 6.53125 30.3481 6.12789 30.0266C5.73213 29.7111 5.18607 29.5282 4.70089 29.7151C4.2785 29.8779 3.9893 30.2919 3.90939 30.752C3.82186 31.2504 3.97217 31.7548 4.25377 32.1587C4.52585 32.5506 4.93682 32.9465 5.4239 32.9666C5.93001 32.9867 6.26678 32.4803 6.21922 31.9779C6.19258 31.7026 6.08032 31.4453 5.92621 31.2243C5.79302 31.0334 5.60656 30.8565 5.38205 30.7983C5.15753 30.74 4.91399 30.8344 4.81125 31.0635C4.7047 31.3007 4.75226 31.5699 4.88545 31.7829C4.95395 31.8955 5.04147 31.9939 5.1309 32.0864C5.25457 32.217 5.44674 32.014 5.32306 31.8834C5.18988 31.7428 5.02815 31.5699 5.02435 31.3589C5.02054 31.2002 5.10806 31.0535 5.26598 31.0675C5.42961 31.0836 5.58373 31.2243 5.68267 31.3569C5.81205 31.5297 5.9205 31.7468 5.94714 31.9678C5.96997 32.1507 5.93191 32.3476 5.82156 32.4943C5.7093 32.641 5.53616 32.7013 5.36302 32.6732C4.97488 32.6109 4.64191 32.2592 4.43452 31.9296C4.22142 31.59 4.09775 31.1761 4.18717 30.7701C4.26709 30.4044 4.50111 30.0728 4.85311 29.9683C5.26789 29.8457 5.7074 30.0306 6.03085 30.3059C6.36953 30.5953 6.64541 30.9711 6.88895 31.3489C7.38364 32.1165 7.73564 32.9806 7.92019 33.8889C7.93732 33.9774 7.95444 34.0658 7.96776 34.1542C7.95825 34.1562 7.94873 34.1582 7.94112 34.1582C7.05639 34.2949 6.15643 34.3431 5.26218 34.3129C5.14992 34.3089 5.03576 34.3049 4.9235 34.2989C4.74846 34.2888 4.74846 34.5762 4.9235 34.5862C5.82917 34.6345 6.74055 34.6043 7.64051 34.4878C8.02484 34.4375 8.40537 34.3732 8.784 34.2929C8.64511 34.739 8.52144 35.2112 8.58232 35.6814C8.64321 36.1657 8.9267 36.5596 9.33197 36.7867C9.77529 37.0359 10.2833 37.066 10.7742 37.0258C11.2499 36.9856 11.7274 36.9173 12.1955 36.8249C13.0707 36.652 13.9554 36.3366 14.6042 35.6654C15.2873 34.96 15.6355 33.9774 15.9228 33.0349C16.2481 31.9638 16.4746 30.8626 16.6039 29.7453C16.6192 29.6106 16.6344 29.474 16.6477 29.3373C16.6496 29.3273 16.6477 29.3172 16.6458 29.3072C16.6515 29.2931 16.6553 29.2791 16.6572 29.263C16.7923 29.0922 16.9065 28.9033 16.9978 28.7023C17.053 28.7405 17.11 28.7767 17.169 28.8088C17.3726 28.9234 17.5857 29.0138 17.7969 29.1082C18.029 29.2107 18.2593 29.3132 18.4914 29.4157C18.5599 29.4458 18.6417 29.3836 18.6588 29.3152C18.6759 29.2369 18.6265 29.1726 18.5599 29.1424ZM15.7934 32.4903C15.6602 32.9766 15.5099 33.4609 15.3273 33.9291C15.1617 34.3511 14.96 34.7691 14.6918 35.1288C14.4273 35.4845 14.1019 35.7739 13.7271 35.9929C13.3618 36.2059 12.9642 36.3466 12.5608 36.4511C12.146 36.5576 11.7236 36.6259 11.2993 36.6802C10.816 36.7425 10.3061 36.8168 9.82666 36.6862C9.45184 36.5837 9.09033 36.3486 8.93051 35.9628C8.75166 35.5368 8.8525 35.0404 8.97237 34.6144C9.00471 34.4998 9.03896 34.3873 9.07511 34.2748C9.08082 34.2587 9.08272 34.2426 9.08272 34.2285C9.4994 34.1321 9.91038 34.0155 10.3175 33.8789C11.13 33.6056 11.9196 33.2559 12.6711 32.8279C13.3903 32.42 14.0715 31.9397 14.707 31.3971C15.2968 30.8947 15.8429 30.3341 16.3338 29.7232C16.2215 30.6596 16.0427 31.584 15.7934 32.4903Z" fill="#35322D"/>
<path d="M20.3596 28.4512C19.8953 27.3781 18.9421 26.6185 17.8595 26.3633C17.2564 26.2206 16.6209 26.2326 16.0272 26.4215C15.8598 26.4738 15.9321 26.7511 16.0995 26.6989C17.0813 26.3874 18.1734 26.5944 19.0163 27.2012C19.8839 27.8262 20.39 28.8772 20.4262 29.9784C20.4471 30.5994 20.3253 31.2243 20.0476 31.7729C19.9657 31.9357 20.1998 32.0824 20.2816 31.9176C20.8238 30.8526 20.8334 29.5444 20.3596 28.4512Z" fill="#35322D"/>
<path d="M3.14246 29.3815C2.76573 30.0909 2.65728 30.9409 2.82472 31.7327C2.87228 31.9598 2.94649 32.1808 3.03972 32.3918C3.07016 32.4622 3.1672 32.4802 3.22618 32.4441C3.29467 32.4019 3.30609 32.3175 3.27565 32.2471C2.89892 31.3911 2.94078 30.3501 3.37649 29.5282C3.46401 29.3655 3.22808 29.2208 3.14246 29.3815Z" fill="#35322D"/>
<path d="M26.0086 29.1806C26.001 29.1725 25.9915 29.1625 25.982 29.1564C26.2122 28.7385 26.4158 28.3044 26.5832 27.8543C26.8877 27.0404 27.0779 26.1783 27.1331 25.3042C27.1407 25.1956 27.1445 25.0851 27.1464 24.9766C27.1502 24.7917 26.8782 24.7917 26.8743 24.9766C26.8553 25.8287 26.6993 26.6686 26.431 27.4704C26.1609 28.2783 25.7727 29.0439 25.3027 29.7412C24.8309 30.4426 24.2658 31.0715 23.6417 31.6221C23.0119 32.1788 22.3194 32.653 21.5907 33.0529C20.8562 33.4569 20.0837 33.7824 19.2922 34.0356C19.1952 34.0678 19.0963 34.0979 18.9992 34.126C18.9155 34.1522 18.8908 34.2345 18.9098 34.3029C18.8889 34.3149 18.8718 34.331 18.8622 34.3531C18.6206 34.8856 18.3752 35.4202 18.0536 35.9045C17.8957 36.1416 17.7168 36.3647 17.5133 36.5616C17.3021 36.7666 17.0623 36.9334 16.8112 37.078C16.5448 37.2288 16.267 37.3533 15.9873 37.4719C15.6943 37.5965 15.3994 37.7211 15.1026 37.8397C14.5032 38.0828 13.8963 38.3059 13.2722 38.4606C12.553 38.6374 11.8205 38.6957 11.0842 38.6575C10.9091 38.6475 10.9091 38.9349 11.0842 38.9449C11.7634 38.9811 12.4408 38.9349 13.1086 38.7922C13.7498 38.6535 14.372 38.4365 14.9846 38.1933C15.2929 38.0708 15.5992 37.9421 15.9055 37.8135C16.1928 37.693 16.4801 37.5704 16.7579 37.4277C17.3002 37.1484 17.7682 36.7686 18.1373 36.2642C18.535 35.7236 18.8204 35.1107 19.0982 34.4958C19.1134 34.4616 19.1191 34.4234 19.1115 34.3873C19.9144 34.1461 20.6983 33.8326 21.448 33.4468C22.2071 33.0549 22.9282 32.5827 23.5923 32.0301C24.2544 31.4795 24.8518 30.8445 25.3636 30.1371C25.5235 29.9161 25.6719 29.685 25.8146 29.4518C25.8127 29.2388 25.8393 29.1906 26.0086 29.1806Z" fill="#35322D"/>
<path d="M23.0824 9.62575C22.9568 9.49111 22.776 9.51522 22.6257 9.58354C22.4887 9.64584 22.3575 9.72421 22.2262 9.80058C21.6991 10.106 21.2006 10.4677 20.7383 10.8737C20.2778 11.2756 19.8536 11.7257 19.4749 12.212C19.3779 12.3366 19.2828 12.4652 19.1914 12.5938C19.1077 12.7124 19.0335 12.845 18.9365 12.9515C18.8699 13.0239 18.7881 13.0842 18.7234 12.9797C18.691 12.9254 18.6739 12.8611 18.6568 12.8008C18.6301 12.7084 18.6035 12.6179 18.5769 12.5255C18.5236 12.3426 18.4703 12.1598 18.417 11.9769C18.3866 11.8704 18.2667 11.8403 18.1906 11.9126C17.6503 12.423 17.1879 13.0239 16.8226 13.685C16.6438 14.0106 16.4877 14.3522 16.3584 14.7038C16.2956 14.8747 16.2499 15.0555 16.1719 15.2203C16.1072 15.359 16.0102 15.4936 15.8542 15.5137C15.7267 15.5298 15.6658 15.4434 15.6258 15.3248C15.5726 15.164 15.5231 14.9972 15.3766 14.9028C15.2263 14.8063 15.0341 14.8284 14.8819 14.9108C14.7183 15.0013 14.6174 15.1761 14.5508 15.3509C14.4804 15.5378 14.4348 15.7367 14.391 15.9297C14.3454 16.1266 14.3073 16.3276 14.275 16.5285C14.2065 16.9505 14.1665 17.3785 14.1551 17.8086C14.1323 18.7591 14.2521 19.7136 14.5147 20.6239C14.5242 20.6581 14.5432 20.6842 14.5661 20.7003C14.6384 20.8611 14.7563 20.9977 14.9104 21.0721C14.9999 21.1163 15.1178 21.066 15.1159 20.9475C15.0874 19.784 15.1635 18.6184 15.35 17.471C15.3918 17.2138 15.4394 16.9565 15.4927 16.7013C15.6962 16.842 15.9189 16.9585 16.1624 16.9827C16.3127 16.9987 16.4668 16.9646 16.5962 16.8822C16.7275 16.7978 16.8207 16.6692 16.9006 16.5325C17.2583 15.9256 17.5437 15.2625 17.7873 14.5953C17.8272 14.4888 17.871 14.3602 17.9604 14.2859C18.0289 14.2296 18.0917 14.2557 18.1469 14.312C18.2306 14.3984 18.2896 14.5069 18.3676 14.5953C18.457 14.6958 18.575 14.7702 18.7024 14.7943C18.9802 14.8425 19.2447 14.6978 19.4597 14.525C19.7166 14.318 19.9163 14.0467 20.1294 13.7915C20.607 13.2168 21.0865 12.6421 21.564 12.0673C21.8038 11.78 22.0416 11.4926 22.2813 11.2052C22.5173 10.9219 22.7665 10.6466 22.9891 10.3512C23.128 10.1683 23.2764 9.83072 23.0824 9.62575Z" fill="#E6D052"/>
<path d="M5.55678 9.58526C5.41217 9.60535 5.33607 9.73999 5.30372 9.87664C5.27328 10.0012 5.25616 10.1319 5.23713 10.2585C5.16102 10.7729 5.13248 11.2934 5.14961 11.8138C5.16673 12.3303 5.22952 12.8447 5.33797 13.3491C5.36651 13.4777 5.39695 13.6063 5.4312 13.735C5.46164 13.8515 5.50731 13.9681 5.52253 14.0886C5.53394 14.171 5.53014 14.2574 5.4331 14.2474C5.38363 14.2434 5.33607 14.2213 5.2885 14.2032C5.2181 14.175 5.14961 14.1489 5.07921 14.1208C4.94031 14.0665 4.80142 14.0103 4.66253 13.956C4.58071 13.9238 4.5046 13.9902 4.51031 14.0806C4.55217 14.7056 4.68916 15.3225 4.91368 15.9032C5.02403 16.1886 5.15532 16.4659 5.30563 16.7312C5.37793 16.8598 5.46735 16.9824 5.52824 17.117C5.58151 17.2315 5.61576 17.3642 5.54917 17.4807C5.49589 17.5772 5.41217 17.5752 5.31894 17.543C5.19337 17.4988 5.06589 17.4486 4.93651 17.5028C4.80332 17.5591 4.7196 17.6998 4.69487 17.8445C4.66823 18.0012 4.72531 18.1579 4.79952 18.2926C4.87753 18.4333 4.97837 18.5639 5.0735 18.6925C5.17244 18.8231 5.27518 18.9497 5.38173 19.0723C5.60624 19.3295 5.84978 19.5727 6.10664 19.7937C6.67744 20.286 7.32435 20.6799 8.01311 20.9572C8.03975 20.9673 8.06448 20.9673 8.08541 20.9613C8.2205 20.9914 8.3632 20.9793 8.48497 20.913C8.55727 20.8748 8.58391 20.7683 8.51161 20.7101C7.78289 20.1474 7.10554 19.5104 6.49669 18.809C6.3597 18.6523 6.22651 18.4895 6.09523 18.3267C6.28359 18.2584 6.46625 18.164 6.60324 18.0092C6.68696 17.9148 6.74594 17.7922 6.75926 17.6616C6.77258 17.531 6.74213 17.4003 6.69837 17.2778C6.5043 16.7292 6.24174 16.2027 5.95443 15.7023C5.90877 15.6219 5.85169 15.5275 5.85169 15.429C5.85169 15.3546 5.89926 15.3245 5.96204 15.3144C6.05718 15.3004 6.15231 15.3144 6.24744 15.3064C6.35399 15.2964 6.45864 15.2522 6.53665 15.1758C6.70598 15.011 6.74974 14.7558 6.75165 14.5227C6.75355 14.2434 6.68696 13.9701 6.63749 13.6968C6.52333 13.0819 6.41107 12.4669 6.29691 11.852C6.23983 11.5446 6.18275 11.2371 6.12757 10.9296C6.0724 10.6262 6.02673 10.3187 5.95824 10.0173C5.91257 9.8264 5.77939 9.55511 5.55678 9.58526Z" fill="#E6D052"/>
</svg>
