<svg width="195" height="97" viewBox="0 0 195 97" fill="none" xmlns="http://www.w3.org/2000/svg">
<path d="M96.6768 97C96.0568 97 95.4134 96.9766 94.7818 96.9415C83.0724 96.2046 76.6269 88.0513 73.6323 82.7171C70.7313 85.5012 65.9469 88.7297 59.4313 88.7297C56.6473 88.7297 53.793 88.1332 50.9271 86.94C47.6517 89.4784 39.592 94.719 28.9939 94.719C23.4141 94.719 17.9045 93.2567 12.6288 90.3674C3.60989 85.431 -0.9873 73.5344 1.44582 61.4507C3.39934 51.7533 10.4296 40.9329 24.3382 37.9383C23.5428 35.3999 22.6654 31.7619 22.49 27.7262C22.0455 17.327 26.4204 9.34915 35.1469 4.65837C39.8026 2.15507 44.8911 0.880005 50.272 0.880005C61.4082 0.880005 70.9068 6.27265 74.8138 8.85784C78.5571 6.26096 87.4824 0.98528 98.0103 0.98528C101.835 0.98528 105.532 1.68715 108.994 3.07918C121.651 8.14428 124.084 19.2571 123.453 26.884C123.944 26.8606 124.459 26.8489 124.997 26.8489C131.267 26.8489 135.642 28.3345 137.981 31.2706C140.648 34.6045 140.625 40.4767 140.005 45.2728C142.614 43.9977 145.854 42.9449 149.422 42.9449C152.919 42.9449 156.241 43.9509 159.283 45.9395C169.904 52.8646 177.695 56.2335 183.088 56.2335C185.661 56.2335 187.463 55.4615 188.749 53.7887L194.82 45.9746L194.142 55.8475C193.756 61.4741 190.024 72.5986 178.689 74.4118C177.742 74.5638 176.759 74.634 175.753 74.634C171.203 74.634 166.746 73.0665 162.441 71.5575C158.195 70.0602 154.183 68.6565 150.182 68.6565C147.995 68.6565 145.959 69.101 144.017 70.0017C145.012 73.9906 145.831 81.7462 139.654 87.9226C137.35 90.227 134.215 91.3968 130.343 91.3968C124.704 91.3968 118.575 88.8584 115.03 87.1154C112.457 91.6308 106.725 97 96.6768 97Z" fill="#EBAE3E"/>
<path d="M191.159 55.6369C191.159 55.6369 190.2 69.5221 178.233 71.4288C166.267 73.3473 153.82 59.9417 140.426 68.5512C140.426 68.5512 144.743 78.5995 137.56 85.7819C130.378 92.9643 113.627 82.916 113.627 82.916C113.627 82.916 110.27 94.8827 94.9573 93.9235C79.6451 92.9643 74.3811 77.1724 74.3811 77.1724C74.3811 77.1724 65.7716 91.0459 50.4476 83.3956C50.4476 83.3956 34.1761 98.7079 14.0794 87.7003C4.63941 82.53 1.55121 69.2999 5.48163 58.0935C8.60492 49.2032 16.1499 41.588 28.4325 40.313C28.4325 40.313 17.9046 17.3387 36.5624 7.29036C55.2319 -2.75796 74.849 12.5543 74.849 12.5543C74.849 12.5543 91.1205 -0.851238 107.872 5.86324C124.623 12.5543 119.838 30.2062 119.838 30.2062C119.838 30.2062 131.805 28.3579 135.63 33.1306C139.455 37.9149 135.63 51.8001 135.63 51.8001C135.63 51.8001 146.638 41.2722 157.645 48.4429C165.53 53.5899 175.87 59.4621 183.567 59.2165C186.632 59.1346 189.264 58.0818 191.159 55.6369Z" fill="#C20706"/>
<path opacity="0.8" d="M191.159 55.6369C191.159 55.6369 190.2 69.5221 178.233 71.4288C166.267 73.3472 153.82 59.9417 140.426 68.5512C140.426 68.5512 144.743 78.5995 137.56 85.7819C130.378 92.9643 113.627 82.916 113.627 82.916C113.627 82.916 110.27 94.8827 94.9573 93.9235C79.6451 92.9643 74.3811 77.1724 74.3811 77.1724C74.3811 77.1724 65.7716 91.0459 50.4476 83.3956C50.4476 83.3956 34.1761 98.7079 14.0794 87.7003C4.63941 82.5299 1.55121 69.2998 5.48163 58.0934C6.60461 59.813 7.89135 61.4039 9.33017 62.8778C12.5587 66.2 16.4658 68.8319 20.6886 70.7387C25.6134 72.9612 30.9943 74.2246 36.3986 74.3532C51.2781 74.6691 65.5025 67.6622 77.1066 58.3274C75.2818 67.1709 81.9612 76.8449 90.8865 78.2837C99.8002 79.7108 109.182 72.622 110.223 63.6499C114.282 65.9192 119.546 65.8724 123.57 63.5329C127.594 61.1933 130.226 56.6312 130.249 51.9756C140.672 60.4798 154.534 64.6676 167.928 63.3457C173.32 62.8193 178.608 61.3922 183.579 59.2047C186.632 59.1345 189.264 58.0817 191.159 55.6369Z" fill="#DB2A18"/>
<path d="M88.5117 47.4719C86.4412 47.4719 84.359 47.1444 82.3704 46.4543C75.7612 44.1615 70.3803 38.0436 68.6724 30.8612C66.8241 23.129 69.2339 14.461 74.8137 8.79936C75.3986 8.20278 76.3578 8.19108 76.9544 8.77596C77.5509 9.36085 77.5626 10.3201 76.9777 10.905C72.1115 15.8531 70.0176 23.4098 71.6202 30.1477C73.1058 36.3474 77.7147 41.6231 83.3764 43.5883C89.3305 45.6471 96.2205 43.9276 100.139 39.4005C104.116 34.8033 104.421 27.3285 100.829 22.7547C98.6068 19.9356 95.0858 18.3213 91.8689 18.6488C88.4766 18.9998 85.5171 21.6083 84.979 24.7082C84.7099 26.264 85.1427 28.0187 86.137 29.4224C87.0495 30.7092 88.3128 31.5397 89.6698 31.7502C90.4886 31.8789 91.0501 32.651 90.9214 33.4815C90.7927 34.3004 90.0207 34.8618 89.1901 34.7332C87.0261 34.3822 85.0609 33.1189 83.6805 31.1771C82.2066 29.1066 81.5866 26.5565 81.9961 24.1935C82.7564 19.8069 86.874 16.1338 91.5531 15.6542C95.8461 15.2097 100.315 17.2217 103.204 20.8948C107.719 26.65 107.38 35.6456 102.42 41.3775C99.0162 45.2962 93.799 47.4719 88.5117 47.4719Z" fill="#EBAE3E"/>
<path d="M50.9036 86.7996C50.8334 86.7996 50.7632 86.7996 50.693 86.7879C45.3471 86.051 40.5043 83.3371 37.4044 79.3365C34.0823 75.0551 32.9008 69.3116 34.3162 64.3517C35.8252 59.0761 40.3054 54.8649 45.4758 53.8589C49.9794 52.9816 54.7638 54.5724 57.6882 57.8946C60.753 61.3805 61.49 66.6328 59.478 70.6568C58.4369 72.7507 56.7758 74.3533 54.8223 75.1604C51.7692 76.4237 48.0844 75.5932 45.8501 73.1484C43.6276 70.7036 43.148 66.9603 44.6804 64.0359C45.0664 63.2989 45.9788 63.0182 46.7158 63.4042C47.4527 63.7902 47.7335 64.7027 47.3474 65.4396C46.3999 67.2294 46.7041 69.6157 48.0727 71.113C49.4413 72.6103 51.7809 73.1367 53.6525 72.3646C54.9159 71.8382 56.0505 70.727 56.7524 69.2999C58.2263 66.3403 57.6648 62.4684 55.3955 59.8715C53.1729 57.3448 49.4998 56.1399 46.0256 56.8184C41.9431 57.6139 38.3987 60.9711 37.1939 65.1706C36.0358 69.218 37.0184 73.9321 39.7557 77.4766C42.3759 80.8572 46.5052 83.1616 51.0673 83.7933C51.8979 83.9103 52.471 84.6706 52.3541 85.4895C52.2956 86.2498 51.6522 86.7996 50.9036 86.7996Z" fill="#EBAE3E"/>
<path d="M127.71 80.4945C127.582 80.4945 127.441 80.4946 127.313 80.4829C124.552 80.284 122.107 78.0848 121.628 75.3593C121.358 73.8035 121.674 72.0722 122.552 70.3644C124.505 66.5509 128.693 63.9306 132.974 63.8487C137.232 63.7668 141.537 66.2234 143.631 69.9666C144.04 70.6919 143.783 71.616 143.046 72.0254C142.321 72.4348 141.397 72.1775 140.987 71.4405C139.42 68.6448 136.238 66.8082 133.021 66.8667C129.816 66.9252 126.693 68.8787 125.23 71.733C124.833 72.5167 124.388 73.6982 124.587 74.8329C124.821 76.1898 126.143 77.3713 127.511 77.4648C128.88 77.5701 130.354 76.5758 130.775 75.2657C131.068 74.3766 130.916 73.3239 130.389 72.5869C129.91 71.9084 130.062 70.9609 130.74 70.4813C131.419 70.0017 132.366 70.1538 132.846 70.8323C133.922 72.3413 134.238 74.4 133.641 76.2015C132.846 78.7165 130.331 80.4945 127.71 80.4945Z" fill="#EBAE3E"/>
</svg>
