<svg width="973" height="324" viewBox="0 0 973 324" fill="none" xmlns="http://www.w3.org/2000/svg">
<path fill-rule="evenodd" clip-rule="evenodd" d="M198.67 -209.2C198.67 -209.79 199.15 -210.27 199.74 -210.27C200.33 -210.27 200.81 -209.79 200.81 -209.2V196.18C200.81 196.77 200.33 197.25 199.74 197.25C199.15 197.25 198.67 196.77 198.67 196.18V-209.2Z" fill="#731602"/>
<path fill-rule="evenodd" clip-rule="evenodd" d="M185.39 284.09C185.44 283.87 185.66 283.74 185.88 283.78C186.1 283.83 186.24 284.05 186.19 284.27L185.94 285.38C183.83 294.65 180.12 310.92 163.78 320.19C163.59 320.3 163.34 320.23 163.23 320.04C163.12 319.85 163.19 319.6 163.38 319.49C179.41 310.39 183.07 294.35 185.15 285.21L185.39 284.09Z" fill="#D87D07"/>
<path fill-rule="evenodd" clip-rule="evenodd" d="M180.84 296.59C182.36 296.51 183.65 297.68 183.73 299.19C183.81 300.71 182.64 302.01 181.13 302.09C179.61 302.17 178.31 301 178.24 299.49C178.15 297.97 179.32 296.67 180.84 296.59Z" fill="#D87D07"/>
<path fill-rule="evenodd" clip-rule="evenodd" d="M173.84 307.9C175.36 307.82 176.66 308.99 176.73 310.5C176.81 312.02 175.64 313.32 174.12 313.4C172.6 313.48 171.3 312.31 171.23 310.8C171.15 309.28 172.32 307.98 173.84 307.9Z" fill="#D87D07"/>
<path fill-rule="evenodd" clip-rule="evenodd" d="M164.96 316.14C166.48 316.06 167.78 317.23 167.86 318.75C167.94 320.27 166.77 321.56 165.25 321.64C163.73 321.72 162.44 320.55 162.36 319.04C162.27 317.52 163.44 316.22 164.96 316.14Z" fill="#D87D07"/>
<path fill-rule="evenodd" clip-rule="evenodd" d="M192.67 283.22C192.67 282.99 192.85 282.81 193.08 282.81C193.3 282.81 193.48 282.99 193.48 283.22C193.48 283.3 193.5 309.92 178.73 322.76C178.56 322.91 178.3 322.89 178.16 322.72C178.01 322.55 178.03 322.3 178.2 322.15C192.69 309.55 192.67 283.29 192.67 283.22Z" fill="#D87D07"/>
<path fill-rule="evenodd" clip-rule="evenodd" d="M190.79 296.25C192.26 295.87 193.76 296.76 194.14 298.23C194.52 299.7 193.63 301.2 192.16 301.58C190.69 301.96 189.19 301.07 188.81 299.6C188.43 298.13 189.32 296.63 190.79 296.25Z" fill="#D87D07"/>
<path fill-rule="evenodd" clip-rule="evenodd" d="M186.17 308.72C187.64 308.34 189.14 309.23 189.52 310.7C189.9 312.17 189.01 313.67 187.54 314.05C186.07 314.43 184.57 313.54 184.19 312.07C183.81 310.6 184.69 309.1 186.17 308.72Z" fill="#D87D07"/>
<path fill-rule="evenodd" clip-rule="evenodd" d="M179.09 318.55C180.56 318.17 182.06 319.06 182.44 320.53C182.82 322 181.93 323.51 180.46 323.88C178.99 324.26 177.49 323.37 177.11 321.9C176.73 320.44 177.62 318.93 179.09 318.55Z" fill="#D87D07"/>
<path fill-rule="evenodd" clip-rule="evenodd" d="M202.52 284.73C202.51 284.51 202.68 284.31 202.9 284.3C203.12 284.29 203.32 284.46 203.33 284.68C203.33 284.75 205.02 308.88 191.12 322.65C190.96 322.81 190.7 322.81 190.55 322.65C190.39 322.49 190.39 322.24 190.55 322.08C204.18 308.56 202.52 284.79 202.52 284.73Z" fill="#D87D07"/>
<path fill-rule="evenodd" clip-rule="evenodd" d="M201.42 295.41C202.86 294.94 204.42 295.72 204.89 297.17C205.36 298.62 204.58 300.17 203.13 300.65C201.69 301.12 200.13 300.34 199.65 298.89C199.19 297.44 199.97 295.89 201.42 295.41Z" fill="#D87D07"/>
<path fill-rule="evenodd" clip-rule="evenodd" d="M197.62 308.15C199.06 307.68 200.62 308.46 201.1 309.91C201.57 311.36 200.79 312.91 199.34 313.39C197.9 313.86 196.34 313.08 195.86 311.63C195.39 310.19 196.18 308.63 197.62 308.15Z" fill="#D87D07"/>
<path fill-rule="evenodd" clip-rule="evenodd" d="M191.21 318.43C192.65 317.96 194.21 318.74 194.69 320.19C195.16 321.64 194.38 323.19 192.93 323.67C191.48 324.14 189.93 323.36 189.45 321.91C188.97 320.46 189.76 318.91 191.21 318.43Z" fill="#D87D07"/>
<path fill-rule="evenodd" clip-rule="evenodd" d="M212.85 287.8C212.82 287.58 212.97 287.37 213.19 287.34C213.41 287.31 213.62 287.46 213.65 287.68C213.66 287.74 216.98 307.75 203.99 322.39C203.84 322.56 203.59 322.57 203.42 322.42C203.25 322.27 203.24 322.02 203.38 321.85C216.12 307.49 212.86 287.85 212.85 287.8Z" fill="#D87D07"/>
<path fill-rule="evenodd" clip-rule="evenodd" d="M212.53 294.54C213.94 293.97 215.55 294.66 216.11 296.07C216.68 297.48 215.99 299.09 214.58 299.65C213.17 300.22 211.56 299.53 211 298.12C210.43 296.71 211.12 295.11 212.53 294.54Z" fill="#D87D07"/>
<path fill-rule="evenodd" clip-rule="evenodd" d="M209.55 307.5C210.96 306.93 212.56 307.62 213.13 309.03C213.7 310.44 213.01 312.05 211.6 312.61C210.19 313.18 208.58 312.49 208.02 311.08C207.46 309.67 208.14 308.07 209.55 307.5Z" fill="#D87D07"/>
<path fill-rule="evenodd" clip-rule="evenodd" d="M203.81 318.17C205.22 317.6 206.83 318.29 207.39 319.7C207.95 321.11 207.27 322.71 205.86 323.28C204.45 323.84 202.85 323.16 202.28 321.75C201.72 320.34 202.4 318.74 203.81 318.17Z" fill="#D87D07"/>
<path fill-rule="evenodd" clip-rule="evenodd" d="M177.76 190.16C177.76 190.16 173.72 213.35 155.52 224.94C184.81 224.94 214.1 224.94 243.4 224.94C225.21 213.35 221.16 190.16 221.16 190.16C206.19 189.8 192.73 189.8 177.76 190.16Z" fill="#C02817"/>
<path fill-rule="evenodd" clip-rule="evenodd" d="M161.78 220.05C159.91 221.82 157.83 223.48 155.52 224.95H163.17C162.72 223.36 162.26 221.73 161.78 220.05Z" fill="#C02817"/>
<path fill-rule="evenodd" clip-rule="evenodd" d="M155.56 224.73L243.36 224.63L225.55 284.44L173.45 284.54L155.56 224.73Z" fill="#C02817"/>
<path fill-rule="evenodd" clip-rule="evenodd" d="M155.56 224.73L163.1 224.72C175.38 267.89 180.72 277 228.54 274.37L225.54 284.44L173.44 284.54L155.56 224.73Z" fill="#A52414"/>
<path fill-rule="evenodd" clip-rule="evenodd" d="M190.11 190.26C190.11 190.26 188.99 215.29 183.4 224.78C194.11 224.78 204.82 224.78 215.53 224.78C209.94 215.29 208.82 190.26 208.82 190.26C201.55 189.86 197.37 189.86 190.11 190.26Z" fill="#C02817"/>
<path fill-rule="evenodd" clip-rule="evenodd" d="M190.68 190.83C190.49 194.39 189.19 214.89 184.41 224.19H214.52C209.74 214.89 208.44 194.4 208.25 190.83C204.9 190.65 202.19 190.56 199.47 190.56C196.74 190.55 194.03 190.64 190.68 190.83ZM182.88 224.48C188.33 215.24 189.48 190.94 189.51 190.25C189.52 189.94 189.76 189.68 190.07 189.67C193.73 189.47 196.6 189.36 199.46 189.36C202.31 189.36 205.18 189.46 208.85 189.67C209.15 189.69 209.4 189.93 209.41 190.24C209.41 190.31 210.52 215.08 216.03 224.46C216.09 224.55 216.13 224.67 216.13 224.79C216.13 225.12 215.86 225.39 215.53 225.39H183.4C183.3 225.39 183.19 225.36 183.1 225.31C182.81 225.13 182.72 224.76 182.88 224.48Z" fill="#881E0E"/>
<path fill-rule="evenodd" clip-rule="evenodd" d="M183.3 224.88L215.62 224.83L211.19 287.79L187.89 287.85L183.3 224.88Z" fill="#C02817"/>
<path fill-rule="evenodd" clip-rule="evenodd" d="M212.11 274.76L211.19 287.8L187.89 287.85L186.55 269.52C192.7 272.98 200.77 274.53 212.11 274.76Z" fill="#A52414"/>
<path fill-rule="evenodd" clip-rule="evenodd" d="M183.34 224.29L215.62 224.24C215.95 224.24 216.22 224.51 216.22 224.84V224.88L211.79 287.84C211.77 288.17 211.48 288.42 211.15 288.4L187.89 288.44C187.57 288.44 187.32 288.19 187.3 287.89L182.71 224.93C182.69 224.6 182.93 224.31 183.26 224.29C183.28 224.28 183.31 224.28 183.34 224.29ZM214.98 225.43L183.94 225.48L188.44 287.25L210.63 287.2L214.98 225.43Z" fill="#881E0E"/>
<path fill-rule="evenodd" clip-rule="evenodd" d="M179.17 184.58H219.76C221.68 184.58 223.26 186.15 223.26 188.08C223.26 190 221.69 191.58 219.76 191.58H179.17C177.25 191.58 175.67 190.01 175.67 188.08C175.67 186.15 177.24 184.58 179.17 184.58Z" fill="#E6AF33"/>
<path fill-rule="evenodd" clip-rule="evenodd" d="M155.21 225.69C154.88 225.69 154.61 225.43 154.61 225.1C154.61 224.77 154.87 224.51 155.2 224.51L243.06 223.91C243.39 223.91 243.66 224.17 243.66 224.5C243.66 224.83 243.4 225.09 243.07 225.09L155.21 225.69Z" fill="#881E0E"/>
<path fill-rule="evenodd" clip-rule="evenodd" d="M172.8 284.31H226.12C227.66 284.31 228.93 285.57 228.93 287.12V287.59C228.93 289.13 227.67 290.4 226.12 290.4H172.8C171.26 290.4 169.99 289.14 169.99 287.59V287.12C169.99 285.58 171.26 284.31 172.8 284.31Z" fill="#E6AF33"/>
<path fill-rule="evenodd" clip-rule="evenodd" d="M185.25 220.44C182.72 222.79 180.56 224.7 178.76 226.29C174.41 230.13 172.24 232.04 172.23 233.67C172.22 235.29 174.38 237.19 178.7 241.01C180.49 242.59 182.63 244.48 185.15 246.83C187.66 249.18 189.69 251.18 191.38 252.85C195.48 256.9 197.54 258.92 199.35 258.92C201.18 258.92 203.25 256.88 207.39 252.81C209.1 251.13 211.15 249.12 213.67 246.76C216.2 244.41 218.36 242.5 220.16 240.91C224.51 237.07 226.68 235.16 226.69 233.53C226.7 231.91 224.54 230.01 220.22 226.19C218.43 224.61 216.29 222.72 213.77 220.37C211.26 218.02 209.23 216.02 207.54 214.35C203.44 210.3 201.38 208.28 199.57 208.28C197.74 208.28 195.67 210.32 191.53 214.39C189.83 216.07 187.78 218.08 185.25 220.44ZM177.74 225.05C179.54 223.46 181.7 221.56 184.2 219.23C186.7 216.9 188.75 214.89 190.45 213.21C194.89 208.84 197.11 206.65 199.56 206.65C202.02 206.64 204.22 208.82 208.64 213.17C210.33 214.84 212.36 216.84 214.84 219.16C217.32 221.48 219.46 223.37 221.25 224.95C225.93 229.09 228.28 231.16 228.27 233.53C228.26 235.89 225.9 237.97 221.19 242.13C219.39 243.72 217.23 245.62 214.73 247.95C212.23 250.28 210.18 252.29 208.48 253.97C204.04 258.34 201.82 260.53 199.37 260.53C196.91 260.54 194.71 258.36 190.29 254.01C188.6 252.34 186.57 250.34 184.09 248.02C181.61 245.7 179.46 243.81 177.68 242.23C173 238.09 170.65 236.02 170.66 233.65C170.66 231.29 173.02 229.21 177.74 225.05Z" fill="#E6AF33"/>
<path fill-rule="evenodd" clip-rule="evenodd" d="M187.28 222.22C172.65 235.84 172.67 231.46 187.19 245.01C201.71 258.56 197.01 258.57 211.63 244.95C226.26 231.33 226.24 235.71 211.72 222.16C197.21 208.61 201.91 208.6 187.28 222.22Z" fill="#E6AF33"/>
<path fill-rule="evenodd" clip-rule="evenodd" d="M193.87 227.13C193.46 227.13 193.12 226.8 193.12 226.38C193.12 225.97 193.45 225.63 193.87 225.63H205.25C205.66 225.63 206 225.96 206 226.38C206 226.79 205.67 227.13 205.25 227.13H193.87Z" fill="#731602"/>
<path fill-rule="evenodd" clip-rule="evenodd" d="M195.57 230.03C195.16 230.03 194.82 229.7 194.82 229.28C194.82 228.87 195.15 228.53 195.57 228.53H203.55C203.96 228.53 204.3 228.86 204.3 229.28C204.3 229.69 203.97 230.03 203.55 230.03H195.57Z" fill="#731602"/>
<path fill-rule="evenodd" clip-rule="evenodd" d="M191.37 235.12C190.96 235.12 190.62 234.79 190.62 234.37C190.62 233.96 190.95 233.62 191.37 233.62H207.74C208.15 233.62 208.49 233.95 208.49 234.37C208.49 234.78 208.16 235.12 207.74 235.12H191.37Z" fill="#731602"/>
<path fill-rule="evenodd" clip-rule="evenodd" d="M198.81 223.77C198.82 223.36 199.16 223.03 199.57 223.04C199.98 223.05 200.31 223.39 200.3 223.8C200.2 227.71 199.2 230.53 197.58 232.84C195.98 235.13 193.8 236.87 191.3 238.66C190.97 238.9 190.5 238.82 190.26 238.49C190.02 238.16 190.1 237.69 190.43 237.45C192.82 235.74 194.88 234.09 196.35 231.99C197.82 229.92 198.72 227.35 198.81 223.77Z" fill="#731602"/>
<path fill-rule="evenodd" clip-rule="evenodd" d="M199.84 229.61C199.7 229.22 199.9 228.8 200.28 228.65C200.67 228.51 201.09 228.71 201.24 229.09C201.91 230.91 202.91 232.39 204.16 233.7C205.44 235.04 206.97 236.23 208.68 237.45C209.01 237.69 209.09 238.15 208.85 238.49C208.61 238.82 208.15 238.9 207.81 238.66C206.04 237.4 204.43 236.15 203.08 234.72C201.69 233.28 200.58 231.64 199.84 229.61Z" fill="#731602"/>
<path fill-rule="evenodd" clip-rule="evenodd" d="M195.67 235.92H203.46C203.87 235.92 204.21 236.25 204.21 236.67V243.36C204.21 243.77 203.88 244.11 203.46 244.11H195.67C195.26 244.11 194.92 243.78 194.92 243.36V236.67C194.92 236.25 195.25 235.92 195.67 235.92ZM202.7 237.41H196.41V242.6H202.7V237.41Z" fill="#731602"/>
<path fill-rule="evenodd" clip-rule="evenodd" d="M196.06 240.76C195.65 240.76 195.31 240.43 195.31 240.01C195.31 239.6 195.64 239.26 196.06 239.26H203.05C203.46 239.26 203.8 239.59 203.8 240.01C203.8 240.42 203.47 240.76 203.05 240.76H196.06Z" fill="#731602"/>
<path fill-rule="evenodd" clip-rule="evenodd" d="M781.96 -187.09C781.96 -187.55 782.34 -187.93 782.8 -187.93C783.26 -187.93 783.64 -187.55 783.64 -187.09V130.28C783.64 130.75 783.26 131.12 782.8 131.12C782.33 131.12 781.96 130.74 781.96 130.28V-187.09Z" fill="#731602"/>
<path fill-rule="evenodd" clip-rule="evenodd" d="M771.57 199.1C771.61 198.93 771.78 198.82 771.95 198.86C772.12 198.9 772.23 199.07 772.19 199.24L771.99 200.11C770.34 207.37 767.43 220.1 754.64 227.36C754.49 227.45 754.29 227.39 754.21 227.24C754.12 227.09 754.18 226.89 754.33 226.81C766.88 219.69 769.74 207.13 771.37 199.97L771.57 199.1Z" fill="#D87D07"/>
<path fill-rule="evenodd" clip-rule="evenodd" d="M768 208.89C769.19 208.83 770.2 209.74 770.27 210.93C770.33 212.12 769.42 213.13 768.23 213.2C767.04 213.26 766.03 212.35 765.96 211.16C765.9 209.97 766.82 208.96 768 208.89Z" fill="#D87D07"/>
<path fill-rule="evenodd" clip-rule="evenodd" d="M762.52 217.74C763.71 217.68 764.72 218.59 764.79 219.78C764.85 220.97 763.94 221.99 762.75 222.05C761.56 222.11 760.55 221.2 760.48 220.01C760.42 218.82 761.33 217.81 762.52 217.74Z" fill="#D87D07"/>
<path fill-rule="evenodd" clip-rule="evenodd" d="M755.57 224.2C756.76 224.14 757.77 225.05 757.84 226.24C757.9 227.43 756.99 228.44 755.8 228.51C754.61 228.57 753.6 227.66 753.53 226.47C753.47 225.27 754.38 224.26 755.57 224.2Z" fill="#D87D07"/>
<path fill-rule="evenodd" clip-rule="evenodd" d="M777.27 198.42C777.27 198.24 777.41 198.1 777.59 198.1C777.77 198.1 777.91 198.24 777.91 198.42C777.91 198.48 777.92 219.33 766.36 229.37C766.23 229.49 766.03 229.47 765.91 229.34C765.8 229.21 765.81 229.01 765.94 228.89C777.28 219.03 777.27 198.48 777.27 198.42Z" fill="#D87D07"/>
<path fill-rule="evenodd" clip-rule="evenodd" d="M775.8 208.62C776.95 208.32 778.13 209.02 778.43 210.17C778.73 211.32 778.03 212.5 776.88 212.8C775.73 213.1 774.55 212.4 774.25 211.25C773.95 210.1 774.64 208.92 775.8 208.62Z" fill="#D87D07"/>
<path fill-rule="evenodd" clip-rule="evenodd" d="M772.18 218.39C773.33 218.09 774.51 218.79 774.81 219.94C775.11 221.09 774.41 222.27 773.26 222.57C772.11 222.87 770.93 222.17 770.63 221.02C770.33 219.86 771.02 218.68 772.18 218.39Z" fill="#D87D07"/>
<path fill-rule="evenodd" clip-rule="evenodd" d="M766.64 226.09C767.79 225.79 768.97 226.49 769.27 227.64C769.57 228.79 768.87 229.97 767.72 230.27C766.57 230.57 765.389 229.87 765.089 228.72C764.789 227.56 765.49 226.38 766.64 226.09Z" fill="#D87D07"/>
<path fill-rule="evenodd" clip-rule="evenodd" d="M784.98 199.6C784.97 199.42 785.1 199.27 785.28 199.26C785.46 199.25 785.61 199.38 785.62 199.56C785.62 199.61 786.94 218.5 776.06 229.29C775.93 229.41 775.73 229.41 775.61 229.29C775.49 229.17 775.49 228.97 775.61 228.84C786.28 218.26 784.98 199.65 784.98 199.6Z" fill="#D87D07"/>
<path fill-rule="evenodd" clip-rule="evenodd" d="M784.12 207.97C785.25 207.6 786.47 208.21 786.84 209.35C787.21 210.48 786.59 211.7 785.46 212.07C784.33 212.44 783.11 211.83 782.74 210.69C782.37 209.55 782.99 208.34 784.12 207.97Z" fill="#D87D07"/>
<path fill-rule="evenodd" clip-rule="evenodd" d="M781.15 217.94C782.28 217.57 783.5 218.18 783.87 219.32C784.24 220.45 783.62 221.67 782.49 222.04C781.36 222.41 780.14 221.8 779.77 220.66C779.4 219.53 780.01 218.32 781.15 217.94Z" fill="#D87D07"/>
<path fill-rule="evenodd" clip-rule="evenodd" d="M776.12 225.99C777.25 225.62 778.469 226.23 778.839 227.37C779.209 228.5 778.599 229.72 777.459 230.09C776.329 230.46 775.11 229.85 774.74 228.71C774.38 227.58 774.99 226.36 776.12 225.99Z" fill="#D87D07"/>
<path fill-rule="evenodd" clip-rule="evenodd" d="M793.07 202.01C793.04 201.84 793.16 201.67 793.33 201.65C793.5 201.62 793.67 201.74 793.69 201.92C793.7 201.96 796.3 217.63 786.13 229.09C786.01 229.22 785.81 229.23 785.68 229.12C785.55 229 785.54 228.8 785.65 228.67C795.63 217.43 793.08 202.05 793.07 202.01Z" fill="#D87D07"/>
<path fill-rule="evenodd" clip-rule="evenodd" d="M792.82 207.29C793.93 206.85 795.18 207.38 795.62 208.49C796.06 209.6 795.53 210.85 794.42 211.29C793.31 211.73 792.06 211.2 791.62 210.09C791.18 208.98 791.71 207.73 792.82 207.29Z" fill="#D87D07"/>
<path fill-rule="evenodd" clip-rule="evenodd" d="M790.49 217.43C791.59 216.99 792.85 217.52 793.29 218.63C793.73 219.74 793.2 220.99 792.09 221.43C790.98 221.87 789.73 221.34 789.29 220.23C788.85 219.13 789.38 217.88 790.49 217.43Z" fill="#D87D07"/>
<path fill-rule="evenodd" clip-rule="evenodd" d="M785.989 225.79C787.089 225.35 788.35 225.88 788.79 226.99C789.23 228.09 788.699 229.35 787.589 229.79C786.479 230.23 785.23 229.7 784.79 228.59C784.35 227.48 784.889 226.23 785.989 225.79Z" fill="#D87D07"/>
<path fill-rule="evenodd" clip-rule="evenodd" d="M765.6 125.57C765.6 125.57 762.43 143.72 748.19 152.8C771.12 152.8 794.06 152.8 816.99 152.8C802.75 143.72 799.58 125.57 799.58 125.57C787.86 125.29 777.32 125.29 765.6 125.57Z" fill="#C02817"/>
<path fill-rule="evenodd" clip-rule="evenodd" d="M753.09 148.96C751.62 150.35 750 151.65 748.19 152.8H754.18C753.82 151.56 753.46 150.28 753.09 148.96Z" fill="#C02817"/>
<path fill-rule="evenodd" clip-rule="evenodd" d="M748.22 152.63L816.96 152.55L803.01 199.38L762.22 199.45L748.22 152.63Z" fill="#C02817"/>
<path fill-rule="evenodd" clip-rule="evenodd" d="M748.22 152.63L754.13 152.62C763.74 186.41 767.93 193.55 805.36 191.49L803.01 199.37L762.22 199.45L748.22 152.63Z" fill="#A52414"/>
<path fill-rule="evenodd" clip-rule="evenodd" d="M775.26 125.64C775.26 125.64 774.38 145.24 770.01 152.67C778.39 152.67 786.78 152.67 795.16 152.67C790.78 145.24 789.91 125.64 789.91 125.64C784.22 125.33 780.95 125.33 775.26 125.64Z" fill="#C02817"/>
<path fill-rule="evenodd" clip-rule="evenodd" d="M775.71 126.09C775.56 128.88 774.54 144.93 770.8 152.21H794.38C790.64 144.93 789.62 128.88 789.47 126.09C786.84 125.95 784.72 125.88 782.59 125.88C780.45 125.87 778.33 125.95 775.71 126.09ZM769.61 152.43C773.87 145.2 774.78 126.17 774.8 125.63C774.8 125.39 775 125.19 775.24 125.17C778.11 125.01 780.35 124.93 782.59 124.93C784.82 124.93 787.07 125.01 789.94 125.17C790.18 125.18 790.37 125.37 790.38 125.61C790.38 125.67 791.25 145.06 795.56 152.4C795.61 152.47 795.64 152.56 795.64 152.66C795.64 152.92 795.43 153.13 795.17 153.13H770.02C769.94 153.13 769.86 153.11 769.78 153.07C769.55 152.94 769.48 152.65 769.61 152.43Z" fill="#881E0E"/>
<path fill-rule="evenodd" clip-rule="evenodd" d="M769.93 152.75L795.24 152.71L791.77 202L773.52 202.04L769.93 152.75Z" fill="#C02817"/>
<path fill-rule="evenodd" clip-rule="evenodd" d="M792.49 191.8L791.77 202.01L773.53 202.05L772.48 187.7C777.29 190.41 783.61 191.62 792.49 191.8Z" fill="#A52414"/>
<path fill-rule="evenodd" clip-rule="evenodd" d="M769.96 152.28L795.23 152.24C795.49 152.24 795.7 152.45 795.7 152.71V152.74L792.23 202.03C792.21 202.29 791.99 202.48 791.73 202.47L773.52 202.51C773.27 202.51 773.07 202.32 773.05 202.08L769.46 152.79C769.44 152.53 769.64 152.31 769.89 152.29C769.92 152.28 769.94 152.28 769.96 152.28ZM794.74 153.18L770.44 153.22L773.96 201.58L791.33 201.54L794.74 153.18Z" fill="#881E0E"/>
<path fill-rule="evenodd" clip-rule="evenodd" d="M766.7 121.19H798.48C799.99 121.19 801.22 122.42 801.22 123.93C801.22 125.44 799.99 126.67 798.48 126.67H766.7C765.19 126.67 763.96 125.44 763.96 123.93C763.96 122.43 765.19 121.19 766.7 121.19Z" fill="#E6AF33"/>
<path fill-rule="evenodd" clip-rule="evenodd" d="M747.94 153.38C747.68 153.38 747.47 153.17 747.47 152.92C747.47 152.67 747.68 152.46 747.93 152.46L816.71 151.99C816.97 151.99 817.18 152.19 817.18 152.45C817.18 152.7 816.97 152.91 816.72 152.91L747.94 153.38Z" fill="#881E0E"/>
<path fill-rule="evenodd" clip-rule="evenodd" d="M761.71 199.28H803.46C804.67 199.28 805.66 200.27 805.66 201.48V201.85C805.66 203.06 804.67 204.05 803.46 204.05H761.71C760.5 204.05 759.51 203.06 759.51 201.85V201.48C759.52 200.27 760.5 199.28 761.71 199.28Z" fill="#E6AF33"/>
<path fill-rule="evenodd" clip-rule="evenodd" d="M771.46 149.27C769.48 151.11 767.79 152.61 766.38 153.85C762.98 156.85 761.27 158.35 761.27 159.62C761.26 160.89 762.95 162.38 766.33 165.36C767.73 166.6 769.41 168.08 771.38 169.92C773.35 171.76 774.94 173.32 776.26 174.63C779.47 177.8 781.08 179.39 782.5 179.38C783.93 179.38 785.55 177.78 788.79 174.6C790.13 173.28 791.73 171.71 793.71 169.86C795.69 168.02 797.38 166.53 798.79 165.28C802.2 162.28 803.9 160.78 803.9 159.51C803.91 158.24 802.22 156.75 798.84 153.77C797.44 152.53 795.76 151.05 793.79 149.21C791.82 147.37 790.23 145.81 788.91 144.5C785.7 141.33 784.09 139.74 782.67 139.75C781.24 139.75 779.62 141.35 776.38 144.54C775.05 145.85 773.44 147.43 771.46 149.27ZM765.58 152.88C766.99 151.64 768.68 150.15 770.64 148.32C772.6 146.49 774.2 144.92 775.53 143.61C779.01 140.19 780.75 138.48 782.66 138.47C784.58 138.46 786.31 140.17 789.77 143.58C791.09 144.89 792.68 146.45 794.63 148.27C796.57 150.08 798.25 151.57 799.65 152.8C803.32 156.04 805.15 157.66 805.14 159.51C805.13 161.36 803.29 162.99 799.6 166.24C798.19 167.48 796.5 168.97 794.54 170.8C792.58 172.63 790.98 174.2 789.65 175.51C786.17 178.93 784.43 180.64 782.51 180.65C780.59 180.66 778.86 178.95 775.4 175.54C774.08 174.23 772.49 172.67 770.54 170.85C768.6 169.04 766.92 167.55 765.52 166.32C761.85 163.08 760.02 161.46 760.03 159.61C760.04 157.76 761.89 156.14 765.58 152.88Z" fill="#E6AF33"/>
<path fill-rule="evenodd" clip-rule="evenodd" d="M773.05 150.67C761.6 161.34 761.61 157.9 772.98 168.52C784.35 179.13 780.67 179.14 792.12 168.47C803.57 157.8 803.56 161.24 792.19 150.62C780.82 140.01 784.5 140 773.05 150.67Z" fill="#E6AF33"/>
<path fill-rule="evenodd" clip-rule="evenodd" d="M778.21 154.51C777.89 154.51 777.63 154.25 777.63 153.92C777.63 153.6 777.89 153.34 778.21 153.34H787.12C787.44 153.34 787.7 153.6 787.7 153.92C787.7 154.24 787.44 154.51 787.12 154.51H778.21Z" fill="#731602"/>
<path fill-rule="evenodd" clip-rule="evenodd" d="M779.54 156.78C779.22 156.78 778.96 156.52 778.96 156.2C778.96 155.88 779.22 155.62 779.54 155.62H785.79C786.11 155.62 786.37 155.88 786.37 156.2C786.37 156.52 786.11 156.78 785.79 156.78H779.54Z" fill="#731602"/>
<path fill-rule="evenodd" clip-rule="evenodd" d="M776.25 160.76C775.93 160.76 775.67 160.5 775.67 160.18C775.67 159.86 775.93 159.6 776.25 159.6H789.06C789.38 159.6 789.64 159.86 789.64 160.18C789.64 160.5 789.38 160.76 789.06 160.76H776.25Z" fill="#731602"/>
<path fill-rule="evenodd" clip-rule="evenodd" d="M782.08 151.88C782.09 151.56 782.35 151.3 782.68 151.31C783 151.32 783.26 151.58 783.25 151.91C783.17 154.97 782.39 157.18 781.12 158.99C779.87 160.78 778.16 162.15 776.2 163.55C775.94 163.74 775.57 163.68 775.39 163.41C775.2 163.15 775.26 162.78 775.53 162.6C777.4 161.26 779.02 159.97 780.17 158.33C781.3 156.69 782.01 154.68 782.08 151.88Z" fill="#731602"/>
<path fill-rule="evenodd" clip-rule="evenodd" d="M782.88 156.45C782.77 156.15 782.92 155.81 783.23 155.7C783.53 155.59 783.87 155.74 783.98 156.05C784.5 157.48 785.29 158.63 786.27 159.66C787.27 160.71 788.47 161.64 789.81 162.6C790.07 162.79 790.13 163.15 789.95 163.41C789.76 163.67 789.4 163.73 789.14 163.55C787.75 162.56 786.5 161.59 785.43 160.47C784.33 159.32 783.46 158.04 782.88 156.45Z" fill="#731602"/>
<path fill-rule="evenodd" clip-rule="evenodd" d="M779.61 161.39H785.71C786.03 161.39 786.29 161.65 786.29 161.97V167.2C786.29 167.52 786.03 167.79 785.71 167.79H779.61C779.29 167.79 779.03 167.53 779.03 167.2V161.97C779.03 161.65 779.29 161.39 779.61 161.39ZM785.13 162.56H780.2V166.63H785.13V162.56Z" fill="#731602"/>
<path fill-rule="evenodd" clip-rule="evenodd" d="M779.93 165.18C779.61 165.18 779.35 164.92 779.35 164.6C779.35 164.28 779.61 164.02 779.93 164.02H785.4C785.72 164.02 785.98 164.28 785.98 164.6C785.98 164.92 785.72 165.18 785.4 165.18H779.93Z" fill="#731602"/>
<path fill-rule="evenodd" clip-rule="evenodd" d="M594.49 -259.16C594.49 -259.62 594.87 -260 595.33 -260C595.79 -260 596.17 -259.62 596.17 -259.16V58.21C596.17 58.68 595.79 59.05 595.33 59.05C594.86 59.05 594.49 58.67 594.49 58.21V-259.16Z" fill="#731602"/>
<path fill-rule="evenodd" clip-rule="evenodd" d="M584.1 127.03C584.14 126.86 584.31 126.75 584.48 126.79C584.65 126.83 584.76 127 584.72 127.17L584.52 128.04C582.87 135.3 579.96 148.03 567.17 155.29C567.02 155.38 566.82 155.32 566.74 155.17C566.65 155.02 566.71 154.82 566.86 154.74C579.41 147.62 582.27 135.06 583.9 127.9L584.1 127.03Z" fill="#D87D07"/>
<path fill-rule="evenodd" clip-rule="evenodd" d="M580.53 136.82C581.72 136.76 582.73 137.67 582.8 138.86C582.86 140.05 581.95 141.06 580.76 141.13C579.57 141.19 578.56 140.28 578.49 139.09C578.43 137.9 579.35 136.89 580.53 136.82Z" fill="#D87D07"/>
<path fill-rule="evenodd" clip-rule="evenodd" d="M575.05 145.67C576.24 145.61 577.25 146.52 577.32 147.71C577.38 148.9 576.47 149.92 575.28 149.98C574.09 150.04 573.08 149.13 573.01 147.94C572.95 146.75 573.86 145.74 575.05 145.67Z" fill="#D87D07"/>
<path fill-rule="evenodd" clip-rule="evenodd" d="M568.1 152.13C569.29 152.07 570.3 152.98 570.37 154.17C570.43 155.36 569.52 156.37 568.33 156.44C567.14 156.5 566.13 155.59 566.06 154.4C566 153.2 566.91 152.19 568.1 152.13Z" fill="#D87D07"/>
<path fill-rule="evenodd" clip-rule="evenodd" d="M589.8 126.35C589.8 126.17 589.94 126.03 590.12 126.03C590.3 126.03 590.44 126.17 590.44 126.35C590.44 126.41 590.45 147.26 578.89 157.3C578.76 157.42 578.56 157.4 578.44 157.27C578.33 157.14 578.34 156.94 578.47 156.82C589.81 146.96 589.8 126.41 589.8 126.35Z" fill="#D87D07"/>
<path fill-rule="evenodd" clip-rule="evenodd" d="M588.33 136.55C589.48 136.25 590.66 136.95 590.96 138.1C591.26 139.25 590.56 140.43 589.41 140.73C588.26 141.03 587.08 140.33 586.78 139.18C586.48 138.03 587.17 136.85 588.33 136.55Z" fill="#D87D07"/>
<path fill-rule="evenodd" clip-rule="evenodd" d="M584.71 146.32C585.86 146.02 587.04 146.72 587.34 147.87C587.64 149.02 586.94 150.2 585.79 150.5C584.64 150.8 583.46 150.1 583.16 148.95C582.86 147.79 583.55 146.61 584.71 146.32Z" fill="#D87D07"/>
<path fill-rule="evenodd" clip-rule="evenodd" d="M579.17 154.02C580.32 153.72 581.5 154.42 581.8 155.57C582.1 156.72 581.4 157.9 580.25 158.2C579.1 158.5 577.92 157.8 577.62 156.65C577.32 155.49 578.02 154.31 579.17 154.02Z" fill="#D87D07"/>
<path fill-rule="evenodd" clip-rule="evenodd" d="M597.51 127.53C597.5 127.35 597.63 127.2 597.81 127.19C597.99 127.18 598.14 127.31 598.15 127.49C598.15 127.54 599.47 146.43 588.59 157.22C588.46 157.34 588.26 157.34 588.14 157.22C588.02 157.1 588.02 156.9 588.14 156.77C598.81 146.19 597.51 127.58 597.51 127.53Z" fill="#D87D07"/>
<path fill-rule="evenodd" clip-rule="evenodd" d="M596.65 135.9C597.78 135.53 599 136.14 599.37 137.28C599.74 138.41 599.12 139.63 597.99 140C596.86 140.37 595.64 139.76 595.27 138.62C594.9 137.48 595.52 136.27 596.65 135.9Z" fill="#D87D07"/>
<path fill-rule="evenodd" clip-rule="evenodd" d="M593.68 145.87C594.81 145.5 596.03 146.11 596.4 147.25C596.77 148.38 596.15 149.6 595.02 149.97C593.89 150.34 592.67 149.73 592.3 148.59C591.93 147.46 592.54 146.25 593.68 145.87Z" fill="#D87D07"/>
<path fill-rule="evenodd" clip-rule="evenodd" d="M588.65 153.92C589.78 153.55 591 154.16 591.37 155.3C591.74 156.43 591.13 157.65 589.99 158.02C588.86 158.39 587.64 157.78 587.27 156.64C586.91 155.51 587.52 154.29 588.65 153.92Z" fill="#D87D07"/>
<path fill-rule="evenodd" clip-rule="evenodd" d="M605.6 129.94C605.57 129.77 605.69 129.6 605.86 129.58C606.03 129.55 606.2 129.67 606.22 129.85C606.23 129.89 608.83 145.56 598.66 157.02C598.54 157.15 598.34 157.16 598.21 157.05C598.08 156.93 598.07 156.73 598.18 156.6C608.16 145.36 605.61 129.98 605.6 129.94Z" fill="#D87D07"/>
<path fill-rule="evenodd" clip-rule="evenodd" d="M605.35 135.22C606.46 134.78 607.71 135.31 608.15 136.42C608.59 137.53 608.06 138.78 606.95 139.22C605.84 139.66 604.59 139.13 604.15 138.02C603.71 136.91 604.24 135.66 605.35 135.22Z" fill="#D87D07"/>
<path fill-rule="evenodd" clip-rule="evenodd" d="M603.02 145.36C604.12 144.92 605.38 145.45 605.82 146.56C606.26 147.67 605.73 148.92 604.62 149.36C603.51 149.8 602.26 149.27 601.82 148.16C601.38 147.06 601.91 145.81 603.02 145.36Z" fill="#D87D07"/>
<path fill-rule="evenodd" clip-rule="evenodd" d="M598.52 153.72C599.62 153.28 600.88 153.81 601.32 154.92C601.76 156.02 601.23 157.28 600.12 157.72C599.01 158.16 597.76 157.63 597.32 156.52C596.88 155.41 597.42 154.16 598.52 153.72Z" fill="#D87D07"/>
<path fill-rule="evenodd" clip-rule="evenodd" d="M578.13 53.5C578.13 53.5 574.96 71.65 560.72 80.73C583.65 80.73 606.59 80.73 629.52 80.73C615.28 71.65 612.11 53.5 612.11 53.5C600.39 53.22 589.85 53.22 578.13 53.5Z" fill="#C02817"/>
<path fill-rule="evenodd" clip-rule="evenodd" d="M565.62 76.89C564.15 78.28 562.53 79.58 560.72 80.73H566.71C566.35 79.49 565.99 78.21 565.62 76.89Z" fill="#C02817"/>
<path fill-rule="evenodd" clip-rule="evenodd" d="M560.75 80.56L629.49 80.48L615.54 127.31L574.75 127.38L560.75 80.56Z" fill="#C02817"/>
<path fill-rule="evenodd" clip-rule="evenodd" d="M560.75 80.56L566.66 80.55C576.27 114.34 580.46 121.48 617.89 119.42L615.54 127.3L574.75 127.38L560.75 80.56Z" fill="#A52414"/>
<path fill-rule="evenodd" clip-rule="evenodd" d="M587.79 53.57C587.79 53.57 586.91 73.17 582.54 80.6C590.92 80.6 599.31 80.6 607.69 80.6C603.31 73.17 602.44 53.57 602.44 53.57C596.75 53.26 593.48 53.26 587.79 53.57Z" fill="#C02817"/>
<path fill-rule="evenodd" clip-rule="evenodd" d="M588.24 54.02C588.09 56.81 587.07 72.86 583.33 80.14H606.91C603.17 72.86 602.15 56.81 602 54.02C599.37 53.88 597.25 53.81 595.12 53.81C592.98 53.8 590.86 53.88 588.24 54.02ZM582.14 80.36C586.4 73.13 587.31 54.1 587.33 53.56C587.33 53.32 587.53 53.12 587.77 53.1C590.64 52.94 592.88 52.86 595.12 52.86C597.35 52.86 599.6 52.94 602.47 53.1C602.71 53.11 602.9 53.3 602.91 53.54C602.91 53.6 603.78 72.99 608.09 80.33C608.14 80.4 608.17 80.49 608.17 80.59C608.17 80.85 607.96 81.06 607.7 81.06H582.55C582.47 81.06 582.39 81.04 582.31 81C582.08 80.87 582.01 80.58 582.14 80.36Z" fill="#881E0E"/>
<path fill-rule="evenodd" clip-rule="evenodd" d="M582.46 80.68L607.77 80.64L604.3 129.93L586.05 129.97L582.46 80.68Z" fill="#C02817"/>
<path fill-rule="evenodd" clip-rule="evenodd" d="M605.02 119.73L604.3 129.94L586.06 129.98L585.01 115.63C589.82 118.34 596.14 119.55 605.02 119.73Z" fill="#A52414"/>
<path fill-rule="evenodd" clip-rule="evenodd" d="M582.49 80.21L607.76 80.17C608.02 80.17 608.23 80.38 608.23 80.64V80.67L604.76 129.96C604.74 130.22 604.52 130.41 604.26 130.4L586.05 130.44C585.8 130.44 585.6 130.25 585.58 130.01L581.99 80.72C581.97 80.46 582.17 80.24 582.42 80.22C582.45 80.21 582.47 80.21 582.49 80.21ZM607.27 81.11L582.97 81.15L586.49 129.51L603.86 129.47L607.27 81.11Z" fill="#881E0E"/>
<path fill-rule="evenodd" clip-rule="evenodd" d="M579.23 49.12H611.01C612.52 49.12 613.75 50.35 613.75 51.86C613.75 53.37 612.52 54.6 611.01 54.6H579.23C577.72 54.6 576.49 53.37 576.49 51.86C576.49 50.36 577.72 49.12 579.23 49.12Z" fill="#E6AF33"/>
<path fill-rule="evenodd" clip-rule="evenodd" d="M560.47 81.31C560.21 81.31 560 81.1 560 80.85C560 80.6 560.21 80.39 560.46 80.39L629.24 79.92C629.5 79.92 629.71 80.12 629.71 80.38C629.71 80.63 629.5 80.84 629.25 80.84L560.47 81.31Z" fill="#881E0E"/>
<path fill-rule="evenodd" clip-rule="evenodd" d="M574.24 127.21H615.99C617.2 127.21 618.19 128.2 618.19 129.41V129.78C618.19 130.99 617.2 131.98 615.99 131.98H574.24C573.03 131.98 572.04 130.99 572.04 129.78V129.41C572.05 128.2 573.03 127.21 574.24 127.21Z" fill="#E6AF33"/>
<path fill-rule="evenodd" clip-rule="evenodd" d="M583.99 77.2C582.01 79.04 580.32 80.54 578.91 81.78C575.51 84.78 573.8 86.28 573.8 87.55C573.79 88.82 575.48 90.31 578.86 93.29C580.26 94.53 581.94 96.01 583.91 97.85C585.88 99.69 587.47 101.25 588.79 102.56C592 105.73 593.61 107.32 595.03 107.31C596.46 107.31 598.08 105.71 601.32 102.53C602.66 101.21 604.26 99.64 606.24 97.79C608.22 95.95 609.91 94.46 611.32 93.21C614.73 90.21 616.43 88.71 616.43 87.44C616.44 86.17 614.75 84.68 611.37 81.7C609.97 80.46 608.29 78.98 606.32 77.14C604.35 75.3 602.76 73.74 601.44 72.43C598.23 69.26 596.62 67.67 595.2 67.68C593.77 67.68 592.15 69.28 588.91 72.47C587.58 73.78 585.97 75.36 583.99 77.2ZM578.11 80.81C579.52 79.57 581.21 78.08 583.17 76.25C585.13 74.42 586.73 72.85 588.06 71.54C591.54 68.12 593.28 66.41 595.19 66.4C597.11 66.39 598.84 68.1 602.3 71.51C603.62 72.82 605.21 74.38 607.16 76.2C609.1 78.01 610.78 79.5 612.18 80.73C615.85 83.97 617.68 85.59 617.67 87.44C617.66 89.29 615.82 90.92 612.13 94.17C610.72 95.41 609.03 96.9 607.07 98.73C605.11 100.56 603.51 102.13 602.18 103.44C598.7 106.86 596.96 108.57 595.04 108.58C593.12 108.59 591.39 106.88 587.93 103.47C586.61 102.16 585.02 100.6 583.07 98.78C581.13 96.97 579.45 95.48 578.05 94.25C574.38 91.01 572.55 89.39 572.56 87.54C572.57 85.69 574.42 84.07 578.11 80.81Z" fill="#E6AF33"/>
<path fill-rule="evenodd" clip-rule="evenodd" d="M585.58 78.6C574.13 89.27 574.14 85.83 585.51 96.45C596.88 107.06 593.2 107.07 604.65 96.4C616.1 85.73 616.09 89.17 604.72 78.55C593.35 67.94 597.03 67.93 585.58 78.6Z" fill="#E6AF33"/>
<path fill-rule="evenodd" clip-rule="evenodd" d="M590.74 82.44C590.42 82.44 590.16 82.18 590.16 81.85C590.16 81.53 590.42 81.27 590.74 81.27H599.65C599.97 81.27 600.23 81.53 600.23 81.85C600.23 82.17 599.97 82.44 599.65 82.44H590.74Z" fill="#731602"/>
<path fill-rule="evenodd" clip-rule="evenodd" d="M592.07 84.71C591.75 84.71 591.49 84.45 591.49 84.13C591.49 83.81 591.75 83.55 592.07 83.55H598.32C598.64 83.55 598.9 83.81 598.9 84.13C598.9 84.45 598.64 84.71 598.32 84.71H592.07Z" fill="#731602"/>
<path fill-rule="evenodd" clip-rule="evenodd" d="M588.78 88.69C588.46 88.69 588.2 88.43 588.2 88.11C588.2 87.79 588.46 87.53 588.78 87.53H601.59C601.91 87.53 602.17 87.79 602.17 88.11C602.17 88.43 601.91 88.69 601.59 88.69H588.78Z" fill="#731602"/>
<path fill-rule="evenodd" clip-rule="evenodd" d="M594.61 79.81C594.62 79.49 594.88 79.23 595.21 79.24C595.53 79.25 595.79 79.51 595.78 79.84C595.7 82.9 594.92 85.11 593.65 86.92C592.4 88.71 590.69 90.08 588.73 91.48C588.47 91.67 588.1 91.61 587.92 91.34C587.73 91.08 587.79 90.71 588.06 90.53C589.93 89.19 591.55 87.9 592.7 86.26C593.83 84.62 594.54 82.61 594.61 79.81Z" fill="#731602"/>
<path fill-rule="evenodd" clip-rule="evenodd" d="M595.41 84.38C595.3 84.08 595.45 83.74 595.76 83.63C596.06 83.52 596.4 83.67 596.51 83.98C597.03 85.41 597.82 86.56 598.8 87.59C599.8 88.64 601 89.57 602.34 90.53C602.6 90.72 602.66 91.08 602.48 91.34C602.29 91.6 601.93 91.66 601.67 91.48C600.28 90.49 599.03 89.52 597.96 88.4C596.86 87.25 595.99 85.97 595.41 84.38Z" fill="#731602"/>
<path fill-rule="evenodd" clip-rule="evenodd" d="M592.14 89.32H598.24C598.56 89.32 598.82 89.58 598.82 89.9V95.13C598.82 95.45 598.56 95.72 598.24 95.72H592.14C591.82 95.72 591.56 95.46 591.56 95.13V89.9C591.56 89.58 591.82 89.32 592.14 89.32ZM597.66 90.49H592.73V94.56H597.66V90.49Z" fill="#731602"/>
<path fill-rule="evenodd" clip-rule="evenodd" d="M592.46 93.11C592.14 93.11 591.88 92.85 591.88 92.53C591.88 92.21 592.14 91.95 592.46 91.95H597.93C598.25 91.95 598.51 92.21 598.51 92.53C598.51 92.85 598.25 93.11 597.93 93.11H592.46Z" fill="#731602"/>
<path fill-rule="evenodd" clip-rule="evenodd" d="M948.19 218.69L955.58 243.93C955.49 244.09 955.39 244.21 955.28 244.25C954.76 244.43 953.91 243.06 953.4 243.24C952.88 243.43 952.7 245.17 952.18 245.35C951.66 245.53 950.81 244.16 950.3 244.34C949.78 244.53 949.6 246.27 949.08 246.45C948.56 246.63 947.71 245.26 947.2 245.44C946.68 245.62 946.5 247.37 945.98 247.55C945.53 247.71 944.82 246.68 944.31 246.54C943.79 246.68 943.09 247.71 942.64 247.55C942.12 247.37 941.94 245.62 941.42 245.44C940.9 245.26 940.05 246.63 939.54 246.45C939.02 246.26 938.84 244.52 938.32 244.34C937.8 244.16 936.95 245.53 936.44 245.35C935.92 245.17 935.74 243.42 935.22 243.24C934.7 243.06 933.85 244.43 933.34 244.25C933.22 244.21 933.13 244.09 933.04 243.93L940.43 218.69C945.56 209.82 943.04 209.82 948.19 218.69Z" fill="#E6AF33"/>
<path fill-rule="evenodd" clip-rule="evenodd" d="M943.56 -11.33C943.56 -11.74 943.89 -12.07 944.3 -12.07C944.71 -12.07 945.04 -11.74 945.04 -11.33V217.31C945.04 217.72 944.71 218.05 944.3 218.05C943.89 218.05 943.56 217.72 943.56 217.31V-11.33Z" fill="#731602"/>
<path fill-rule="evenodd" clip-rule="evenodd" d="M944.3 187.56C959.58 187.56 972.03 175.1 972.03 159.83C972.03 144.55 959.57 132.1 944.3 132.1C929.03 132.1 916.57 144.56 916.57 159.83C916.57 175.11 929.03 187.56 944.3 187.56Z" fill="#E6AF33"/>
<path fill-rule="evenodd" clip-rule="evenodd" d="M944.3 182.23C956.64 182.23 966.7 172.17 966.7 159.83C966.7 147.49 956.64 137.43 944.3 137.43C931.96 137.43 921.9 147.49 921.9 159.83C921.9 172.17 931.97 182.23 944.3 182.23Z" fill="#C02817"/>
<path d="M944.268 145.273L929.737 159.804L944.268 174.335L958.799 159.804L944.268 145.273Z" fill="#E6AF33"/>
<path fill-rule="evenodd" clip-rule="evenodd" d="M944.3 151.21L948.61 155.52L952.93 159.83L948.61 164.14L944.3 168.45L939.99 164.14L935.68 159.83L939.99 155.52L944.3 151.21Z" fill="#731602"/>
<path fill-rule="evenodd" clip-rule="evenodd" d="M944.34 121.49C946.69 121.49 948.61 119.57 948.61 117.22C948.61 114.87 946.69 112.95 944.34 112.95C941.99 112.95 940.07 114.87 940.07 117.22C940.07 119.57 941.99 121.49 944.34 121.49Z" fill="#D87D07"/>
<path fill-rule="evenodd" clip-rule="evenodd" d="M944.34 201.24C946.69 201.24 948.61 199.32 948.61 196.97C948.61 194.62 946.69 192.7 944.34 192.7C941.99 192.7 940.07 194.62 940.07 196.97C940.07 199.32 941.99 201.24 944.34 201.24Z" fill="#D87D07"/>
<path fill-rule="evenodd" clip-rule="evenodd" d="M944 210.83H944.6C946.75 210.83 948.51 212.59 948.51 214.74V218.65H940.09V214.74C940.09 212.59 941.85 210.83 944 210.83Z" fill="#A81E1E"/>
<path fill-rule="evenodd" clip-rule="evenodd" d="M943.97 219.75C943.97 219.61 944.07 219.5 944.21 219.5C944.35 219.5 944.46 219.6 944.46 219.74C944.87 233.97 944.47 243.63 944.47 243.66C944.47 243.8 944.35 243.9 944.21 243.9C944.07 243.9 943.97 243.78 943.97 243.64C943.98 243.61 944.38 233.96 943.97 219.75Z" fill="#AE7717"/>
<path fill-rule="evenodd" clip-rule="evenodd" d="M942.37 219.73C942.37 219.59 942.48 219.48 942.62 219.48C942.76 219.48 942.87 219.59 942.87 219.73C942.79 232.67 941.03 243.66 941.03 243.69C941.01 243.82 940.88 243.92 940.75 243.9C940.62 243.88 940.52 243.75 940.54 243.62C940.54 243.58 942.29 232.63 942.37 219.73Z" fill="#AE7717"/>
<path fill-rule="evenodd" clip-rule="evenodd" d="M941.03 219.59C941.04 219.45 941.16 219.35 941.29 219.36C941.43 219.37 941.53 219.49 941.52 219.62C940.71 232 937.41 242.07 937.4 242.1C937.36 242.23 937.22 242.3 937.09 242.26C936.96 242.22 936.89 242.08 936.93 241.95C936.94 241.92 940.22 231.9 941.03 219.59Z" fill="#AE7717"/>
<path fill-rule="evenodd" clip-rule="evenodd" d="M945.46 220.13C945.45 219.99 945.56 219.88 945.7 219.87C945.84 219.86 945.95 219.97 945.96 220.1C946.57 232.74 947.27 243.59 947.27 243.63C947.28 243.77 947.18 243.88 947.04 243.89C946.9 243.9 946.79 243.8 946.78 243.66C946.77 243.64 946.07 232.8 945.46 220.13Z" fill="#AE7717"/>
<path fill-rule="evenodd" clip-rule="evenodd" d="M946.93 219.62C946.92 219.48 947.03 219.37 947.16 219.36C947.3 219.35 947.41 219.45 947.42 219.59C948.23 231.92 950.86 241.94 950.86 241.97C950.89 242.1 950.81 242.24 950.68 242.27C950.55 242.3 950.41 242.23 950.38 242.09C950.38 242.06 947.75 231.99 946.93 219.62Z" fill="#AE7717"/>
<path fill-rule="evenodd" clip-rule="evenodd" d="M944.3 134.73C951.23 134.73 957.5 137.54 962.05 142.08C966.59 146.62 969.4 152.9 969.4 159.83C969.4 166.76 966.59 173.03 962.05 177.58C957.51 182.12 951.23 184.93 944.3 184.93C937.37 184.93 931.1 182.12 926.55 177.58C922.01 173.04 919.2 166.76 919.2 159.83C919.2 152.9 922.01 146.62 926.55 142.08C931.1 137.54 937.37 134.73 944.3 134.73ZM961.35 142.78C956.99 138.42 950.96 135.72 944.3 135.72C937.64 135.72 931.62 138.42 927.25 142.78C922.89 147.14 920.19 153.17 920.19 159.83C920.19 166.49 922.89 172.51 927.25 176.87C931.61 181.23 937.64 183.93 944.3 183.93C950.96 183.93 956.98 181.23 961.35 176.87C965.71 172.51 968.41 166.48 968.41 159.82C968.41 153.17 965.71 147.15 961.35 142.78Z" fill="#D87D07"/>
<path fill-rule="evenodd" clip-rule="evenodd" d="M32.0299 178.84L39.4199 204.08C39.3299 204.24 39.2299 204.36 39.1199 204.4C38.5999 204.58 37.7499 203.21 37.2399 203.39C36.7199 203.58 36.5399 205.32 36.0199 205.5C35.4999 205.68 34.6499 204.31 34.1399 204.49C33.6199 204.68 33.4399 206.42 32.9199 206.6C32.3999 206.78 31.5499 205.41 31.0399 205.59C30.5199 205.77 30.3399 207.52 29.8199 207.7C29.3699 207.86 28.6599 206.83 28.1499 206.69C27.6299 206.83 26.9299 207.86 26.4799 207.7C25.9599 207.52 25.7799 205.77 25.2599 205.59C24.7399 205.41 23.8899 206.78 23.3799 206.6C22.8599 206.41 22.6799 204.67 22.1599 204.49C21.6399 204.31 20.7899 205.68 20.2799 205.5C19.7599 205.32 19.5799 203.57 19.0599 203.39C18.5399 203.21 17.6899 204.58 17.1799 204.4C17.0599 204.36 16.9699 204.24 16.8799 204.08L24.2699 178.84C29.3999 169.98 26.8799 169.98 32.0299 178.84Z" fill="#E6AF33"/>
<path fill-rule="evenodd" clip-rule="evenodd" d="M27.3999 -51.17C27.3999 -51.58 27.7299 -51.91 28.1399 -51.91C28.5499 -51.91 28.8799 -51.58 28.8799 -51.17V177.47C28.8799 177.88 28.5499 178.21 28.1399 178.21C27.7299 178.21 27.3999 177.88 27.3999 177.47V-51.17Z" fill="#731602"/>
<path fill-rule="evenodd" clip-rule="evenodd" d="M28.1399 147.72C43.4199 147.72 55.8699 135.26 55.8699 119.99C55.8699 104.71 43.4099 92.2599 28.1399 92.2599C12.8599 92.2599 0.409912 104.72 0.409912 119.99C0.409912 135.26 12.8599 147.72 28.1399 147.72Z" fill="#E6AF33"/>
<path fill-rule="evenodd" clip-rule="evenodd" d="M28.14 142.38C40.48 142.38 50.54 132.32 50.54 119.98C50.54 107.64 40.48 97.58 28.14 97.58C15.8 97.58 5.73999 107.64 5.73999 119.98C5.73999 132.32 15.8 142.38 28.14 142.38Z" fill="#C02817"/>
<path d="M28.1266 105.447L13.5957 119.977L28.1266 134.508L42.6575 119.977L28.1266 105.447Z" fill="#E6AF33"/>
<path fill-rule="evenodd" clip-rule="evenodd" d="M28.14 111.36L32.45 115.67L36.76 119.98L32.45 124.29L28.14 128.61L23.83 124.29L19.52 119.98L23.83 115.67L28.14 111.36Z" fill="#731602"/>
<path fill-rule="evenodd" clip-rule="evenodd" d="M28.1799 81.64C30.5299 81.64 32.4499 79.72 32.4499 77.37C32.4499 75.02 30.5299 73.1 28.1799 73.1C25.8299 73.1 23.9099 75.02 23.9099 77.37C23.9099 79.72 25.8299 81.64 28.1799 81.64Z" fill="#D87D07"/>
<path fill-rule="evenodd" clip-rule="evenodd" d="M28.1799 161.39C30.5299 161.39 32.4499 159.47 32.4499 157.12C32.4499 154.77 30.5299 152.85 28.1799 152.85C25.8299 152.85 23.9099 154.77 23.9099 157.12C23.9099 159.48 25.8299 161.39 28.1799 161.39Z" fill="#D87D07"/>
<path fill-rule="evenodd" clip-rule="evenodd" d="M27.8399 170.98H28.4399C30.5899 170.98 32.3499 172.74 32.3499 174.89V178.8H23.9299V174.89C23.9299 172.74 25.6899 170.98 27.8399 170.98Z" fill="#A81E1E"/>
<path fill-rule="evenodd" clip-rule="evenodd" d="M27.8101 179.91C27.8101 179.77 27.91 179.66 28.05 179.66C28.19 179.66 28.3 179.76 28.3 179.9C28.71 194.13 28.3101 203.79 28.3101 203.82C28.3101 203.96 28.19 204.06 28.05 204.06C27.91 204.06 27.8101 203.94 27.8101 203.8C27.8201 203.77 28.2201 194.11 27.8101 179.91Z" fill="#AE7717"/>
<path fill-rule="evenodd" clip-rule="evenodd" d="M26.21 179.88C26.21 179.74 26.32 179.63 26.46 179.63C26.6 179.63 26.71 179.74 26.71 179.88C26.63 192.82 24.87 203.81 24.87 203.84C24.85 203.97 24.72 204.07 24.59 204.05C24.46 204.03 24.36 203.9 24.38 203.77C24.38 203.73 26.13 192.78 26.21 179.88Z" fill="#AE7717"/>
<path fill-rule="evenodd" clip-rule="evenodd" d="M24.87 179.74C24.88 179.6 25 179.5 25.13 179.51C25.27 179.52 25.37 179.64 25.36 179.77C24.55 192.15 21.25 202.22 21.24 202.25C21.2 202.38 21.06 202.45 20.93 202.41C20.8 202.37 20.73 202.23 20.77 202.1C20.78 202.07 24.06 192.06 24.87 179.74Z" fill="#AE7717"/>
<path fill-rule="evenodd" clip-rule="evenodd" d="M29.2999 180.29C29.2899 180.15 29.4 180.04 29.53 180.03C29.67 180.02 29.7799 180.13 29.7899 180.26C30.3999 192.9 31.0999 203.75 31.0999 203.79C31.1099 203.93 31.01 204.04 30.87 204.05C30.73 204.06 30.6199 203.96 30.6099 203.82C30.6099 203.79 29.8999 192.95 29.2999 180.29Z" fill="#AE7717"/>
<path fill-rule="evenodd" clip-rule="evenodd" d="M30.77 179.77C30.76 179.63 30.86 179.52 31 179.51C31.14 179.5 31.25 179.6 31.26 179.74C32.07 192.07 34.7 202.09 34.7 202.12C34.73 202.25 34.65 202.39 34.52 202.42C34.39 202.45 34.25 202.38 34.22 202.24C34.22 202.21 31.58 192.14 30.77 179.77Z" fill="#AE7717"/>
<path fill-rule="evenodd" clip-rule="evenodd" d="M28.14 94.89C35.07 94.89 41.34 97.7 45.89 102.24C50.43 106.78 53.2401 113.06 53.2401 119.99C53.2401 126.92 50.43 133.19 45.89 137.74C41.35 142.28 35.07 145.09 28.14 145.09C21.21 145.09 14.94 142.28 10.39 137.74C5.85005 133.2 3.04004 126.92 3.04004 119.99C3.04004 113.06 5.85005 106.78 10.39 102.24C14.94 97.7 21.21 94.89 28.14 94.89ZM45.19 102.94C40.83 98.58 34.8 95.88 28.14 95.88C21.48 95.88 15.4601 98.58 11.0901 102.94C6.73006 107.3 4.03006 113.33 4.03006 119.99C4.03006 126.65 6.73006 132.67 11.0901 137.03C15.4501 141.39 21.48 144.09 28.14 144.09C34.8 144.09 40.82 141.39 45.19 137.03C49.55 132.67 52.25 126.64 52.25 119.98C52.25 113.33 49.55 107.3 45.19 102.94Z" fill="#D87D07"/>
<path fill-rule="evenodd" clip-rule="evenodd" d="M405.62 161.75L413.01 186.99C412.92 187.15 412.82 187.27 412.71 187.31C412.19 187.49 411.34 186.12 410.83 186.3C410.31 186.49 410.13 188.23 409.61 188.41C409.09 188.59 408.24 187.22 407.73 187.4C407.21 187.59 407.03 189.33 406.51 189.51C405.99 189.69 405.14 188.32 404.63 188.5C404.11 188.68 403.93 190.43 403.41 190.61C402.96 190.77 402.25 189.74 401.74 189.6C401.22 189.74 400.52 190.77 400.07 190.61C399.55 190.43 399.37 188.68 398.85 188.5C398.33 188.32 397.48 189.69 396.97 189.51C396.45 189.32 396.27 187.58 395.75 187.4C395.23 187.22 394.38 188.59 393.87 188.41C393.35 188.23 393.17 186.48 392.65 186.3C392.13 186.12 391.28 187.49 390.77 187.31C390.65 187.27 390.56 187.15 390.47 186.99L397.86 161.75C402.99 152.89 400.47 152.89 405.62 161.75Z" fill="#E6AF33"/>
<path fill-rule="evenodd" clip-rule="evenodd" d="M400.99 -68.26C400.99 -68.67 401.32 -69 401.73 -69C402.14 -69 402.47 -68.67 402.47 -68.26V160.38C402.47 160.79 402.14 161.12 401.73 161.12C401.32 161.12 400.99 160.79 400.99 160.38V-68.26Z" fill="#731602"/>
<path fill-rule="evenodd" clip-rule="evenodd" d="M401.73 130.63C417.01 130.63 429.46 118.17 429.46 102.9C429.46 87.62 417 75.17 401.73 75.17C386.45 75.17 374 87.63 374 102.9C374 118.17 386.45 130.63 401.73 130.63Z" fill="#E6AF33"/>
<path fill-rule="evenodd" clip-rule="evenodd" d="M401.73 125.29C414.07 125.29 424.13 115.23 424.13 102.89C424.13 90.55 414.07 80.49 401.73 80.49C389.39 80.49 379.33 90.55 379.33 102.89C379.33 115.23 389.39 125.29 401.73 125.29Z" fill="#C02817"/>
<path d="M401.717 88.3566L387.186 102.888L401.717 117.418L416.248 102.888L401.717 88.3566Z" fill="#E6AF33"/>
<path fill-rule="evenodd" clip-rule="evenodd" d="M401.73 94.27L406.04 98.58L410.35 102.89L406.04 107.2L401.73 111.52L397.42 107.2L393.11 102.89L397.42 98.58L401.73 94.27Z" fill="#731602"/>
<path fill-rule="evenodd" clip-rule="evenodd" d="M401.77 64.55C404.12 64.55 406.04 62.63 406.04 60.28C406.04 57.93 404.12 56.01 401.77 56.01C399.42 56.01 397.5 57.93 397.5 60.28C397.5 62.63 399.42 64.55 401.77 64.55Z" fill="#D87D07"/>
<path fill-rule="evenodd" clip-rule="evenodd" d="M401.77 144.3C404.12 144.3 406.04 142.38 406.04 140.03C406.04 137.68 404.12 135.76 401.77 135.76C399.42 135.76 397.5 137.68 397.5 140.03C397.5 142.39 399.42 144.3 401.77 144.3Z" fill="#D87D07"/>
<path fill-rule="evenodd" clip-rule="evenodd" d="M401.43 153.89H402.03C404.18 153.89 405.94 155.65 405.94 157.8V161.71H397.52V157.8C397.52 155.65 399.28 153.89 401.43 153.89Z" fill="#A81E1E"/>
<path fill-rule="evenodd" clip-rule="evenodd" d="M401.4 162.82C401.4 162.68 401.5 162.57 401.64 162.57C401.78 162.57 401.89 162.67 401.89 162.81C402.3 177.04 401.9 186.7 401.9 186.73C401.9 186.87 401.78 186.97 401.64 186.97C401.5 186.97 401.4 186.85 401.4 186.71C401.41 186.68 401.81 177.02 401.4 162.82Z" fill="#AE7717"/>
<path fill-rule="evenodd" clip-rule="evenodd" d="M399.8 162.79C399.8 162.65 399.91 162.54 400.05 162.54C400.19 162.54 400.3 162.65 400.3 162.79C400.22 175.73 398.46 186.72 398.46 186.75C398.44 186.88 398.31 186.98 398.18 186.96C398.05 186.94 397.95 186.81 397.97 186.68C397.97 186.64 399.72 175.69 399.8 162.79Z" fill="#AE7717"/>
<path fill-rule="evenodd" clip-rule="evenodd" d="M398.46 162.65C398.47 162.51 398.59 162.41 398.72 162.42C398.86 162.43 398.96 162.55 398.95 162.68C398.14 175.06 394.84 185.13 394.83 185.16C394.79 185.29 394.65 185.36 394.52 185.32C394.39 185.28 394.32 185.14 394.36 185.01C394.37 184.98 397.65 174.97 398.46 162.65Z" fill="#AE7717"/>
<path fill-rule="evenodd" clip-rule="evenodd" d="M402.89 163.2C402.88 163.06 402.99 162.95 403.12 162.94C403.26 162.93 403.37 163.04 403.38 163.17C403.99 175.81 404.69 186.66 404.69 186.7C404.7 186.84 404.6 186.95 404.46 186.96C404.32 186.97 404.21 186.87 404.2 186.73C404.2 186.7 403.49 175.86 402.89 163.2Z" fill="#AE7717"/>
<path fill-rule="evenodd" clip-rule="evenodd" d="M404.36 162.68C404.35 162.54 404.45 162.43 404.59 162.42C404.73 162.41 404.84 162.51 404.85 162.65C405.66 174.98 408.29 185 408.29 185.03C408.32 185.16 408.24 185.3 408.11 185.33C407.98 185.36 407.84 185.29 407.81 185.15C407.81 185.12 405.17 175.05 404.36 162.68Z" fill="#AE7717"/>
<path fill-rule="evenodd" clip-rule="evenodd" d="M401.73 77.8C408.66 77.8 414.93 80.61 419.48 85.15C424.02 89.69 426.83 95.97 426.83 102.9C426.83 109.83 424.02 116.1 419.48 120.65C414.94 125.19 408.66 128 401.73 128C394.8 128 388.53 125.19 383.98 120.65C379.44 116.11 376.63 109.83 376.63 102.9C376.63 95.97 379.44 89.69 383.98 85.15C388.53 80.61 394.8 77.8 401.73 77.8ZM418.78 85.85C414.42 81.49 408.39 78.79 401.73 78.79C395.07 78.79 389.05 81.49 384.68 85.85C380.32 90.21 377.62 96.24 377.62 102.9C377.62 109.56 380.32 115.58 384.68 119.94C389.04 124.3 395.07 127 401.73 127C408.39 127 414.41 124.3 418.78 119.94C423.14 115.58 425.84 109.55 425.84 102.89C425.84 96.24 423.14 90.21 418.78 85.85Z" fill="#D87D07"/>
</svg>
