<svg width="178" height="178" viewBox="0 0 178 178" fill="none" xmlns="http://www.w3.org/2000/svg">
<circle cx="89" cy="89" r="88.5" fill="#D9D9D9" fill-opacity="0.5" stroke="black"/>
<path d="M106.667 129.472C106.667 129.472 112.312 132.633 117.674 127.045C117.674 127.045 122.811 124.731 124.673 120.949C126.536 117.167 127.383 113.385 126.085 111.183L107.115 126.537L106.667 129.472Z" fill="#9F3543"/>
<path d="M103.589 143.438C103.36 142.521 103.16 141.598 103.001 140.668C102.901 140.087 102.815 139.503 102.742 138.919C102.646 138.457 102.596 137.985 102.589 137.514C102.589 137.501 102.586 137.487 102.586 137.477C102.586 137.461 102.586 137.444 102.589 137.428C102.586 136.661 102.689 135.887 102.858 135.137C103.177 133.729 103.732 132.394 104.253 131.053C104.555 130.279 104.844 129.495 105.073 128.698C105.156 128.406 105.618 128.519 105.535 128.815C105.528 128.835 105.521 128.854 105.518 128.874C106.873 129.701 108.393 130.362 109.994 130.468C110.449 130.498 110.914 130.485 111.365 130.415C111.445 130.402 111.525 130.415 111.584 130.462C111.621 130.452 111.657 130.452 111.694 130.462C111.83 130.495 111.883 130.621 111.867 130.75C111.744 131.66 111.701 132.58 111.73 133.5C111.73 133.52 111.73 133.54 111.727 133.559C111.876 133.682 112.036 133.792 112.199 133.895C112.202 133.898 112.209 133.898 112.212 133.901C114.616 134.984 116.993 136.129 119.337 137.341C120.29 137.833 121.469 138.397 121.798 139.513C122.087 140.496 121.479 141.545 120.579 141.957C119.706 142.358 118.7 142.146 117.933 141.611C117.89 141.618 117.843 141.608 117.793 141.581C116.017 140.602 114.287 139.536 112.617 138.391C113.078 139.304 113.706 140.114 114.367 140.904C114.44 140.911 114.506 140.951 114.556 141.014C114.792 141.329 115.024 141.641 115.26 141.957C115.585 142.342 115.904 142.734 116.196 143.135C116.432 143.461 116.658 143.793 116.86 144.141C117.166 144.603 117.435 145.084 117.627 145.602C117.916 146.389 117.983 147.302 117.617 148.079C117.272 148.81 116.528 149.238 115.748 149.354C114.832 149.491 113.922 149.172 113.115 148.76C113.012 148.707 112.982 148.617 112.995 148.531C112.989 148.528 112.982 148.524 112.976 148.518C111.777 147.618 110.973 146.32 110.223 145.045C109.353 143.574 108.496 142.093 107.643 140.612C107.477 140.32 107.311 140.028 107.142 139.735C107.464 140.685 107.753 141.648 108.005 142.617C108.204 143.381 108.383 144.148 108.543 144.922C108.619 145.3 108.692 145.682 108.762 146.064C108.825 146.423 108.885 146.788 108.882 147.153C108.878 147.439 108.832 147.731 108.732 148.006C108.779 148.07 108.795 148.156 108.752 148.249C108.583 148.594 108.297 148.83 107.962 148.949C107.945 148.959 107.925 148.969 107.909 148.979C107.859 149.003 107.809 149.012 107.759 149.009C107.753 149.009 107.746 149.012 107.739 149.012C107.716 149.119 107.62 149.185 107.51 149.198C106.783 149.278 106.109 148.873 105.628 148.358C105.043 147.728 104.678 146.921 104.392 146.124C104.064 145.244 103.815 144.337 103.589 143.438Z" fill="#E6D052"/>
<path d="M106.365 123.565C105.827 122.31 105.558 120.959 105.584 119.594C105.591 119.288 106.066 119.295 106.059 119.601C106.036 120.879 106.278 122.161 106.783 123.336C106.833 123.452 106.81 123.592 106.687 123.658C106.581 123.718 106.415 123.685 106.365 123.565Z" fill="#35322D"/>
<path d="M104.143 146.476C104.13 146.443 104.12 146.409 104.107 146.379C104.04 146.32 104.007 146.23 104.02 146.147C103.642 145.091 103.35 144.009 103.077 142.92C102.805 141.827 102.526 140.728 102.33 139.619C102.144 138.56 102.038 137.471 102.151 136.398C102.281 135.19 102.735 134.071 103.164 132.942L104.548 129.276C104.661 128.974 104.777 128.672 104.89 128.37C104.894 128.36 104.9 128.35 104.904 128.343C104.509 127.885 104.18 127.374 103.931 126.812C103.423 125.66 103.25 124.352 103.569 123.123C103.605 122.977 103.652 122.831 103.705 122.688C103.735 122.605 103.805 122.539 103.884 122.522C103.652 121.254 103.572 119.959 103.645 118.674C103.761 116.609 104.259 114.57 105.119 112.687C105.598 111.638 106.192 110.639 106.893 109.722C106.969 109.619 107.098 109.566 107.218 109.639C107.318 109.699 107.381 109.862 107.301 109.965C106.076 111.572 105.183 113.415 104.658 115.364C104.133 117.306 103.967 119.348 104.19 121.347C104.313 122.469 104.565 123.575 104.93 124.641C104.973 124.764 104.874 124.9 104.758 124.926C104.625 124.96 104.512 124.873 104.472 124.754C104.299 124.256 104.157 123.748 104.037 123.236C103.781 124.229 103.868 125.282 104.216 126.251C104.618 127.364 105.375 128.343 106.351 129.01C107.387 129.721 108.622 130.106 109.871 130.193C111.206 130.286 112.544 130.036 113.776 129.522C114.984 129.02 116.087 128.293 117.073 127.437C116.296 127.772 115.496 128.061 114.689 128.307C114.493 128.366 114.297 128.423 114.098 128.476C113.802 128.556 113.689 128.097 113.985 128.014C115.529 127.589 117.026 127.005 118.441 126.248C119.845 125.494 121.157 124.574 122.306 123.469C123.358 122.459 124.258 121.307 124.959 120.029C125.613 118.834 126.091 117.539 126.35 116.197C126.606 114.879 126.646 113.508 126.42 112.183C126.393 112.017 126.36 111.851 126.323 111.685C126.26 111.386 126.719 111.273 126.785 111.572C127.084 112.953 127.11 114.378 126.901 115.772C126.692 117.167 126.247 118.521 125.62 119.783C124.965 121.098 124.099 122.3 123.083 123.359C121.95 124.538 120.636 125.534 119.224 126.351C118.872 126.557 118.511 126.749 118.145 126.932C118.162 127.002 118.145 127.078 118.079 127.144C117.01 128.197 115.781 129.113 114.417 129.751C113.739 130.066 113.029 130.312 112.301 130.471C112.365 130.531 112.384 130.621 112.371 130.711C112.232 131.6 112.089 132.49 111.949 133.38C111.959 133.383 111.973 133.383 111.983 133.387C113.63 134.028 115.243 134.758 116.814 135.572C117.597 135.977 118.368 136.405 119.128 136.853C119.507 137.076 119.885 137.305 120.257 137.541C120.632 137.776 121.004 138.019 121.333 138.318C121.887 138.822 122.226 139.496 122.186 140.253C122.153 140.901 121.871 141.545 121.389 141.98C120.858 142.461 120.124 142.634 119.424 142.571C118.614 142.498 117.873 142.146 117.192 141.721C116.422 141.236 115.682 140.702 114.931 140.19C114.486 139.885 114.038 139.579 113.593 139.277L115.439 141.409C116.761 142.933 118.358 144.64 118.205 146.814C118.142 147.714 117.773 148.611 117.036 149.162C116.309 149.706 115.379 149.829 114.503 149.68C112.394 149.315 111.133 147.412 110.09 145.702C110.047 145.669 110.014 145.619 110.004 145.563C109.981 145.526 109.957 145.486 109.934 145.45C109.257 144.331 108.609 143.189 107.995 142.033C107.945 141.997 107.912 141.94 107.909 141.874C107.849 141.761 107.789 141.648 107.729 141.535C108.241 142.999 108.682 144.49 109.034 145.998C109.243 146.897 109.403 148.03 108.825 148.833C108.211 149.683 107.082 149.763 106.189 149.331C105.086 148.79 104.555 147.555 104.143 146.476ZM118.799 141.973C119.414 142.156 120.114 142.186 120.695 141.887C121.203 141.628 121.539 141.127 121.665 140.575C121.801 139.971 121.645 139.363 121.237 138.899C120.968 138.593 120.639 138.357 120.304 138.135C120.294 138.145 120.28 138.155 120.27 138.165C119.131 138.985 118.487 140.476 118.667 141.867C118.67 141.89 118.67 141.91 118.667 141.93C118.71 141.947 118.753 141.96 118.799 141.973ZM118.179 141.731C118.096 140.552 118.484 139.38 119.244 138.474C119.434 138.248 119.649 138.049 119.879 137.866C119.656 137.726 119.434 137.59 119.211 137.458C118.823 137.225 118.431 136.996 118.036 136.774C118.026 136.807 118.006 136.843 117.976 136.873C116.957 137.883 116.488 139.397 116.767 140.804C116.771 140.828 116.774 140.851 116.771 140.871C117.219 141.183 117.68 141.498 118.179 141.731ZM116.243 140.516C116.123 139.42 116.386 138.288 116.98 137.358C117.166 137.066 117.385 136.797 117.627 136.551C117.421 136.438 117.212 136.325 117.006 136.212C116.571 135.983 116.136 135.758 115.695 135.542C115.685 135.575 115.665 135.608 115.635 135.638C114.715 136.571 114.28 137.949 114.51 139.241C114.516 139.274 114.513 139.3 114.51 139.33C115.087 139.725 115.665 140.12 116.243 140.516ZM112.046 138.221C112.019 138.201 111.996 138.175 111.979 138.145C111.631 137.743 111.282 137.341 110.933 136.94C110.748 136.724 110.562 136.511 110.376 136.295C110.176 136.066 110.515 135.734 110.718 135.967L112.371 137.873C112.916 138.244 113.46 138.616 114.001 138.985C113.879 137.657 114.343 136.302 115.273 135.336C114.34 134.888 113.397 134.469 112.438 134.081C112.245 134.001 112.049 133.925 111.853 133.848C111.79 133.825 111.74 133.782 111.71 133.729C111.681 133.732 111.654 133.729 111.627 133.722C111.491 133.686 111.441 133.556 111.461 133.43C111.611 132.48 111.76 131.534 111.913 130.584C111.916 130.571 111.92 130.558 111.923 130.548C111.382 130.644 110.834 130.691 110.283 130.681C108.945 130.657 107.596 130.319 106.444 129.631C106.016 129.376 105.621 129.07 105.269 128.725C104.851 129.834 104.432 130.946 104.01 132.055C103.788 132.64 103.569 133.224 103.346 133.812C103.141 134.363 102.935 134.917 102.795 135.489C102.403 137.082 102.613 138.716 102.951 140.306C103.629 139.978 104.342 139.709 105.103 139.659C105.631 139.626 106.165 139.712 106.64 139.938C106.534 139.666 106.428 139.397 106.318 139.128C106.272 139.018 106.288 138.892 106.391 138.819C106.355 138.739 106.315 138.656 106.278 138.577C106.225 138.46 106.255 138.318 106.375 138.254C106.481 138.195 106.644 138.231 106.697 138.351C107.152 139.334 107.63 140.306 108.131 141.269C108.446 140.619 108.958 140.071 109.595 139.715C109.984 139.5 110.402 139.33 110.817 139.171C111.169 139.035 111.531 138.919 111.906 138.872C112.149 138.842 112.388 138.842 112.62 138.879C112.424 138.66 112.235 138.44 112.046 138.221ZM111.949 147.555C112.477 148.169 113.108 148.717 113.865 149.009C114.606 149.295 115.472 149.384 116.223 149.082C117.006 148.767 117.498 148.066 117.671 147.256C117.936 146.008 117.478 144.872 116.801 143.856C115.267 144.347 113.57 144.899 112.584 146.27C112.328 146.622 112.139 147.01 112.033 147.432C112.016 147.485 111.986 147.528 111.949 147.555ZM111.584 147.103C111.594 147.117 111.604 147.13 111.617 147.143C112.112 145.49 113.673 144.49 115.203 143.899C115.635 143.733 116.073 143.587 116.515 143.444C116.186 142.996 115.824 142.574 115.479 142.179C115.26 141.927 115.041 141.674 114.822 141.422C114.805 141.429 114.788 141.435 114.768 141.439C113.142 141.747 111.72 142.837 110.943 144.291C110.744 144.663 110.595 145.058 110.492 145.466C110.831 146.031 111.186 146.585 111.584 147.103ZM109.811 144.314C109.927 144.513 110.047 144.716 110.163 144.915C110.671 143.421 111.81 142.146 113.231 141.455C113.626 141.263 114.045 141.113 114.473 141.017C114.025 140.502 113.58 139.984 113.132 139.47C113.068 139.49 112.999 139.483 112.932 139.453C112.331 139.178 111.631 139.37 111.043 139.586C110.306 139.858 109.552 140.177 109.018 140.771C108.749 141.07 108.546 141.425 108.417 141.807C108.862 142.654 109.326 143.487 109.811 144.314ZM107.67 142.88C107.434 142.136 107.185 141.399 106.916 140.665C106.906 140.658 106.896 140.652 106.889 140.645C106.391 140.217 105.701 140.084 105.06 140.134C104.356 140.187 103.685 140.469 103.061 140.781C103.124 141.06 103.19 141.339 103.257 141.615C103.35 142.003 103.443 142.392 103.539 142.78C103.599 142.734 103.672 142.694 103.742 142.667C104.08 142.531 104.429 142.428 104.791 142.378C105.511 142.275 106.252 142.335 106.942 142.564C107.191 142.644 107.434 142.75 107.67 142.88ZM108.31 145.075C108.174 144.563 108.028 144.055 107.875 143.547C107.852 143.54 107.829 143.534 107.809 143.521C107.228 143.122 106.547 142.876 105.847 142.817C105.495 142.787 105.143 142.797 104.794 142.853C104.621 142.883 104.452 142.92 104.286 142.969C104.196 142.996 104.11 143.026 104.02 143.059C104 143.066 103.981 143.076 103.957 143.086C103.957 143.092 103.957 143.099 103.954 143.102C103.924 143.252 103.791 143.311 103.662 143.298C103.811 143.886 103.974 144.474 104.153 145.055C104.24 145.33 104.329 145.606 104.426 145.881C105.478 145.463 106.663 145.41 107.749 145.742C108.031 145.828 108.304 145.941 108.563 146.074C108.49 145.735 108.4 145.407 108.31 145.075ZM106.803 149.052C107.205 149.159 107.653 149.145 108.021 148.939C108.818 148.491 108.812 147.429 108.682 146.642C108.679 146.622 108.676 146.602 108.672 146.582C108.616 146.602 108.549 146.599 108.483 146.562C107.308 145.905 105.84 145.818 104.592 146.323C104.641 146.456 104.694 146.589 104.748 146.721C104.97 147.266 105.229 147.814 105.614 148.262C105.933 148.637 106.325 148.926 106.803 149.052Z" fill="#35322D"/>
<path d="M117.84 117.568C117.936 116.878 118.205 116.227 118.381 115.553C118.458 115.257 118.919 115.37 118.843 115.669C118.587 116.652 118.066 117.691 118.371 118.721C118.491 119.119 118.733 119.494 119.125 119.667C119.54 119.85 120.045 119.76 120.417 119.521C120.838 119.249 121.107 118.797 121.247 118.326C120.739 117.881 120.483 117.22 120.427 116.546C120.354 115.659 120.643 114.793 120.922 113.963C120.961 113.84 121.078 113.757 121.21 113.79C121.327 113.82 121.426 113.956 121.383 114.079C121.157 114.743 120.918 115.423 120.892 116.127C120.868 116.768 121.021 117.472 121.506 117.924C121.884 118.279 122.499 118.468 122.987 118.233C123.262 118.1 123.472 117.857 123.638 117.602C123.814 117.329 123.96 117.037 124.076 116.735C124.345 116.051 124.471 115.314 124.448 114.577C124.438 114.271 124.913 114.265 124.923 114.57C124.942 115.301 124.83 116.034 124.584 116.722C124.345 117.389 123.996 118.14 123.385 118.548C122.867 118.893 122.197 118.873 121.655 118.598C121.493 119.059 121.227 119.484 120.842 119.793C120.404 120.145 119.812 120.308 119.255 120.198C118.723 120.092 118.292 119.707 118.063 119.225C117.814 118.707 117.764 118.136 117.84 117.568Z" fill="#35322D"/>
<path d="M84.3438 77.1561C84.1977 76.4555 82.9459 70.8706 79.0378 66.7666C78.6061 66.3117 77.8723 66.7799 78.0948 67.3643C78.5198 68.4832 78.6858 69.6686 77.8723 70.263C76.2918 71.4218 73.4164 63.8945 67.629 60.7301C67.0877 60.4346 66.5399 61.0954 66.9151 61.5802C67.8016 62.7323 68.3827 64.1601 66.945 65.0964C64.4148 66.7467 59.9755 60.3417 53.6203 60.3549C53.0558 60.3549 52.83 61.0854 53.3015 61.3975C54.8521 62.4169 56.8377 64.1535 55.1775 65.5779C52.8367 67.5834 47.2883 63.7949 40.6442 67.7561C40.1727 68.035 40.342 68.7522 40.8866 68.8086C42.1483 68.9381 43.5329 69.4462 43.0482 71.103C42.2081 73.9851 39.326 73.3841 35.2419 76.5086C33.3792 77.9331 32.3399 79.3343 31.7622 80.4333C31.47 80.9878 32.1573 81.5357 32.6321 81.1306C33.8142 80.1278 35.4146 79.0122 36.5601 79.1483C38.6022 79.3874 36.6797 83.9529 33.439 85.633C30.6465 87.0807 28.4783 90.2218 28.0068 93.3662C27.9271 93.8941 28.558 94.2295 28.9531 93.8709C30.0588 92.8648 31.885 91.4205 33.5618 91.0386C36.2049 90.4376 35.7234 92.5992 34.0433 95.7237C32.3632 98.8448 29.4844 104.078 30.2381 108.955C30.2414 108.969 30.2414 108.985 30.2448 108.999C30.3809 109.626 31.3073 109.556 31.3637 108.916C31.5796 106.492 32.1307 102.992 33.4755 103.39C35.5175 103.991 34.5115 104.812 34.3919 109.377C34.3122 112.462 34.6742 114.195 35.6603 115.732C36.0056 116.27 36.839 115.905 36.6863 115.284C36.3078 113.72 36.1451 112.007 37.1644 111.814C38.4328 111.575 39.4953 113.75 40.7272 115.566C41.1091 116.127 41.979 115.669 41.7266 115.035C40.5878 112.176 38.9176 107.797 38.6088 105.931C38.1273 103.048 38.9707 83.8334 42.8124 79.8722C46.6541 75.9076 59.504 72.4279 59.9854 72.7865C60.4669 73.1484 70.7933 73.1484 70.6737 73.6265C70.5642 74.0615 80.0273 82.0935 81.797 83.5943C81.973 83.7437 82.2187 83.7703 82.4213 83.6674C82.9492 83.3984 83.9154 82.8605 84.0018 82.5152C84.1147 82.0702 84.3272 77.8965 84.3571 77.3022C84.3571 77.2524 84.3537 77.2026 84.3438 77.1561Z" fill="#D5863F"/>
<path d="M54.975 139.622C55.0646 137.673 55.2937 135.728 55.6291 133.808C55.898 132.264 56.1936 130.654 56.9904 129.283C57.3524 128.655 57.8305 128.097 58.4282 127.682C59.1055 127.211 59.919 126.975 60.7358 126.925C62.7281 126.812 64.5344 127.825 66.0883 128.964C66.1713 129.024 66.1979 129.113 66.1879 129.196C68.6384 130.78 70.9493 132.577 73.0844 134.562C73.6189 135.06 74.1436 135.568 74.6549 136.09C75.1629 136.604 75.6909 137.119 76.1457 137.68C76.3516 137.932 76.5143 138.248 76.3981 138.58C76.3217 138.792 76.1457 138.945 75.9233 138.998C75.4352 139.114 74.9072 138.852 74.5188 138.583C73.3433 137.763 72.0451 137.135 70.6771 136.717C71.9587 138.646 73.7119 140.207 75.1197 142.04C75.8901 143.039 76.5508 144.132 76.9393 145.34C77.3776 146.698 77.4673 148.159 77.2315 149.564C77.0356 150.722 76.5276 152.672 75.0434 152.701C74.9504 152.705 74.8276 152.628 74.8143 152.529C74.5387 150.503 74.0273 148.514 73.2902 146.609C72.9316 146.904 72.9748 147.638 72.9549 148.03C72.9216 148.747 72.8519 149.461 72.7523 150.171C72.5498 151.619 72.2078 153.047 71.7396 154.435C70.8066 157.191 69.3788 159.771 67.5393 162.025C66.5 163.297 65.3279 164.459 64.0429 165.482C63.95 165.555 63.7972 165.588 63.7076 165.482C61.307 162.636 60.095 158.831 60.427 155.119C60.613 153.027 61.3402 151.058 61.9478 149.066C62.1038 148.548 62.2533 148.03 62.3794 147.505C62.4724 147.117 62.582 146.725 62.5421 146.32C62.5189 146.094 62.4425 145.702 62.1669 145.656C61.7851 145.593 61.5693 146.147 61.4464 146.413C60.4536 148.564 59.8261 150.889 59.5936 153.246C59.5737 153.439 59.3413 153.575 59.1885 153.415C57.7807 151.938 56.9772 149.912 57.0037 147.867C57.0336 145.609 58.0829 143.56 58.9096 141.512C59.2018 140.785 59.7264 139.672 59.3678 138.872C58.6506 140.662 57.6778 142.335 56.4725 143.843C56.3895 143.946 56.2201 143.922 56.1371 143.843C55.0049 142.764 54.9086 141.087 54.975 139.622Z" fill="#D5863F"/>
<path d="M80.5815 124.518C80.5815 124.518 86.8969 130.269 96.4961 129.638C96.4961 129.638 103.316 130.9 106.856 129.449C106.856 129.449 114.688 128.818 117.909 124.269C117.909 124.269 123.341 120.354 125.364 115.111C127.386 109.868 127.323 108.481 127.386 106.585C127.449 104.689 126.439 97.7424 125.111 96.5106C125.111 96.5106 125.111 89.7835 120.469 88.1731C120.469 88.1731 116.395 82.4886 111.089 79.8356C105.783 77.1826 104.648 73.9619 104.648 73.9619L100.574 69.984L94.132 64.7744C94.132 64.7744 89.3008 65.7207 89.3938 66.481C89.4901 67.2381 91.1934 80.2175 91.8575 81.3563C92.5216 82.4919 102.941 103.241 102.941 103.241L99.5309 113.378L92.9001 119.441L80.5815 124.518Z" fill="#E6D052"/>
<path d="M39.0868 80.3105C45.5283 68.4368 58.9194 65.0267 68.6449 67.8059C78.3703 70.5851 84.5595 79.8058 84.5595 79.8058C79.2535 64.1435 91.8875 56.5631 91.8875 56.5631L93.0231 65.7838L92.3922 67.3643L92.203 70.1435C92.203 70.1435 92.7708 74.0582 94.5405 77.4051C96.3103 80.7521 103.257 90.4144 103.257 90.4144C108.752 99.8874 108.878 103.045 108.941 106.455C109.004 109.865 107.045 114.477 104.203 117.95C101.361 121.423 96.815 122.941 94.0989 123.572C91.3828 124.203 87.7769 123.306 87.7769 123.306C87.5378 123.26 87.3054 123.21 87.073 123.163C86.0935 123.661 85.0907 124.143 84.0116 124.382C82.7731 124.658 81.4781 124.581 80.2197 124.545C78.9978 124.508 77.7693 124.422 76.5739 124.149C75.9929 124.017 75.4251 123.831 74.8805 123.602C73.662 123.771 72.4035 123.668 71.2314 123.29C70.0494 122.908 68.9636 122.244 68.0737 121.377C68.014 121.384 67.9476 121.364 67.8944 121.304C66.7921 120.085 65.7495 118.694 65.4706 117.034C65.4008 116.619 65.3743 116.194 65.4174 115.772C65.4606 115.324 65.5669 114.886 65.6864 114.454C65.9022 113.69 66.138 112.907 66.7124 112.329C67.1905 111.844 67.8081 111.539 68.4423 111.31C68.7677 110.719 69.196 110.187 69.7074 109.746C68.5884 105.349 67.1905 99.6218 63.4651 97.105C62.4357 96.4077 61.1507 96.0026 59.7827 95.8797C59.4507 96.1354 59.0224 96.2417 58.6439 96.4176C58.086 96.6766 57.6643 97.1448 57.0932 97.3839C56.5155 97.6263 55.8747 97.7226 55.2571 97.7923C54.6627 97.8587 54.0584 97.8687 53.4641 97.789C53.2914 97.7657 53.1221 97.7358 52.956 97.6993C50.7613 99.2599 49.2339 101.8 49.4431 105.313C49.9478 113.903 59.1685 120.849 62.5785 126.66C65.9885 132.47 69.7771 137.272 70.0328 144.47C70.2851 151.669 67.6321 157.227 66.118 157.479C64.6006 157.732 64.9825 143.962 60.9382 137.773C56.8973 131.584 48.4337 126.404 42.8754 118.445C37.317 110.503 32.6452 92.1842 39.0868 80.3105ZM86.6745 86.0547C86.6247 85.9053 86.565 85.7326 86.4986 85.5334C86.565 85.7227 86.6247 85.8987 86.6745 86.0547Z" fill="#CE1717"/>
<path d="M52.2322 128.383C52.6107 127.533 53.0557 126.706 53.5139 125.899C53.9787 125.079 54.4768 124.276 55.0047 123.495C55.3335 123.007 55.6755 122.526 56.0274 122.051C56.2764 121.649 56.5686 121.277 56.8874 120.932C56.894 120.922 56.904 120.912 56.9106 120.902C56.9206 120.889 56.9339 120.879 56.9472 120.869C57.4751 120.311 58.0827 119.826 58.7236 119.401C59.9255 118.604 61.2537 118.023 62.5553 117.416C63.309 117.064 64.0594 116.702 64.7766 116.283C65.0389 116.131 65.2946 116.532 65.029 116.685C65.0124 116.695 64.9924 116.705 64.9758 116.715C65.3843 118.249 66.0218 119.78 67.1075 120.962C67.4163 121.297 67.7583 121.609 68.1335 121.872C68.1999 121.918 68.2464 121.985 68.2597 122.058C68.2763 122.068 68.2896 122.078 68.3029 122.091C68.3095 122.084 68.3195 122.077 68.3261 122.074C68.4324 122.001 68.5884 122.054 68.6515 122.161C68.7212 122.277 68.6714 122.413 68.5652 122.486C67.9808 122.888 67.4097 123.303 66.8485 123.734C66.6493 123.937 66.4534 124.143 66.2642 124.352C66.2509 124.369 66.2343 124.379 66.221 124.392C66.2243 124.415 66.2276 124.438 66.2343 124.465C66.6161 125.411 67.0677 126.328 67.4894 127.254C67.7583 127.845 68.0173 128.443 68.2431 129.054C68.4755 129.685 68.6615 130.332 68.8341 130.979C69.0334 131.73 69.2127 132.487 69.3986 133.241C69.4019 133.261 69.4052 133.28 69.4052 133.297C69.6343 134.081 69.7605 134.914 69.3787 135.651C68.9072 136.561 67.745 136.896 66.8054 136.571C65.8989 136.256 65.3178 135.409 65.1319 134.492C65.0954 134.466 65.0688 134.429 65.0522 134.376C64.4446 132.44 63.9366 130.475 63.5215 128.489C63.4784 128.629 63.4418 128.768 63.4086 128.908C63.4119 128.924 63.4153 128.944 63.4186 128.967C63.4584 130.402 63.3356 131.829 63.1496 133.251C63.0533 133.968 62.9438 134.682 62.8309 135.396C62.7313 136.026 62.6881 136.737 62.3029 137.272C62.1602 137.471 61.9875 137.647 61.7982 137.803C61.4596 138.304 61.0013 138.726 60.4302 138.945C59.6765 139.237 58.8398 139.028 58.1989 138.573C57.4419 138.035 57.0036 137.179 56.7081 136.322C56.6716 136.212 56.7114 136.126 56.7811 136.073C56.7778 136.066 56.7778 136.06 56.7745 136.05C56.5321 134.569 56.8509 133.075 57.1862 131.637C57.578 129.973 57.9798 128.31 58.3915 126.653C58.4712 126.328 58.5542 125.999 58.6372 125.673C58.2122 126.583 57.7573 127.476 57.2692 128.353C56.8874 129.044 56.4823 129.721 56.0639 130.388C55.8581 130.717 55.6456 131.043 55.4297 131.365C55.2272 131.667 55.018 131.972 54.7624 132.235C54.5631 132.437 54.3241 132.616 54.0651 132.746C54.0551 132.826 54.0086 132.899 53.9123 132.935C53.5504 133.068 53.1818 133.041 52.8564 132.895C52.8365 132.889 52.8166 132.885 52.7967 132.879C52.7469 132.862 52.7004 132.832 52.6672 132.796C52.6605 132.792 52.6539 132.789 52.6506 132.782C52.5609 132.842 52.4447 132.826 52.3584 132.759C51.7773 132.314 51.5715 131.554 51.5814 130.85C51.5914 129.993 51.8869 129.16 52.2322 128.383Z" fill="#E6D052"/>
<path d="M65.1484 86.7818C65.3277 86.1841 65.6033 85.6064 65.9453 85.0818C66.2541 84.607 66.626 84.1089 67.1374 83.8366C67.6686 83.5511 68.4057 83.5345 68.8374 84.0159C69.0001 84.1985 69.0964 84.4011 69.1495 84.6169C69.1794 84.6435 69.206 84.67 69.2325 84.7032C69.4251 84.9357 69.4782 85.2411 69.4616 85.5367C69.4251 86.1576 69.1927 86.7486 68.9104 87.2965C68.419 88.2561 67.7018 89.4481 66.47 89.4215C65.9088 89.4116 65.424 89.0795 65.185 88.5715C64.9193 88.0004 64.9691 87.3662 65.1484 86.7818Z" fill="#840820"/>
<path d="M62.2566 87.6219C62.4359 87.0243 62.7115 86.4465 63.0535 85.9219C63.3623 85.4471 63.7342 84.949 64.2455 84.6767C64.7768 84.3912 65.5139 84.3746 65.9455 84.856C66.1082 85.0387 66.2045 85.2412 66.2577 85.457C66.2875 85.4836 66.3141 85.5102 66.3407 85.5434C66.5333 85.7758 66.5864 86.0813 66.5698 86.3768C66.5333 86.9977 66.3008 87.5887 66.0186 88.1366C65.5272 89.0962 64.81 90.2882 63.5781 90.2616C63.017 90.2517 62.5322 89.9196 62.2931 89.4116C62.0275 88.8438 62.0806 88.2096 62.2566 87.6219Z" fill="#840820"/>
<path d="M51.9567 84.099C52.136 83.5013 52.4116 82.9236 52.7536 82.3989C53.0624 81.9241 53.4342 81.4261 53.9456 81.1538C54.4768 80.8682 55.214 80.8516 55.6456 81.3331C55.8083 81.5157 55.9046 81.7183 55.9577 81.9341C55.9876 81.9606 56.0142 81.9872 56.0407 82.0204C56.2333 82.2528 56.2865 82.5583 56.2698 82.8538C56.2333 83.4747 56.0009 84.0658 55.7187 84.6136C55.2273 85.5732 54.5101 86.7652 53.2782 86.7387C52.717 86.7287 52.2323 86.3967 51.9932 85.8887C51.7276 85.3209 51.7807 84.6867 51.9567 84.099Z" fill="#840820"/>
<path d="M83.281 118.661C83.8289 118.359 84.4299 118.136 85.0375 118C85.592 117.877 86.2029 117.781 86.7608 117.94C87.3418 118.106 87.8797 118.611 87.8532 119.255C87.8432 119.498 87.7702 119.713 87.6573 119.903C87.6606 119.942 87.6606 119.982 87.6573 120.022C87.634 120.324 87.458 120.58 87.2422 120.779C86.7807 121.198 86.2029 121.46 85.6186 121.656C84.5959 121.998 83.2511 122.353 82.3878 121.477C81.9927 121.078 81.8765 120.5 82.0591 119.972C82.265 119.375 82.7464 118.956 83.281 118.661Z" fill="#840820"/>
<path d="M79.5325 117.505C80.0903 117.213 80.7046 117.007 81.3354 116.888C81.9065 116.782 82.5407 116.705 83.1251 116.894C83.7361 117.09 84.3171 117.635 84.3171 118.306C84.3171 118.558 84.2474 118.777 84.1378 118.973C84.1412 119.013 84.1445 119.056 84.1445 119.096C84.1312 119.408 83.9619 119.667 83.7427 119.866C83.2812 120.285 82.6868 120.53 82.0892 120.71C81.0399 121.025 79.652 121.34 78.7157 120.394C78.2906 119.962 78.1445 119.358 78.3139 118.817C78.5032 118.209 78.9846 117.794 79.5325 117.505Z" fill="#840820"/>
<path d="M91.9207 89.0197C91.5356 88.5217 91.2235 87.9506 91.001 87.3496C90.7984 86.805 90.6125 86.1941 90.6955 85.5865C90.7818 84.949 91.2168 84.2849 91.8776 84.1687C92.1266 84.1255 92.3557 84.1554 92.5649 84.2284C92.6047 84.2151 92.6446 84.2085 92.6844 84.2019C92.9932 84.1587 93.2788 84.2849 93.5112 84.4642C94.0026 84.846 94.3479 85.3872 94.6302 85.9484C95.1249 86.9279 95.6761 88.2361 94.9058 89.3252C94.5538 89.82 93.986 90.069 93.4249 89.9959C92.7907 89.9096 92.2993 89.5078 91.9207 89.0197Z" fill="#840820"/>
<path d="M90.5627 82.0602C90.1775 81.5622 89.8654 80.991 89.643 80.3901C89.4404 79.8455 89.2545 79.2346 89.3375 78.6269C89.4238 77.9894 89.8588 77.3253 90.5195 77.2091C90.7686 77.166 90.9977 77.1958 91.2069 77.2689C91.2467 77.2556 91.2865 77.249 91.3264 77.2423C91.6352 77.1992 91.9207 77.3253 92.1532 77.5046C92.6446 77.8865 92.9899 78.4277 93.2721 78.9889C93.7669 79.9684 94.3181 81.2766 93.5477 82.3657C93.1958 82.8604 92.628 83.1094 92.0668 83.0364C91.436 82.9534 90.9412 82.5516 90.5627 82.0602Z" fill="#840820"/>
<path d="M46.8101 78.6369C46.5976 79.2313 46.2855 79.7991 45.9003 80.3137C45.5517 80.7786 45.1367 81.2634 44.5788 81.5224C43.9944 81.7913 43.2009 81.7847 42.746 81.2899C42.5766 81.104 42.477 80.8981 42.4272 80.679C42.3973 80.6524 42.3675 80.6225 42.3409 80.5927C42.1383 80.3536 42.0885 80.0481 42.1151 79.7526C42.1716 79.1317 42.4405 78.5506 42.7593 78.0094C43.3171 77.0664 44.1239 75.8943 45.4554 75.9574C46.0597 75.9873 46.5777 76.3326 46.8201 76.8439C47.0924 77.4217 47.016 78.0559 46.8101 78.6369Z" fill="#840820"/>
<path d="M41.1821 108.056C41.2186 107.113 41.2883 106.17 41.3946 105.233C41.461 104.649 41.5407 104.065 41.637 103.48C41.6735 103.009 41.7598 102.544 41.886 102.089C41.8893 102.076 41.8893 102.062 41.8927 102.052C41.896 102.036 41.9026 102.019 41.9092 102.006C42.1218 101.269 42.4372 100.555 42.8091 99.8842C43.5097 98.6224 44.4161 97.4935 45.2927 96.3546C45.7974 95.6938 46.2955 95.0264 46.7404 94.3225C46.9031 94.0635 47.3148 94.3026 47.1488 94.5616C47.1389 94.5782 47.1256 94.5948 47.1156 94.6114C48.1848 95.7835 49.4598 96.846 50.9639 97.3939C51.3923 97.5499 51.8405 97.6695 52.2921 97.7292C52.3718 97.7392 52.4448 97.7757 52.488 97.8355C52.5245 97.8388 52.561 97.8454 52.5909 97.8654C52.7105 97.9351 52.7271 98.0712 52.6773 98.1908C52.3054 99.0308 52.0065 99.9008 51.7774 100.791C51.7708 100.811 51.7641 100.827 51.7575 100.844C51.8671 101.003 51.9899 101.153 52.1161 101.299C52.1194 101.302 52.1261 101.305 52.1294 101.309C54.1349 103.022 56.0939 104.788 58.0065 106.608C58.7834 107.345 59.7563 108.218 59.7596 109.38C59.763 110.406 58.8864 111.24 57.9035 111.386C56.9539 111.525 56.0474 111.041 55.4597 110.313C55.4166 110.307 55.3734 110.287 55.3336 110.247C53.9025 108.809 52.5411 107.302 51.2594 105.731C51.4454 106.737 51.8239 107.694 52.2356 108.633C52.3054 108.66 52.3585 108.72 52.3851 108.793C52.5212 109.161 52.6573 109.527 52.7968 109.895C52.9993 110.357 53.1952 110.822 53.3646 111.29C53.5007 111.668 53.6236 112.05 53.7199 112.442C53.8826 112.97 54.0087 113.508 54.0453 114.059C54.1017 114.896 53.9091 115.792 53.3413 116.433C52.8068 117.041 51.97 117.24 51.1897 117.134C50.2733 117.007 49.4864 116.446 48.8256 115.825C48.7426 115.746 48.736 115.653 48.7758 115.573C48.7725 115.566 48.7658 115.563 48.7625 115.556C47.8627 114.358 47.4576 112.883 47.0924 111.452C46.6707 109.796 46.2623 108.135 45.8605 106.475C45.7808 106.15 45.7044 105.821 45.6248 105.492C45.6679 106.495 45.6746 107.498 45.648 108.501C45.6248 109.287 45.5816 110.078 45.5185 110.861C45.4853 111.247 45.4488 111.635 45.4056 112.02C45.3658 112.382 45.3193 112.751 45.213 113.099C45.13 113.372 45.0005 113.641 44.8312 113.876C44.8578 113.953 44.8511 114.039 44.7814 114.115C44.5224 114.401 44.1804 114.547 43.8284 114.567C43.8085 114.57 43.7886 114.577 43.7687 114.58C43.7155 114.59 43.6624 114.583 43.6159 114.567C43.6093 114.567 43.6026 114.564 43.596 114.564C43.5429 114.66 43.4333 114.696 43.3237 114.676C42.6032 114.55 42.0686 113.973 41.7532 113.342C41.3713 112.575 41.2452 111.698 41.1921 110.848C41.1323 109.925 41.1489 108.985 41.1821 108.056Z" fill="#E6D052"/>
<path d="M49.4168 89.7603C49.2541 88.4056 49.3736 87.031 49.7821 85.7294C49.875 85.4372 50.3266 85.5767 50.2369 85.8689C49.8551 87.0908 49.7289 88.389 49.8817 89.6574C49.8983 89.7836 49.8352 89.9098 49.699 89.9396C49.5828 89.9695 49.4334 89.8898 49.4168 89.7603Z" fill="#35322D"/>
<path d="M40.8633 111.13C40.86 111.097 40.86 111.061 40.8567 111.027C40.8102 110.951 40.8002 110.855 40.8401 110.782C40.7703 109.663 40.7936 108.54 40.8401 107.421C40.8865 106.296 40.9264 105.164 41.0492 104.045C41.1655 102.975 41.368 101.9 41.7831 100.904C42.2479 99.7779 42.9983 98.8316 43.7222 97.8687L46.0796 94.7376C46.2722 94.4786 46.4681 94.2229 46.6607 93.964C46.6673 93.9573 46.674 93.9474 46.6806 93.9407C46.4283 93.3895 46.2556 92.8051 46.1759 92.2008C46.0099 90.9524 46.2125 89.6475 46.8632 88.5584C46.9396 88.4289 47.0259 88.2994 47.1156 88.1765C47.1687 88.1035 47.2517 88.0636 47.3347 88.067C47.4676 86.7853 47.7531 85.5202 48.1848 84.305C48.8754 82.3526 49.928 80.5363 51.2794 78.9691C52.0331 78.0958 52.8831 77.3056 53.8128 76.6183C53.9157 76.5419 54.0552 76.5286 54.1482 76.6282C54.2279 76.7146 54.2411 76.8872 54.1382 76.9636C52.5112 78.1622 51.1399 79.683 50.0873 81.4063C49.0381 83.1229 48.3076 85.0354 47.959 87.0177C47.7631 88.1267 47.6933 89.2623 47.7465 90.3879C47.7531 90.5174 47.617 90.6203 47.4974 90.6137C47.358 90.607 47.2783 90.4942 47.2717 90.3647C47.2451 89.8367 47.2484 89.3121 47.2783 88.7842C46.7537 89.6674 46.5412 90.7 46.6043 91.726C46.6773 92.9081 47.1289 94.0602 47.8793 94.9733C48.6762 95.9462 49.752 96.6601 50.9241 97.0951C52.1792 97.5566 53.5339 97.6927 54.8621 97.5466C56.1636 97.4039 57.4254 97.0154 58.6108 96.4675C57.7707 96.5704 56.924 96.6269 56.0773 96.6369C55.8714 96.6402 55.6689 96.6369 55.463 96.6369C55.1576 96.6335 55.1775 96.1587 55.483 96.162C57.0834 96.1853 58.6871 96.0492 60.2544 95.7171C61.8116 95.3884 63.329 94.8704 64.7435 94.1333C66.0351 93.4593 67.2238 92.6059 68.2532 91.5733C69.2161 90.607 70.0362 89.5014 70.6638 88.2861C71.278 87.0941 71.6997 85.7892 71.8558 84.4544C71.8757 84.2884 71.8923 84.119 71.9023 83.9497C71.9222 83.6442 72.397 83.6641 72.3771 83.9696C72.2775 85.3808 71.9023 86.7521 71.3112 88.0337C70.7202 89.3154 69.9134 90.4908 68.9571 91.5235C67.961 92.6026 66.7922 93.5157 65.5205 94.2462C64.106 95.0597 62.562 95.6474 60.9782 96.0359C60.5831 96.1322 60.1813 96.2185 59.7795 96.2915C59.7762 96.3613 59.7397 96.431 59.6567 96.4775C58.3352 97.188 56.8974 97.7226 55.4099 97.9517C54.6695 98.0646 53.9224 98.1012 53.1786 98.0513C53.2218 98.1244 53.2185 98.2174 53.1786 98.3004C52.7934 99.1139 52.4083 99.9307 52.0231 100.744C52.0331 100.751 52.043 100.754 52.053 100.761C53.4542 101.84 54.799 102.992 56.0773 104.214C56.7148 104.822 57.3357 105.449 57.94 106.093C58.2422 106.415 58.5377 106.741 58.8332 107.07C59.1254 107.398 59.4176 107.737 59.65 108.115C60.0385 108.753 60.178 109.497 59.9256 110.211C59.7098 110.822 59.2616 111.359 58.6772 111.645C58.033 111.957 57.2793 111.917 56.6252 111.662C55.8681 111.366 55.2572 110.822 54.7226 110.221C54.1183 109.54 53.5571 108.819 52.9794 108.115C52.6374 107.697 52.2921 107.279 51.9501 106.864L53.1255 109.427C53.9689 111.263 55.0181 113.345 54.2644 115.39C53.9523 116.237 53.348 116.994 52.4847 117.316C51.6346 117.635 50.7083 117.492 49.908 117.1C47.9855 116.161 47.3082 113.976 46.7869 112.047C46.7537 112 46.7371 111.947 46.7437 111.887C46.7337 111.844 46.7205 111.801 46.7105 111.758C46.3718 110.493 46.073 109.218 45.8074 107.936C45.7708 107.886 45.7542 107.827 45.7708 107.76C45.7443 107.634 45.7177 107.511 45.6945 107.385C45.7742 108.936 45.7808 110.49 45.6945 112.037C45.6447 112.96 45.4786 114.092 44.6984 114.7C43.8716 115.344 42.7659 115.105 42.0288 114.437C41.119 113.617 40.953 112.283 40.8633 111.13ZM56.1935 110.918C56.7314 111.263 57.3955 111.489 58.0397 111.366C58.6008 111.26 59.0623 110.871 59.3379 110.377C59.6401 109.835 59.66 109.208 59.3977 108.647C59.225 108.278 58.976 107.959 58.7137 107.654C58.7004 107.661 58.6871 107.667 58.6739 107.67C57.349 108.139 56.3164 109.387 56.0972 110.775C56.0939 110.798 56.0873 110.818 56.0806 110.838C56.1138 110.865 56.1537 110.891 56.1935 110.918ZM55.6656 110.513C55.9146 109.357 56.6185 108.341 57.6014 107.684C57.8471 107.521 58.1094 107.388 58.3817 107.279C58.209 107.083 58.033 106.89 57.8537 106.701C57.5449 106.369 57.2328 106.04 56.9174 105.715C56.8974 105.745 56.8709 105.771 56.831 105.794C55.5726 106.475 54.696 107.8 54.5665 109.228C54.5632 109.251 54.5599 109.274 54.5499 109.294C54.8986 109.716 55.2539 110.148 55.6656 110.513ZM54.1482 108.803C54.3408 107.717 54.9085 106.704 55.742 105.977C56.0009 105.751 56.2865 105.552 56.592 105.386C56.4259 105.22 56.2566 105.054 56.0906 104.888C55.7386 104.546 55.38 104.207 55.0181 103.875C54.9982 103.905 54.9716 103.932 54.9351 103.952C53.7896 104.589 52.986 105.791 52.8433 107.096C52.8399 107.129 52.83 107.156 52.8167 107.182C53.2583 107.72 53.7032 108.262 54.1482 108.803ZM50.7614 105.423C50.7415 105.396 50.7282 105.363 50.7182 105.333C50.4957 104.848 50.2733 104.367 50.0508 103.882C49.9313 103.623 49.8151 103.364 49.6955 103.108C49.5694 102.833 49.9877 102.61 50.1172 102.886L51.1698 105.177C51.5882 105.685 52.0065 106.193 52.4249 106.704C52.6806 105.393 53.504 104.224 54.6695 103.56C53.9025 102.869 53.1122 102.199 52.2987 101.558C52.136 101.428 51.97 101.299 51.804 101.173C51.7509 101.133 51.7143 101.076 51.701 101.016C51.6745 101.01 51.6446 101.003 51.6247 100.987C51.5051 100.914 51.4952 100.777 51.5483 100.658C51.9567 99.7912 52.3684 98.9213 52.7768 98.0547C52.7835 98.0414 52.7901 98.0314 52.7968 98.0215C52.2522 97.9617 51.711 97.8521 51.1831 97.6861C49.9047 97.2877 48.7061 96.5871 47.7929 95.6009C47.4543 95.2357 47.1621 94.8306 46.9164 94.3989C46.2025 95.3486 45.4886 96.2949 44.7747 97.2445C44.3995 97.7459 44.021 98.2439 43.6458 98.7453C43.2938 99.2168 42.9419 99.6916 42.6464 100.2C41.8229 101.621 41.5672 103.248 41.4444 104.868C42.1881 104.745 42.9485 104.685 43.689 104.848C44.2069 104.964 44.695 105.197 45.0868 105.545C45.0636 105.257 45.0337 104.968 45.0038 104.679C44.9905 104.559 45.0437 104.443 45.1599 104.403C45.1466 104.314 45.1333 104.227 45.12 104.138C45.1001 104.011 45.1698 103.885 45.3027 103.855C45.4222 103.829 45.565 103.909 45.5849 104.038C45.7443 105.11 45.9302 106.18 46.1427 107.242C46.6308 106.708 47.2717 106.326 47.9855 106.163C48.4172 106.063 48.8688 106.02 49.3104 105.984C49.6856 105.954 50.0641 105.941 50.4393 106.004C50.6817 106.044 50.9075 106.11 51.1233 106.213C51.0038 105.951 50.8809 105.685 50.7614 105.423ZM48.0519 114.354C48.3873 115.092 48.8389 115.792 49.483 116.287C50.1139 116.768 50.9208 117.097 51.7243 117.017C52.5643 116.934 53.2317 116.4 53.6269 115.669C54.2312 114.544 54.1116 113.328 53.7464 112.16C52.136 112.203 50.353 112.256 49.0215 113.295C48.6795 113.564 48.3873 113.88 48.1682 114.258C48.135 114.308 48.0951 114.338 48.0519 114.354ZM47.8295 113.82C47.8361 113.836 47.8428 113.853 47.8494 113.87C48.7857 112.422 50.5655 111.901 52.2024 111.761C52.664 111.721 53.1255 111.705 53.587 111.691C53.3944 111.17 53.1687 110.662 52.9495 110.184C52.81 109.882 52.6706 109.576 52.5311 109.274C52.5145 109.278 52.4946 109.278 52.478 109.274C50.8278 109.115 49.161 109.759 48.0055 110.941C47.7099 111.243 47.4543 111.579 47.2418 111.944C47.4078 112.578 47.5937 113.209 47.8295 113.82ZM46.9064 110.642C46.9629 110.868 47.0193 111.094 47.0757 111.32C47.9855 110.028 49.4332 109.125 50.9905 108.859C51.4255 108.786 51.8671 108.76 52.3054 108.786C52.0198 108.165 51.7343 107.544 51.452 106.923C51.3856 106.923 51.3192 106.897 51.2661 106.85C50.7647 106.419 50.0409 106.405 49.4166 106.449C48.633 106.505 47.8195 106.598 47.1422 107.02C46.8002 107.232 46.5046 107.518 46.2755 107.843C46.4648 108.783 46.674 109.716 46.9064 110.642ZM45.2562 108.667C45.2396 107.886 45.2064 107.109 45.1532 106.329C45.1466 106.319 45.14 106.312 45.1333 106.302C44.7747 105.751 44.1505 105.429 43.5196 105.296C42.829 105.15 42.1085 105.233 41.4178 105.356C41.4012 105.642 41.3846 105.927 41.3713 106.21C41.3514 106.608 41.3315 107.006 41.3149 107.408C41.3846 107.378 41.4676 107.365 41.5407 107.355C41.9026 107.319 42.2678 107.319 42.6264 107.372C43.347 107.475 44.0409 107.74 44.6419 108.155C44.8611 108.308 45.0669 108.477 45.2562 108.667ZM45.2562 110.954C45.2695 110.426 45.2728 109.895 45.2661 109.367C45.2462 109.357 45.2263 109.341 45.2097 109.321C44.7648 108.773 44.1804 108.348 43.5229 108.092C43.1942 107.966 42.8522 107.873 42.5036 107.833C42.3309 107.813 42.1549 107.803 41.9823 107.803C41.8893 107.803 41.7963 107.807 41.7034 107.813C41.6801 107.817 41.6602 107.817 41.637 107.82C41.6336 107.827 41.6336 107.83 41.6303 107.837C41.5606 107.973 41.4145 107.993 41.295 107.943C41.275 108.55 41.2651 109.158 41.275 109.766C41.2784 110.055 41.2883 110.343 41.3049 110.636C42.4305 110.529 43.586 110.812 44.5357 111.432C44.7814 111.592 45.0105 111.778 45.2263 111.98C45.2396 111.638 45.2462 111.296 45.2562 110.954ZM42.6928 114.348C43.0481 114.564 43.4798 114.677 43.8948 114.58C44.7847 114.371 45.0736 113.352 45.1732 112.561C45.1765 112.541 45.1765 112.522 45.1798 112.498C45.12 112.502 45.057 112.482 45.0038 112.425C44.0575 111.466 42.6729 110.971 41.3348 111.107C41.3448 111.25 41.358 111.393 41.3747 111.535C41.4377 112.12 41.5307 112.717 41.7764 113.259C41.9756 113.704 42.2712 114.092 42.6928 114.348Z" fill="#35322D"/>
<path d="M62.1169 87.2235C62.4025 86.586 62.8441 86.0381 63.1994 85.4405C63.3554 85.1782 63.7671 85.4172 63.6078 85.6795C63.0865 86.5495 62.2962 87.4028 62.2995 88.4753C62.2995 88.8904 62.429 89.3187 62.7578 89.5943C63.1064 89.8865 63.6144 89.9429 64.0394 89.8167C64.5209 89.674 64.906 89.3154 65.1717 88.9003C64.8064 88.3292 64.75 87.6253 64.8828 86.9612C65.0621 86.088 65.5801 85.3375 66.0815 84.6203C66.1545 84.5141 66.2906 84.4676 66.4069 84.534C66.5098 84.5938 66.5662 84.7532 66.4932 84.8594C66.0914 85.4338 65.6697 86.0182 65.4473 86.6889C65.2447 87.2966 65.1949 88.0138 65.5303 88.5849C65.7959 89.0331 66.3305 89.3884 66.8651 89.2954C67.1672 89.2456 67.4362 89.073 67.6653 88.8738C67.9077 88.6613 68.1301 88.4189 68.3294 88.1665C68.7809 87.5855 69.1063 86.9114 69.2923 86.2009C69.3686 85.9053 69.8269 86.0315 69.7505 86.327C69.5645 87.0343 69.2524 87.7083 68.8208 88.296C68.4024 88.8704 67.8579 89.4947 67.1573 89.7138C66.5662 89.8998 65.9254 89.6906 65.4805 89.2755C65.1949 89.674 64.8197 90.006 64.3648 90.1953C63.8435 90.4111 63.2326 90.4011 62.7279 90.1388C62.2464 89.8898 61.9409 89.3984 61.8546 88.8704C61.7683 88.306 61.8812 87.7448 62.1169 87.2235Z" fill="#35322D"/>
<path d="M78.8552 108.464C79.4396 108.036 80.0971 107.714 80.7811 107.488C81.0733 107.392 81.1961 107.85 80.9072 107.946C80.3693 108.125 79.8547 108.371 79.3799 108.68C78.9881 108.935 78.5398 109.251 78.4269 109.732C78.3273 110.161 78.5398 110.616 78.8552 110.898C79.2172 111.223 79.7285 111.333 80.2 111.323C80.8475 111.31 81.4684 111.057 82.0528 110.798C82.169 110.745 82.3084 110.765 82.3782 110.885C82.4379 110.984 82.4114 111.157 82.2918 111.21C81.6709 111.486 81.0367 111.741 80.3527 111.791C79.765 111.834 79.1375 111.711 78.6593 111.353C78.2144 111.017 77.9089 110.473 77.9289 109.908C77.9521 109.274 78.3738 108.816 78.8552 108.464Z" fill="#35322D"/>
<path d="M78.1813 119.006C78.2311 118.362 78.6263 117.851 79.0845 117.422C79.6589 116.888 80.3064 116.426 81.0003 116.058C81.2693 115.915 81.5117 116.323 81.2394 116.466C80.6949 116.758 80.1769 117.1 79.7054 117.502C79.2903 117.854 78.8288 118.263 78.6893 118.81C78.5798 119.252 78.7126 119.717 78.9616 120.089C79.2372 120.5 79.6655 120.759 80.147 120.862C80.7314 120.989 81.3523 120.876 81.8869 120.617C81.8836 120.57 81.8802 120.524 81.8769 120.477C81.8603 119.793 82.1724 119.126 82.634 118.634C83.2017 118.027 83.9654 117.662 84.7158 117.336C84.8321 117.286 84.9715 117.303 85.0412 117.422C85.101 117.522 85.0744 117.695 84.9549 117.748C83.8592 118.223 82.5344 118.883 82.365 120.212C82.2953 120.746 82.4912 121.281 82.9394 121.596C83.3844 121.908 83.9522 122.015 84.4867 121.951C85.2703 121.858 85.9809 121.46 86.6616 121.088C86.9305 120.942 87.1696 121.35 86.9006 121.497C86.22 121.868 85.5127 122.257 84.7358 122.39C84.0916 122.499 83.4076 122.43 82.8365 122.094C82.4381 121.862 82.1425 121.51 81.9898 121.091C80.9107 121.556 79.5294 121.516 78.7259 120.564C78.3673 120.139 78.1382 119.574 78.1813 119.006Z" fill="#35322D"/>
<path d="M75.5648 79.0886C75.7507 78.3681 76.3086 77.7936 77.0191 77.5811C77.723 77.372 78.4934 77.5147 79.1375 77.8335C79.8979 78.2087 80.5088 78.8296 81.0966 79.4273C81.3124 79.6464 80.9737 79.9818 80.7612 79.7626C79.8879 78.8728 78.8055 77.787 77.4375 77.9729C76.8465 78.0526 76.3252 78.4278 76.0994 78.9857C75.8736 79.5402 75.9367 80.1876 76.2189 80.7089C76.5377 81.3066 77.0888 81.7349 77.6998 82.0039C77.816 82.057 77.8459 82.2264 77.7861 82.3293C77.7164 82.4488 77.5803 82.4654 77.4607 82.4156C76.8332 82.1367 76.2687 81.6918 75.9002 81.1074C75.5216 80.513 75.3888 79.7693 75.5648 79.0886Z" fill="#35322D"/>
<path d="M51.9035 128.393C51.9168 128.36 51.9334 128.33 51.9467 128.297C51.94 128.207 51.9799 128.117 52.0463 128.071C52.5078 127.048 53.049 126.065 53.6135 125.096C54.178 124.12 54.7391 123.14 55.37 122.204C55.971 121.311 56.6516 120.457 57.4817 119.763C58.4148 118.983 59.5205 118.495 60.6129 117.98L64.1557 116.307C64.4479 116.171 64.7401 116.031 65.0323 115.895C65.0423 115.892 65.0522 115.888 65.0622 115.885C65.0954 115.281 65.2149 114.683 65.4274 114.109C65.8624 112.927 66.6493 111.867 67.7318 111.207C67.8613 111.127 67.9941 111.054 68.1335 110.987C68.2132 110.948 68.3062 110.951 68.3792 110.994C69.0931 109.922 69.9365 108.936 70.8828 108.062C72.4035 106.658 74.18 105.539 76.1058 104.782C77.1816 104.36 78.3005 104.055 79.4428 103.882C79.5689 103.862 79.6984 103.915 79.735 104.048C79.7648 104.161 79.6951 104.32 79.5689 104.34C77.5701 104.642 75.6476 105.349 73.9143 106.385C72.1877 107.418 70.6504 108.769 69.4185 110.363C68.7279 111.256 68.1368 112.226 67.662 113.245C67.6089 113.362 67.4396 113.391 67.3366 113.332C67.2171 113.262 67.1972 113.122 67.2503 113.006C67.4728 112.528 67.7218 112.063 67.9941 111.612C67.1208 112.15 66.4501 112.963 66.0284 113.903C65.5403 114.982 65.4075 116.21 65.6432 117.369C65.8956 118.601 66.5132 119.733 67.3499 120.663C68.2464 121.656 69.3787 122.41 70.6238 122.898C71.8424 123.376 73.1407 123.622 74.4456 123.691C73.652 123.392 72.8784 123.047 72.1246 122.659C71.942 122.566 71.7627 122.469 71.5801 122.37C71.3111 122.224 71.5502 121.812 71.8192 121.961C73.2237 122.728 74.7079 123.353 76.2486 123.791C77.7792 124.226 79.3631 124.475 80.9569 124.478C82.4145 124.485 83.8622 124.282 85.2567 123.847C86.5583 123.442 87.8002 122.845 88.9191 122.061C90.0182 121.291 91.001 120.334 91.7581 119.225C91.8543 119.086 91.944 118.943 92.0336 118.8C92.193 118.541 92.6048 118.78 92.4421 119.039C91.6983 120.241 90.7254 121.281 89.6064 122.141C89.032 122.582 88.4211 122.967 87.7802 123.306C89.4404 123.588 91.1305 123.622 92.7973 123.426C92.8405 123.406 92.8903 123.402 92.9401 123.409C95.4238 123.097 97.8476 122.277 100.009 121.012C100.052 120.929 100.139 120.886 100.225 120.882C100.291 120.842 100.361 120.803 100.428 120.759C104.359 118.312 107.108 114.364 108.201 109.878C108.742 107.651 108.878 105.31 108.556 103.035C108.191 100.449 107.178 98.038 105.979 95.737C104.711 93.3031 103.363 90.8826 101.905 88.5583C100.471 86.2706 98.7773 84.1721 97.1603 82.0138C94.1753 78.036 91.2998 73.2679 92.11 68.0749C92.203 67.4705 92.3557 66.8795 92.5583 66.3018C92.5715 66.2619 92.5948 66.2354 92.618 66.2088C92.9136 66.2254 92.9634 66.3084 92.9667 66.667C92.96 66.6571 92.9534 66.6438 92.9434 66.6338C92.1631 69.0344 92.3856 71.6111 93.1526 73.9951C93.9694 76.5385 95.3972 78.8063 96.9611 80.9513C98.4121 82.9402 99.9793 84.8428 101.371 86.8749C102.028 85.8754 102.825 84.9656 103.728 84.1854C104.674 83.3685 105.73 82.6812 106.866 82.1599C107.513 81.8644 108.184 81.6154 108.871 81.4294C109.167 81.3497 109.293 81.808 108.997 81.8877C106.66 82.5252 104.535 83.85 102.915 85.6463C102.463 86.1444 102.058 86.679 101.693 87.2468C101.679 87.2667 101.666 87.28 101.653 87.2932C101.689 87.3464 101.723 87.3995 101.759 87.4526C103.306 89.8001 104.664 92.2838 105.999 94.7575C107.251 97.085 108.393 99.5122 108.888 102.125C108.924 102.315 108.954 102.504 108.984 102.696C110.781 101.332 112.62 100.017 114.599 98.9245C116.648 97.7923 118.852 96.8958 121.163 96.4774C122.468 96.2417 123.8 96.152 125.125 96.2583C125.251 96.2682 125.36 96.3612 125.36 96.494C125.36 96.6136 125.251 96.743 125.125 96.7298C122.804 96.5405 120.483 96.9589 118.301 97.7425C116.136 98.5195 114.124 99.665 112.218 100.943C111.139 101.667 110.093 102.441 109.061 103.228C109.3 105.15 109.233 107.103 108.875 109.009C108.758 109.623 108.612 110.227 108.44 110.825C110.721 110.479 113.028 110.31 115.336 110.327C117.7 110.343 120.064 110.553 122.395 110.948C123.713 111.17 125.022 111.456 126.313 111.798C126.34 111.804 126.363 111.818 126.383 111.831C126.446 111.632 126.506 111.432 126.562 111.233C127.333 108.491 127.489 105.535 126.752 102.766C126.662 102.424 126.556 102.086 126.436 101.754C126.333 101.465 126.791 101.342 126.894 101.627C127.871 104.4 127.91 107.438 127.286 110.294C126.679 113.069 125.44 115.679 123.899 118.053C122.462 120.265 120.765 122.327 118.813 124.106C116.907 125.843 114.748 127.307 112.368 128.313C109.628 129.472 106.677 129.937 103.738 130.269C103.366 130.312 102.994 130.352 102.619 130.392C102.493 130.405 102.383 130.272 102.383 130.156C102.383 130.017 102.493 129.934 102.619 129.92C103.884 129.788 105.152 129.645 106.411 129.442C105.272 129.014 104.279 128.253 103.433 127.384C102.915 126.849 102.443 126.268 101.995 125.674C101.523 125.046 101.058 124.408 100.68 123.718C100.318 123.054 100.042 122.33 99.9893 121.576C97.9041 122.755 95.5865 123.539 93.2091 123.864C93.6905 125.461 94.2483 127.138 95.3972 128.38C95.7326 128.742 96.1111 129.05 96.5361 129.296C96.8017 129.449 96.5627 129.861 96.297 129.704C94.6402 128.742 93.7569 126.962 93.146 125.215C92.9966 124.787 92.8604 124.355 92.7309 123.92C91.436 124.063 90.1277 124.073 88.8328 123.934C88.275 123.874 87.7205 123.791 87.1693 123.678C87.1394 123.671 87.1128 123.661 87.0896 123.648C86.6978 123.827 86.2993 123.993 85.8943 124.136C84.5097 124.628 83.052 124.89 81.5844 124.943C79.9541 125.003 78.3138 124.807 76.73 124.412C76.3349 124.312 75.9398 124.203 75.5513 124.08C75.5147 124.14 75.4517 124.186 75.3587 124.186C73.8579 124.199 72.3371 124.003 70.9127 123.512C70.2054 123.27 69.5248 122.951 68.8906 122.559C68.8939 122.645 68.8474 122.725 68.7744 122.778C68.0538 123.319 67.3333 123.861 66.6161 124.405C66.6228 124.415 66.6294 124.425 66.636 124.435C67.3732 126.042 68.0273 127.689 68.5917 129.366C68.8707 130.203 69.1296 131.046 69.3654 131.896C69.4816 132.321 69.5945 132.746 69.7008 133.174C69.807 133.603 69.9066 134.038 69.9365 134.479C69.983 135.226 69.7605 135.947 69.206 136.465C68.7312 136.906 68.0837 137.172 67.4329 137.152C66.7191 137.129 66.0683 136.744 65.6067 136.209C65.0755 135.595 64.7866 134.828 64.594 134.048C64.3749 133.164 64.2155 132.265 64.0329 131.375C63.9233 130.847 63.8137 130.315 63.7075 129.788L63.5547 132.603C63.4451 134.619 63.4053 136.953 61.785 138.414C61.1142 139.018 60.2277 139.407 59.3113 139.287C58.4114 139.171 57.6577 138.616 57.1298 137.896C55.868 136.169 56.2831 133.921 56.7214 131.969C56.7147 131.913 56.7247 131.856 56.7579 131.81C56.7679 131.766 56.7778 131.723 56.7878 131.68C57.0767 130.402 57.4087 129.137 57.7706 127.878C57.7607 127.819 57.7739 127.755 57.8204 127.706C57.8569 127.583 57.8902 127.46 57.9267 127.337C57.2726 128.745 56.5554 130.123 55.7618 131.454C55.287 132.248 54.6129 133.171 53.6401 133.347C52.6074 133.533 51.7408 132.806 51.3988 131.873C50.9705 130.714 51.4453 129.455 51.9035 128.393ZM122.907 118.668C124.285 116.689 125.457 114.55 126.234 112.266C126.217 112.266 126.197 112.263 126.177 112.256C123.919 111.655 121.612 111.237 119.287 111.011C116.956 110.782 114.606 110.742 112.268 110.888C110.957 110.971 109.645 111.114 108.347 111.316C108.327 111.32 108.304 111.32 108.284 111.32C107.576 113.518 106.467 115.57 105.013 117.346C105.348 118.246 106.042 118.956 106.763 119.564C107.533 120.218 108.363 120.803 109.233 121.317C110.99 122.356 112.909 123.107 114.904 123.535C116.017 123.774 117.146 123.91 118.281 123.94C120.028 122.383 121.568 120.593 122.907 118.668ZM102.234 125.202C103.057 126.321 103.977 127.417 105.123 128.22C105.76 128.665 106.457 129.007 107.214 129.193C107.274 129.206 107.317 129.24 107.344 129.276C108.685 129.027 110.014 128.698 111.299 128.227C113.663 127.364 115.841 126.022 117.757 124.399C115.828 124.292 113.918 123.894 112.109 123.22C110.133 122.483 108.284 121.43 106.65 120.095C105.856 119.445 105.096 118.701 104.668 117.761C103.814 118.744 102.848 119.64 101.786 120.417C101.354 120.733 100.909 121.028 100.451 121.304C100.454 122.772 101.394 124.063 102.234 125.202ZM65.5669 135.346C65.8823 135.904 66.3638 136.412 66.9913 136.604C67.5359 136.77 68.1269 136.644 68.5984 136.335C69.1197 135.997 69.4285 135.452 69.4584 134.831C69.4783 134.426 69.4052 134.028 69.3156 133.633C69.3023 133.633 69.2857 133.633 69.2724 133.629C67.8812 133.427 66.387 134.051 65.547 135.176C65.5337 135.193 65.5204 135.21 65.5038 135.223C65.5204 135.263 65.5436 135.306 65.5669 135.346ZM65.288 134.742C66.045 133.835 67.1407 133.264 68.3195 133.141C68.6117 133.111 68.9039 133.115 69.1961 133.148C69.133 132.895 69.0666 132.643 69.0002 132.391C68.8839 131.952 68.7578 131.517 68.6283 131.082C68.5984 131.099 68.5585 131.112 68.5154 131.112C67.081 131.129 65.6897 131.893 64.9128 133.098C64.8995 133.118 64.8862 133.134 64.8696 133.148C64.9825 133.679 65.0954 134.227 65.288 134.742ZM64.7434 132.52C65.4208 131.65 66.3937 131.019 67.4695 130.764C67.8048 130.684 68.1501 130.641 68.4955 130.634C68.4257 130.408 68.356 130.183 68.283 129.96C68.1302 129.492 67.9708 129.027 67.8081 128.566C67.7782 128.582 67.7417 128.592 67.6986 128.595C66.387 128.625 65.1186 129.316 64.3848 130.402C64.3682 130.428 64.345 130.448 64.3217 130.465C64.4612 131.149 64.6006 131.836 64.7434 132.52ZM63.319 127.955C63.3157 127.921 63.3157 127.888 63.3256 127.855C63.3555 127.324 63.3821 126.793 63.4119 126.261C63.4286 125.976 63.4418 125.693 63.4584 125.408C63.475 125.102 63.9499 125.102 63.9333 125.408L63.7971 127.925C63.9299 128.569 64.0627 129.213 64.1956 129.861C65.0323 128.821 66.3073 128.167 67.6454 128.121C67.2868 127.151 66.8983 126.192 66.48 125.245C66.3936 125.053 66.3073 124.863 66.221 124.674C66.1944 124.614 66.1845 124.548 66.2011 124.488C66.1778 124.472 66.1579 124.448 66.1446 124.425C66.0749 124.302 66.128 124.176 66.2309 124.1C66.998 123.522 67.765 122.944 68.532 122.366C68.5419 122.36 68.5552 122.353 68.5652 122.347C68.1103 122.038 67.6853 121.692 67.2935 121.301C66.3472 120.354 65.6134 119.176 65.2647 117.877C65.1352 117.396 65.0622 116.901 65.0489 116.406C63.9764 116.914 62.9039 117.419 61.8314 117.927C61.267 118.193 60.6992 118.462 60.1347 118.727C59.6035 118.98 59.0722 119.235 58.5741 119.551C57.1862 120.424 56.2001 121.746 55.3368 123.123C56.0507 123.359 56.7546 123.661 57.3323 124.153C57.7374 124.495 58.0595 124.93 58.2454 125.421C58.3583 125.152 58.4679 124.883 58.5775 124.614C58.6206 124.505 58.7202 124.425 58.8431 124.445C58.873 124.359 58.8995 124.276 58.9294 124.189C58.9726 124.07 59.0921 123.987 59.2216 124.023C59.3378 124.057 59.4308 124.193 59.3876 124.316C59.029 125.338 58.697 126.371 58.3882 127.41C59.0689 127.164 59.816 127.125 60.5199 127.314C60.9482 127.43 61.3666 127.599 61.775 127.772C62.1203 127.918 62.4623 128.087 62.7645 128.313C62.9604 128.459 63.1297 128.625 63.2725 128.815C63.2891 128.532 63.3057 128.244 63.319 127.955ZM56.7612 134.595C56.7147 135.406 56.7878 136.236 57.1265 136.973C57.4585 137.693 58.0196 138.357 58.7701 138.663C59.5537 138.982 60.3937 138.819 61.081 138.354C62.1402 137.64 62.5984 136.508 62.8209 135.306C61.3732 134.592 59.7728 133.812 58.1126 134.111C57.6843 134.187 57.2792 134.333 56.9073 134.562C56.8575 134.592 56.8077 134.602 56.7612 134.595ZM56.8143 134.018C56.811 134.034 56.811 134.051 56.8077 134.071C58.3118 133.227 60.1281 133.593 61.6422 134.23C62.0672 134.409 62.4856 134.612 62.9006 134.815C62.9737 134.263 63.0102 133.709 63.0367 133.184C63.0533 132.852 63.0733 132.517 63.0899 132.185C63.0733 132.178 63.0567 132.172 63.0401 132.158C61.6555 131.248 59.8757 131.043 58.3052 131.551C57.9034 131.68 57.5216 131.859 57.163 132.082C57.0202 132.723 56.8907 133.367 56.8143 134.018ZM57.4784 130.777C57.422 131.003 57.3689 131.229 57.3124 131.454C58.7169 130.734 60.4203 130.611 61.9211 131.099C62.3395 131.235 62.7412 131.418 63.1198 131.647C63.1563 130.966 63.1928 130.282 63.2293 129.602C63.1696 129.572 63.1231 129.519 63.0965 129.452C62.8541 128.835 62.2199 128.486 61.6455 128.234C60.9283 127.918 60.1646 127.623 59.3644 127.679C58.9626 127.709 58.5708 127.822 58.2122 128.004C57.9499 128.924 57.7042 129.851 57.4784 130.777ZM56.9372 128.26C57.2858 127.563 57.6179 126.859 57.9333 126.145C57.93 126.135 57.93 126.122 57.9267 126.112C57.8669 125.458 57.4618 124.883 56.9671 124.472C56.4225 124.02 55.7452 123.758 55.0811 123.545C54.9317 123.791 54.7856 124.037 54.6428 124.279C54.4403 124.624 54.2377 124.966 54.0352 125.312C54.1116 125.318 54.1912 125.345 54.2576 125.371C54.5963 125.508 54.9184 125.677 55.2106 125.893C55.7983 126.318 56.293 126.876 56.6284 127.523C56.7546 127.759 56.8575 128.004 56.9372 128.26ZM55.8714 130.286C56.1303 129.824 56.3761 129.356 56.6218 128.884C56.6085 128.864 56.5985 128.845 56.5919 128.818C56.4524 128.127 56.1337 127.48 55.6721 126.945C55.443 126.68 55.1807 126.441 54.8885 126.241C54.7458 126.142 54.5963 126.052 54.4403 125.972C54.3573 125.929 54.2743 125.889 54.1879 125.853C54.168 125.843 54.1481 125.836 54.1248 125.826C54.1215 125.83 54.1149 125.833 54.1115 125.836C53.9854 125.923 53.8492 125.873 53.7662 125.773C53.4641 126.301 53.1719 126.832 52.8996 127.377C52.7701 127.636 52.6406 127.895 52.5211 128.161C53.567 128.592 54.4569 129.379 55.0081 130.369C55.1508 130.624 55.2671 130.897 55.3633 131.172C55.5393 130.883 55.7053 130.581 55.8714 130.286ZM52.023 132.095C52.2389 132.45 52.5676 132.753 52.976 132.859C53.8592 133.088 54.593 132.321 55.0479 131.667C55.0612 131.65 55.0711 131.63 55.0811 131.614C55.028 131.59 54.9815 131.541 54.9583 131.468C54.5698 130.176 53.5737 129.094 52.3252 128.592C52.2687 128.725 52.2123 128.854 52.1625 128.987C51.9467 129.532 51.7508 130.106 51.7142 130.697C51.6877 131.192 51.7674 131.67 52.023 132.095Z" fill="#35322D"/>
<path d="M69.4252 113.468C69.91 112.193 70.6571 111.034 71.6266 110.071C71.8425 109.855 72.1778 110.191 71.962 110.406C71.0555 111.309 70.3383 112.399 69.8834 113.594C69.837 113.713 69.7241 113.796 69.5913 113.76C69.475 113.73 69.3787 113.591 69.4252 113.468Z" fill="#35322D"/>
<path d="M84.483 78.036C84.5328 79.3442 85.0807 80.5595 85.6618 81.7083C86.2428 82.8572 86.8671 83.9861 87.5311 85.0885C88.8593 87.2833 90.3535 89.3784 92.0037 91.3441C93.6606 93.3197 95.5133 95.1526 96.9345 97.3175C98.256 99.3363 99.2388 101.77 99.0064 104.224C98.8138 106.266 97.7513 108.318 95.9383 109.367C95.7126 109.497 95.4768 109.61 95.2344 109.706C95.1149 109.756 94.9754 109.653 94.9422 109.54C94.9024 109.404 94.9887 109.294 95.1083 109.248C97.0009 108.487 98.1763 106.548 98.4851 104.592C98.857 102.232 97.9505 99.831 96.7153 97.8587C95.3639 95.7004 93.5477 93.8908 91.9074 91.9617C90.2605 90.0292 88.7597 87.9706 87.4216 85.8123C86.7575 84.7432 86.1332 83.6474 85.5522 82.5285C84.9645 81.3995 84.3635 80.2341 84.1211 78.9757C84.0613 78.6669 84.0248 78.3514 84.0115 78.036C83.9982 77.7305 84.4731 77.7305 84.483 78.036Z" fill="#35322D"/>
<path d="M106.454 95.2588C107.895 93.758 109.532 92.4431 111.302 91.3507C113.072 90.2549 114.981 89.3817 116.963 88.7541C118.072 88.4022 119.204 88.1332 120.353 87.944C120.479 87.924 120.609 87.9772 120.645 88.11C120.675 88.2229 120.606 88.3823 120.479 88.4022C118.461 88.7342 116.482 89.3219 114.609 90.1454C112.736 90.9722 110.96 92.0247 109.346 93.2831C108.44 93.9904 107.583 94.764 106.786 95.5941C106.577 95.8166 106.242 95.4812 106.454 95.2588Z" fill="#35322D"/>
<path d="M97.6086 19.1025C97.7713 18.6144 98.1565 18.1595 98.6711 18.0334C99.1626 17.9138 99.6473 18.1263 99.9694 18.4982C100.295 18.8701 100.491 19.3383 100.643 19.7998C100.849 20.4307 101.052 21.0649 101.251 21.6991C101.656 22.9841 102.048 24.2724 102.397 25.574C102.573 26.2281 102.735 26.8855 102.885 27.5463C103.008 28.0875 103.094 28.6586 103.323 29.1699C103.369 29.2795 103.426 29.3824 103.489 29.482C103.562 29.1168 103.542 28.7316 103.482 28.3664C103.389 27.8152 103.227 27.2806 103.114 26.7361C103.001 26.2015 102.908 25.6204 103.021 25.0792C103.114 24.6276 103.423 24.0964 103.907 23.9868C104.14 23.9337 104.392 23.9802 104.585 24.1196C104.794 24.2657 104.92 24.4849 105.013 24.7173C105.103 24.9497 105.143 25.1954 105.179 25.4411C105.232 25.7831 105.285 26.1285 105.338 26.4705C105.548 27.8285 105.757 29.1898 105.969 30.5479C106.205 32.0786 106.441 33.6093 106.68 35.14C106.7 35.2662 106.647 35.3956 106.514 35.4322C106.494 35.4687 106.474 35.5085 106.451 35.5417C106.275 35.7974 105.993 35.9335 105.704 36.0166C105.056 36.2058 104.389 36.342 103.735 36.5047C103.413 36.5843 103.087 36.684 102.762 36.7338C102.446 36.7836 102.138 36.7504 101.882 36.5412C101.464 36.1992 101.377 35.5617 101.251 35.0736C100.554 32.394 99.8565 29.7178 99.1559 27.0382C98.8073 25.7034 98.452 24.372 98.1233 23.0339C97.9606 22.3698 97.8078 21.7024 97.6717 21.0317C97.5356 20.4074 97.3994 19.7268 97.6086 19.1025Z" fill="#D5863F"/>
<path d="M123.395 24.3256C123.103 23.9039 122.605 23.5718 122.077 23.5951C121.572 23.6183 121.167 23.9537 120.958 24.4019C120.752 24.8502 120.692 25.3516 120.676 25.8397C120.652 26.5037 120.636 27.1678 120.619 27.8319C120.586 29.18 120.569 30.5247 120.596 31.8728C120.609 32.5502 120.636 33.2275 120.676 33.9016C120.709 34.4561 120.782 35.0272 120.709 35.5817C120.692 35.6979 120.669 35.8141 120.636 35.927C120.463 35.595 120.377 35.2197 120.334 34.8512C120.267 34.2967 120.277 33.7389 120.237 33.1844C120.197 32.6398 120.124 32.0554 119.865 31.5673C119.65 31.1589 119.208 30.7372 118.71 30.7671C118.471 30.7804 118.245 30.8933 118.096 31.0825C117.936 31.2818 117.873 31.5242 117.85 31.7765C117.827 32.0255 117.86 32.2712 117.89 32.517C117.933 32.8623 117.979 33.2076 118.023 33.5529C118.199 34.9176 118.375 36.2789 118.551 37.6436C118.75 39.181 118.949 40.715 119.145 42.2523C119.161 42.3785 119.248 42.4881 119.384 42.4881C119.414 42.518 119.444 42.5478 119.477 42.5777C119.716 42.7736 120.025 42.8267 120.327 42.8267C121.001 42.8301 121.678 42.7736 122.352 42.7471C122.684 42.7338 123.023 42.7404 123.352 42.6973C123.671 42.6574 123.956 42.5379 124.145 42.2689C124.451 41.824 124.358 41.1898 124.345 40.6818C124.272 37.9159 124.195 35.1467 124.122 32.3808C124.086 31.0029 124.056 29.6249 123.999 28.2469C123.969 27.5629 123.933 26.8789 123.876 26.1983C123.827 25.5608 123.77 24.8668 123.395 24.3256Z" fill="#D5863F"/>
<path d="M125.958 62.4402C125.958 62.4402 131.078 64.3295 132.297 66.7666C133.515 69.2038 132.908 71.0333 132.356 71.8236C131.809 72.6171 130.042 74.6891 129.554 74.8717C129.066 75.0543 124.132 74.7488 124.132 74.7488C124.132 74.7488 125.473 77.0034 124.925 78.0393C124.378 79.0753 122.06 81.0874 121.27 81.4527C120.476 81.8179 119.171 82.2861 118.667 82.3558C118.162 82.4256 114.018 81.8179 111.093 80.6591C108.167 79.5003 106.707 78.0393 106.584 77.8567C106.461 77.6741 104.953 74.4334 104.605 74.5762C104.256 74.7223 99.8831 73.2248 97.2003 70.9702C94.5174 68.7157 92.6546 66.0395 91.881 63.3865C91.1073 60.7335 88.1223 54.3351 99.1493 41.9634C99.1493 41.9634 99.0896 37.9424 100.245 36.2955C101.404 34.6486 103.718 33.8583 105.182 33.8583C106.647 33.8583 110.787 35.6247 112.434 40.1969C112.434 40.1969 115.784 41.1731 117.979 42.0264C117.979 42.0264 118.162 38.9783 119.503 38.7957C120.845 38.6131 123.405 39.7088 124.989 41.4786C126.572 43.245 126.459 48.6938 126.459 48.6938C126.459 48.6938 129.733 54.8232 125.958 62.4402Z" fill="#CE1717"/>
<path d="M117.607 41.7973C117.64 41.6811 117.78 41.5881 117.899 41.6313C119.281 42.136 120.596 42.8266 121.794 43.6767C122.99 44.5267 124.075 45.5261 125.008 46.6551C125.54 47.2959 126.021 47.9766 126.449 48.6904C126.606 48.9528 126.197 49.1918 126.041 48.9295C125.307 47.7076 124.411 46.5886 123.381 45.6025C122.352 44.6163 121.197 43.7663 119.948 43.079C119.248 42.6938 118.52 42.3618 117.773 42.0895C117.654 42.0464 117.571 41.9301 117.607 41.7973Z" fill="#35322D"/>
<path d="M112.69 62.7024C114.197 61.6167 116.093 61.1518 117.936 61.2381C119.726 61.3211 121.575 61.8823 122.967 63.0378C123.71 63.6554 124.298 64.4722 124.517 65.4218C124.587 65.7207 124.129 65.8468 124.059 65.548C123.69 63.9409 122.223 62.8618 120.755 62.3007C119.122 61.6764 117.289 61.517 115.582 61.9155C114.626 62.138 113.723 62.5364 112.926 63.1108C112.823 63.1872 112.66 63.1274 112.6 63.0245C112.537 62.9083 112.587 62.7755 112.69 62.7024Z" fill="#35322D"/>
<path d="M99.0495 41.0668C99.0562 40.7613 99.531 40.7613 99.5243 41.0668C99.5044 42.0131 99.4845 42.9594 99.4646 43.9091C99.4579 44.2145 98.9831 44.2145 98.9898 43.9091C99.0097 42.9594 99.0296 42.0131 99.0495 41.0668Z" fill="#35322D"/>
<path d="M109.565 53.9466L109.897 50.241L108.403 47.2062L106.003 45.795L102.901 45.5925L100.169 47.8869L98.7442 50.9084L98.276 54.7368L99.0032 58.2132L101.334 60.3615L104.708 60.4744L107.483 58.4922L109.14 55.972L109.565 53.9466Z" fill="#ECEBD7"/>
<path d="M106.883 53.9067L107.118 51.2737L106.056 49.1187L104.352 48.116L102.148 47.9699L100.209 49.6002L99.1959 51.7485L98.8638 54.4679L99.3785 56.9382L101.035 58.4623L103.433 58.542L105.405 57.1341L106.58 55.3444L106.883 53.9067Z" fill="#35322D"/>
<path d="M109.741 53.1364L109.545 50.3871L108.456 48.2156L106.873 46.9107L104.867 46.1437L102.941 46.22L101.454 47.1564L100.341 48.5177L99.4681 49.7197L98.4985 52.3594L98.9268 49.6068L100.507 46.748L103.137 44.8056L105.471 44.7425L107.669 45.3435L108.855 46.5654L109.901 47.9666L110.09 50.5033L109.741 53.1364Z" fill="#35322D"/>
<path d="M107.649 51.7916L104.502 51.5459L106.955 49.2183L107.769 51.4695L107.649 51.7916Z" fill="#ECEBD7"/>
<path d="M125.49 62.2043C124.275 61.7926 123.066 61.3311 121.804 61.1053L121.735 59.3388L122.229 56.2442L123.129 53.7241L124.607 51.6953L126.088 51.6389L127.144 52.6018L127.652 54.926L127.23 57.9144L126.881 59.5646L125.905 61.6963L125.49 62.2043Z" fill="#ECEBD7"/>
<path d="M125.696 59.2393L125.002 60.7533L124.175 61.7495C123.531 61.5303 122.88 61.3278 122.216 61.185L122.113 61.019L122.037 59.0799L122.389 56.8818L123.027 55.0921L124.076 53.651L125.128 53.6112L125.879 54.2952L126.241 55.9454L125.942 58.0672L125.696 59.2393Z" fill="#35322D"/>
<path d="M127.376 57.2503L127.472 55.0688L127.101 53.4053L126.43 52.4723L125.517 51.9975L124.58 52.1967L123.8 53.0501L123.166 54.2155L122.661 55.2415L122.01 57.4197L122.409 55.1884L123.372 52.7911L124.776 51.0512L125.905 50.8354L126.921 51.1641L127.409 52.0573L127.814 53.1032L127.728 55.122L127.376 57.2503Z" fill="#35322D"/>
<path d="M126.46 56.3239L124.962 56.3472L126.307 54.3118L126.54 56.0583L126.46 56.3239Z" fill="#ECEBD7"/>
<path d="M82.9694 40.2767C83.1055 40.2402 83.2118 40.3232 83.2616 40.4427L83.3911 40.7548C83.4143 40.7714 83.4375 40.798 83.4575 40.8279C84.686 42.9363 85.9179 45.0448 87.1464 47.1532C87.4519 47.6745 87.754 48.1958 88.0595 48.7171C88.2953 49.1156 88.5343 49.5173 88.8365 49.8726C89.1453 50.2312 89.5105 50.5367 89.9588 50.7027C90.4635 50.8886 91.0047 50.9451 91.5293 51.0679C92.4856 51.2904 93.3688 51.8084 94.0262 52.5422C94.7302 53.3291 95.1087 54.3186 95.381 55.3214C95.8525 57.0646 96.1214 59.2992 97.8546 60.292C98.7511 60.8066 99.8137 60.9129 100.757 61.3146C101.663 61.6998 102.48 62.2942 103.121 63.0446C103.28 63.2305 103.43 63.4264 103.569 63.6323C103.642 63.7385 103.589 63.8946 103.483 63.9577C103.366 64.0274 103.23 63.9776 103.157 63.8713C103.144 63.8514 103.127 63.8315 103.114 63.8116C102.516 64.5985 102.181 65.5747 102.161 66.5609C102.161 66.5642 102.161 66.5708 102.161 66.5741C102.178 66.6107 102.194 66.6472 102.214 66.6837C102.267 66.7999 102.248 66.9394 102.128 67.0091C102.025 67.0689 101.856 67.0423 101.803 66.9228C101.384 66.0229 100.943 65.0999 100.298 64.3362C99.9896 63.971 99.6344 63.6456 99.2193 63.4032C98.7412 63.1276 98.2166 63.0147 97.6753 62.9416C97.0843 62.8619 96.4933 62.7922 95.9487 62.5233C95.5138 62.3074 95.1353 61.9854 94.8331 61.6102C94.1956 60.8199 93.8337 59.8437 93.6145 58.8642C93.3588 57.722 93.2393 56.5366 92.7977 55.4409C92.5952 54.9395 92.3162 54.4514 91.9211 54.0795C91.7518 53.9168 91.5526 53.7774 91.3367 53.6877C91.0678 53.5748 90.7855 53.5616 90.4967 53.5782C90.1945 53.5948 89.8924 53.6446 89.5902 53.6213C89.3179 53.6014 89.059 53.5283 88.8166 53.4022C88.3882 53.1764 88.0628 52.7945 87.8105 52.3895C87.5316 51.9478 87.3357 51.4631 87.1364 50.9849C86.8741 50.3541 86.6118 49.7265 86.3495 49.0956C85.2936 46.5622 84.2411 44.0254 83.1852 41.492C83.059 41.1865 82.9295 40.8777 82.8033 40.5722C82.7535 40.4494 82.8565 40.3066 82.9694 40.2767Z" fill="#D5863F"/>
<path d="M130.398 43.0625C130.434 42.8367 130.819 42.8334 130.856 43.0625C131.052 44.3243 131.317 45.5761 131.649 46.8079C131.812 47.4089 131.988 48.0066 132.187 48.5943C132.343 49.0558 132.526 49.514 132.798 49.9191C133.067 50.3176 133.429 50.6197 133.884 50.7791C134.399 50.9551 134.946 51.0381 135.385 51.3834C136.198 52.0242 136.308 53.1797 136.109 54.126C135.866 55.2716 135.195 56.3241 135.212 57.5228C135.222 58.0806 135.421 58.5621 135.787 58.9771C136.135 59.3722 136.537 59.7076 136.862 60.126C138.098 61.7264 138.28 63.9743 137.636 65.8536C136.952 67.8492 135.418 69.4396 133.678 70.5752C133.459 70.718 133.233 70.8541 133.007 70.9836C132.742 71.1364 132.503 70.7246 132.768 70.5752C132.798 70.5586 132.828 70.5387 132.861 70.5221C132.858 69.9477 132.855 69.3766 132.851 68.8021C132.851 68.5033 132.838 68.2011 132.848 67.9023C132.858 67.64 132.918 67.3943 133.08 67.1884C133.24 66.9859 133.459 66.8365 133.648 66.6638C133.844 66.4845 134.03 66.2986 134.209 66.1027C134.561 65.7142 134.877 65.2892 135.146 64.8409C135.408 64.406 135.627 63.9278 135.571 63.4065C135.528 62.9815 135.308 62.5963 135.073 62.2477C134.804 61.8559 134.492 61.5006 134.206 61.1254C133.914 60.7469 133.668 60.3418 133.479 59.9002C133.097 59.0004 132.941 58.0042 133.044 57.0347C133.097 56.5499 133.203 56.0685 133.383 55.6136C133.552 55.1786 133.778 54.7602 133.867 54.2954C133.904 54.1128 133.914 53.9135 133.844 53.7376C133.764 53.5317 133.585 53.4122 133.396 53.3192C133.187 53.2163 132.974 53.1266 132.772 53.0071C132.572 52.8909 132.386 52.758 132.207 52.6153C131.497 52.0475 130.955 51.2705 130.593 50.4371C129.697 48.3785 129.903 46.1073 130.245 43.9457C130.301 43.6502 130.348 43.3547 130.398 43.0625Z" fill="#D5863F"/>
<path d="M109.306 66.6504C109.389 66.6239 109.489 66.6371 109.545 66.7069C110.764 68.2044 112.182 69.5392 113.749 70.6648C115.316 71.7904 117.026 72.7201 118.833 73.4074C119.852 73.7959 120.898 74.108 121.96 74.3404C122.03 74.357 122.073 74.3936 122.1 74.4367C122.15 74.4533 122.196 74.4865 122.216 74.5363C122.525 75.2469 122.85 76.0371 122.757 76.8307C122.671 77.5778 122.209 78.1788 121.539 78.5108C120.795 78.8794 119.955 78.8827 119.148 78.8063C118.281 78.7267 117.421 78.6005 116.568 78.4345C115.17 78.1622 113.699 77.7604 112.637 76.7577C111.505 75.6951 111.136 74.1146 110.721 72.6769L109.25 67.5735L109.067 66.9393C109.021 66.7666 109.167 66.6504 109.306 66.6504Z" fill="#6F1C2F"/>
<path d="M111.013 68.6029C111.146 68.6029 111.226 68.6992 111.246 68.8154C112.321 69.6953 113.43 70.5353 114.589 71.299C115.761 72.0727 116.99 72.7633 118.281 73.3211C118.999 73.6299 119.736 73.8889 120.486 74.1014C120.526 74.1114 120.556 74.128 120.579 74.1512C120.695 74.118 120.832 74.1612 120.878 74.3073C121.24 75.4395 120.895 76.7245 119.991 77.5015C119.56 77.8734 119.035 78.1257 118.474 78.2121C117.863 78.305 117.242 78.232 116.651 78.0593C116.053 77.8867 115.476 77.6244 114.938 77.3189C114.413 77.02 113.922 76.6515 113.517 76.1999C112.71 75.3067 112.202 74.1844 111.783 73.0688C111.272 71.7074 110.937 70.2863 110.774 68.8419C110.761 68.7124 110.894 68.6029 111.013 68.6029Z" fill="#B55161"/>
<path d="M105.611 66.1524C105.986 65.9963 106.361 65.837 106.736 65.6809C107.085 65.5348 107.434 65.392 107.769 65.2194C108.383 64.8973 108.891 64.4391 109.24 63.8348C109.393 63.5691 109.804 63.8082 109.648 64.0738C109.409 64.4889 109.097 64.8508 108.732 65.1496C108.812 65.3223 108.901 65.4916 109.004 65.651C109.061 65.7373 109.12 65.8237 109.18 65.9067C109.187 65.9166 109.197 65.9266 109.203 65.9366C109.207 65.9399 109.207 65.9399 109.207 65.9399C109.22 65.9565 109.233 65.9731 109.247 65.9897C109.283 66.0329 109.32 66.076 109.356 66.1192C109.396 66.1624 109.419 66.2188 109.423 66.2752C110.266 67.3311 111.209 68.3007 112.235 69.1773C113.294 70.0804 114.44 70.874 115.648 71.5646C116.664 72.1424 117.72 72.6404 118.809 73.0588C118.819 73.0256 118.839 72.9924 118.862 72.9658C120.094 71.5049 120.905 69.5691 120.921 67.6466C120.928 66.7069 120.712 65.7573 120.144 64.9936C119.673 64.3594 118.942 63.8646 118.139 63.8016C116.392 63.6654 114.729 65.3489 114.858 67.0921C114.915 67.869 115.449 68.6194 116.223 68.8187C116.996 69.0179 117.714 68.5165 118.129 67.8956C118.354 67.5569 118.517 67.1784 118.597 66.7799C118.663 66.4579 118.683 66.0395 118.457 65.7705C118.232 65.5016 117.883 65.5282 117.594 65.6809C117.262 65.8536 116.977 66.159 116.85 66.5176C116.784 66.7003 116.747 66.8962 116.86 67.0688C117.026 67.3278 116.615 67.5669 116.452 67.3079C116.166 66.8596 116.376 66.2653 116.671 65.8735C116.943 65.5116 117.342 65.1928 117.8 65.1131C118.268 65.0334 118.74 65.2326 118.959 65.6643C119.175 66.0893 119.145 66.6006 119.029 67.0522C118.796 67.9487 118.198 68.8319 117.319 69.1905C116.399 69.5657 115.413 69.154 114.848 68.3804C114.217 67.5137 114.294 66.3549 114.742 65.4285C115.18 64.5221 115.997 63.7982 116.957 63.4795C117.893 63.1674 118.916 63.3267 119.713 63.9045C120.536 64.4988 121.071 65.3987 121.28 66.3848C121.519 67.4938 121.393 68.6626 121.09 69.7484C120.802 70.7843 120.333 71.7738 119.713 72.6504C119.573 72.8496 119.42 73.0422 119.268 73.2281C119.374 73.268 119.48 73.3045 119.586 73.341C120.905 73.7926 122.263 74.1313 123.637 74.3604C123.929 72.6603 124.59 71.0201 125.553 69.5923C126.044 68.8651 126.602 68.1446 127.306 67.6134C127.997 67.0921 128.95 66.7899 129.797 67.0987C130.534 67.3676 131.038 68.0516 131.178 68.812C131.331 69.6355 131.068 70.4689 130.577 71.1363C130.102 71.7838 129.385 72.4379 128.535 72.4711C127.652 72.5043 127.064 71.6675 127.147 70.8375C127.193 70.3826 127.389 69.9576 127.658 69.5923C127.891 69.2769 128.216 68.9847 128.608 68.8884C129 68.7921 129.425 68.9482 129.604 69.3267C129.79 69.7185 129.707 70.1634 129.474 70.5154C129.355 70.7013 129.202 70.864 129.046 71.0168C128.83 71.2326 128.495 70.8972 128.711 70.6814C128.943 70.449 129.225 70.1634 129.232 69.8148C129.239 69.5525 129.086 69.3101 128.81 69.3333C128.525 69.3599 128.256 69.5923 128.083 69.8115C127.857 70.097 127.668 70.4556 127.622 70.8208C127.582 71.123 127.648 71.4484 127.841 71.6908C128.037 71.9332 128.339 72.0328 128.641 71.9863C129.318 71.8834 129.899 71.3023 130.261 70.7578C130.633 70.1966 130.849 69.5126 130.693 68.8419C130.554 68.2376 130.145 67.6897 129.531 67.5171C128.807 67.3145 128.04 67.62 127.476 68.0749C126.885 68.553 126.403 69.1739 125.978 69.7982C125.115 71.0666 124.501 72.4943 124.178 73.9951C124.149 74.1412 124.119 74.2873 124.095 74.4334C124.112 74.4367 124.129 74.4401 124.142 74.4401C125.686 74.6659 127.256 74.7455 128.817 74.6957C129.013 74.6891 129.212 74.6825 129.408 74.6725C129.714 74.6559 129.714 75.1307 129.408 75.1473C127.828 75.227 126.237 75.1772 124.667 74.9846C123.996 74.9016 123.332 74.7954 122.671 74.6625C122.913 75.3997 123.129 76.1799 123.023 76.9569C122.917 77.7571 122.422 78.4079 121.715 78.7831C120.941 79.1949 120.055 79.2447 119.198 79.1783C118.368 79.1118 117.534 78.999 116.718 78.8462C115.19 78.5607 113.646 78.0394 112.514 76.9304C111.322 75.7649 110.714 74.1412 110.213 72.584C109.645 70.8142 109.25 68.9946 109.024 67.1485C108.998 66.926 108.971 66.7003 108.948 66.4745C108.945 66.4579 108.948 66.4413 108.951 66.4247C108.941 66.4014 108.935 66.3782 108.931 66.3516C108.695 66.0694 108.496 65.7573 108.337 65.4252C108.241 65.4883 108.141 65.5481 108.038 65.6012C107.683 65.7905 107.311 65.9399 106.942 66.0959C106.537 66.2653 106.135 66.4346 105.73 66.604C105.611 66.6538 105.468 66.5508 105.438 66.4379C105.408 66.3084 105.495 66.2022 105.611 66.1524ZM110.439 71.6842C110.671 72.4877 110.933 73.2879 111.252 74.0615C111.541 74.7588 111.893 75.4495 112.361 76.0438C112.823 76.6315 113.391 77.1097 114.045 77.4716C114.682 77.8235 115.376 78.056 116.08 78.2286C116.804 78.4046 117.541 78.5175 118.281 78.6071C119.125 78.7101 120.015 78.8329 120.851 78.6171C121.506 78.4478 122.136 78.0593 122.415 77.4218C122.727 76.7179 122.551 75.8977 122.342 75.1938C122.286 75.0045 122.226 74.8186 122.163 74.6326C122.153 74.6061 122.15 74.5795 122.15 74.5563C121.423 74.3969 120.705 74.2043 119.995 73.9785C118.577 73.527 117.199 72.9492 115.887 72.242C114.632 71.5679 113.444 70.7744 112.335 69.8779C111.305 69.0478 110.352 68.1214 109.496 67.112C109.692 68.6593 110.004 70.1867 110.439 71.6842Z" fill="#35322D"/>
<path d="M102.47 65.0103C103.28 63.2372 104.944 61.9821 106.833 61.5604C107.885 61.3246 108.994 61.3446 110.03 61.6567C110.323 61.743 110.196 62.2012 109.904 62.1149C108.191 61.6002 106.285 61.9422 104.814 62.945C103.3 63.9776 102.417 65.7142 102.354 67.5337C102.317 68.5597 102.53 69.5924 103.014 70.4988C103.157 70.7678 102.749 71.0102 102.606 70.7379C101.66 68.9781 101.643 66.8165 102.47 65.0103Z" fill="#35322D"/>
<path d="M132.516 66.5475C133.173 67.7196 133.363 69.1242 133.07 70.4324C132.987 70.8076 132.858 71.1728 132.695 71.5215C132.642 71.6377 132.473 71.6676 132.37 71.6078C132.25 71.5381 132.23 71.3986 132.284 71.2824C132.941 69.8679 132.868 68.148 132.108 66.7899C131.955 66.521 132.367 66.2819 132.516 66.5475Z" fill="#35322D"/>
<path d="M92.6115 66.2155C92.6248 66.2022 92.6414 66.1856 92.658 66.1756C92.2563 65.485 91.901 64.7678 91.6088 64.024C91.0775 62.6793 90.7455 61.2548 90.6492 59.8105C90.6359 59.6312 90.6293 59.4485 90.626 59.2692C90.6193 58.9638 91.0941 58.9638 91.1008 59.2692C91.134 60.6771 91.4062 62.065 91.8744 63.3898C92.3459 64.7246 93.0233 65.9897 93.8434 67.1419C94.6669 68.3007 95.653 69.34 96.7421 70.2497C97.8411 71.1695 99.0498 71.9531 100.321 72.6139C101.603 73.2813 102.951 73.8192 104.333 74.2375C104.502 74.2906 104.674 74.3405 104.844 74.3869C104.99 74.4301 105.033 74.5662 105 74.6791C105.036 74.6991 105.066 74.7256 105.083 74.7621C105.505 75.642 105.933 76.5253 106.494 77.3255C106.77 77.7173 107.082 78.0859 107.437 78.4112C107.806 78.7499 108.224 79.0255 108.662 79.2646C109.127 79.5136 109.612 79.7195 110.1 79.9154C110.611 80.1212 111.126 80.3271 111.644 80.523C112.69 80.9248 113.749 81.2933 114.838 81.549C116.093 81.8412 117.372 81.9375 118.657 81.8744C118.962 81.8578 118.962 82.3326 118.657 82.3492C117.471 82.409 116.289 82.3326 115.124 82.0969C114.005 81.8678 112.919 81.5092 111.85 81.1074C111.312 80.9049 110.777 80.6924 110.243 80.4798C109.741 80.2806 109.24 80.0781 108.755 79.8423C107.809 79.3808 106.992 78.7533 106.348 77.9198C105.654 77.0266 105.156 76.0139 104.671 74.9979C104.645 74.9414 104.635 74.8784 104.648 74.8186C103.247 74.4201 101.879 73.9022 100.571 73.2647C99.2457 72.6172 97.9872 71.8369 96.8284 70.9238C95.6729 70.014 94.6303 68.9648 93.7372 67.796C93.4582 67.4307 93.1993 67.0489 92.9502 66.6637C92.9535 66.3118 92.9071 66.2321 92.6115 66.2155Z" fill="#35322D"/>
<path d="M97.7182 33.9048C97.9374 33.6824 98.2528 33.7222 98.5151 33.8351C98.7542 33.938 98.9833 34.0675 99.2124 34.1937C100.132 34.6984 101.002 35.2961 101.809 35.9668C102.612 36.6309 103.353 37.3746 104.014 38.1782C104.183 38.384 104.349 38.5965 104.508 38.809C104.655 39.0049 104.784 39.2241 104.953 39.4001C105.07 39.5196 105.212 39.6192 105.325 39.4466C105.382 39.3569 105.412 39.2507 105.441 39.151C105.488 38.9983 105.534 38.8489 105.581 38.6961C105.674 38.394 105.767 38.0918 105.86 37.7897C105.913 37.6137 106.122 37.5639 106.255 37.6834C107.198 38.5268 108.005 39.5196 108.642 40.612C108.954 41.1499 109.227 41.7144 109.452 42.2954C109.562 42.5777 109.642 42.8765 109.778 43.1488C109.891 43.3779 110.06 43.6004 110.332 43.6336C110.555 43.6601 110.661 43.5173 110.731 43.3214C110.824 43.0558 110.91 42.7802 111.166 42.6242C111.428 42.4648 111.763 42.5013 112.029 42.6374C112.315 42.7869 112.491 43.0757 112.607 43.3646C112.73 43.6734 112.809 44.0021 112.886 44.3209C112.965 44.6463 113.032 44.9783 113.088 45.3104C113.208 46.0076 113.278 46.7149 113.297 47.4254C113.337 48.996 113.128 50.5732 112.67 52.0773C112.653 52.1337 112.62 52.1769 112.58 52.2035C112.454 52.4691 112.248 52.6949 111.979 52.8177C111.823 52.8908 111.617 52.8078 111.621 52.6119C111.67 50.6894 111.538 48.7636 111.212 46.8676C111.139 46.4426 111.056 46.0176 110.963 45.5959C110.608 45.8283 110.219 46.0209 109.794 46.0608C109.532 46.0873 109.263 46.0309 109.037 45.8947C108.808 45.7553 108.646 45.5428 108.506 45.317C107.882 44.3142 107.384 43.2185 106.959 42.1161C106.889 41.9402 106.813 41.7277 106.657 41.6048C106.537 41.5118 106.428 41.555 106.331 41.648C106.185 41.7907 106.082 41.97 105.946 42.1161C105.79 42.2822 105.584 42.405 105.362 42.4449C104.877 42.5245 104.415 42.2855 104.04 41.9999C103.592 41.6579 103.243 41.2097 102.871 40.788C102.038 39.8384 101.201 38.8887 100.368 37.9391C99.9495 37.4643 99.5345 36.9895 99.1161 36.5147C98.7044 36.0465 98.2694 35.5916 97.8809 35.1035C97.6385 34.8013 97.3795 34.2435 97.7182 33.9048Z" fill="#E6D052"/>
<path d="M128.303 33.8351C128.555 33.8683 128.688 34.0907 128.744 34.3165C128.797 34.5224 128.827 34.7382 128.86 34.9474C128.993 35.7974 129.043 36.6574 129.013 37.5174C128.983 38.3707 128.874 39.2207 128.684 40.0541C128.635 40.2666 128.582 40.4791 128.522 40.6916C128.469 40.8842 128.389 41.0768 128.362 41.276C128.342 41.4122 128.349 41.5549 128.518 41.5383C128.605 41.5317 128.688 41.4952 128.771 41.4653C128.894 41.4188 129.013 41.3756 129.136 41.3292C129.378 41.2395 129.621 41.1465 129.863 41.0569C130.006 41.0038 130.139 41.1133 130.129 41.2628C130.056 42.2954 129.817 43.3148 129.425 44.2743C129.232 44.7458 129.003 45.2041 128.741 45.6423C128.615 45.8548 128.459 46.0574 128.352 46.2799C128.259 46.4691 128.2 46.6883 128.316 46.8808C128.409 47.0402 128.555 47.0369 128.718 46.9838C128.937 46.9107 129.159 46.8277 129.385 46.9174C129.618 47.0103 129.764 47.2428 129.807 47.4818C129.853 47.7408 129.754 47.9998 129.624 48.2223C129.488 48.4547 129.312 48.6705 129.146 48.883C128.973 49.0989 128.794 49.308 128.608 49.5106C128.216 49.9356 127.791 50.3374 127.343 50.7026C126.347 51.5161 125.218 52.1669 124.016 52.6251C123.97 52.6417 123.926 52.6417 123.89 52.6318C123.654 52.6816 123.405 52.6616 123.193 52.5521C123.066 52.489 123.02 52.313 123.146 52.2167C124.418 51.287 125.6 50.2344 126.662 49.0756C126.901 48.8166 127.134 48.5477 127.363 48.2787C127.034 48.1658 126.716 48.0098 126.476 47.7541C126.33 47.598 126.227 47.3955 126.204 47.1797C126.181 46.9639 126.234 46.748 126.31 46.5455C126.649 45.639 127.107 44.7691 127.609 43.9423C127.688 43.8095 127.788 43.6534 127.788 43.4907C127.788 43.3679 127.705 43.3181 127.595 43.3015C127.429 43.2782 127.263 43.3015 127.097 43.2882C126.911 43.2716 126.729 43.1985 126.593 43.0724C126.297 42.8001 126.221 42.3784 126.217 41.9932C126.214 41.5317 126.33 41.0801 126.417 40.6286C126.616 39.6125 126.812 38.5965 127.011 37.5804C127.111 37.0724 127.21 36.5644 127.307 36.0564C127.403 35.555 127.483 35.047 127.602 34.5489C127.682 34.2335 127.914 33.7853 128.303 33.8351Z" fill="#E6D052"/>
</svg>
